G04 #@! TF.GenerationSoftware,KiCad,Pcbnew,5.1.5+dfsg1-2build2*
G04 #@! TF.CreationDate,2022-03-11T14:10:26+02:00*
G04 #@! TF.ProjectId,dc_receiver,64635f72-6563-4656-9976-65722e6b6963,rev?*
G04 #@! TF.SameCoordinates,Original*
G04 #@! TF.FileFunction,Soldermask,Top*
G04 #@! TF.FilePolarity,Negative*
%FSLAX46Y46*%
G04 Gerber Fmt 4.6, Leading zero omitted, Abs format (unit mm)*
G04 Created by KiCad (PCBNEW 5.1.5+dfsg1-2build2) date 2022-03-11 14:10:26*
%MOMM*%
%LPD*%
G04 APERTURE LIST*
%ADD10C,0.100000*%
G04 APERTURE END LIST*
D10*
G36*
X68175562Y-46528181D02*
G01*
X68210481Y-46538774D01*
X68242663Y-46555976D01*
X68270873Y-46579127D01*
X68294024Y-46607337D01*
X68311226Y-46639519D01*
X68321819Y-46674438D01*
X68326000Y-46716895D01*
X68326000Y-47858105D01*
X68321819Y-47900562D01*
X68311226Y-47935481D01*
X68294024Y-47967663D01*
X68270873Y-47995873D01*
X68242663Y-48019024D01*
X68210481Y-48036226D01*
X68175562Y-48046819D01*
X68133105Y-48051000D01*
X66666895Y-48051000D01*
X66624438Y-48046819D01*
X66589519Y-48036226D01*
X66557337Y-48019024D01*
X66529127Y-47995873D01*
X66505976Y-47967663D01*
X66488774Y-47935481D01*
X66478181Y-47900562D01*
X66474000Y-47858105D01*
X66474000Y-46716895D01*
X66478181Y-46674438D01*
X66488774Y-46639519D01*
X66505976Y-46607337D01*
X66529127Y-46579127D01*
X66557337Y-46555976D01*
X66589519Y-46538774D01*
X66624438Y-46528181D01*
X66666895Y-46524000D01*
X68133105Y-46524000D01*
X68175562Y-46528181D01*
G37*
G36*
X117898254Y-44027818D02*
G01*
X118271511Y-44182426D01*
X118271513Y-44182427D01*
X118607436Y-44406884D01*
X118893116Y-44692564D01*
X119116497Y-45026876D01*
X119117574Y-45028489D01*
X119272182Y-45401746D01*
X119351000Y-45797993D01*
X119351000Y-46202007D01*
X119272182Y-46598254D01*
X119142632Y-46911015D01*
X119117573Y-46971513D01*
X118893116Y-47307436D01*
X118607436Y-47593116D01*
X118271513Y-47817573D01*
X118271512Y-47817574D01*
X118271511Y-47817574D01*
X117898254Y-47972182D01*
X117502007Y-48051000D01*
X117097993Y-48051000D01*
X116701746Y-47972182D01*
X116328489Y-47817574D01*
X116328488Y-47817574D01*
X116328487Y-47817573D01*
X115992564Y-47593116D01*
X115706884Y-47307436D01*
X115482427Y-46971513D01*
X115457368Y-46911015D01*
X115327818Y-46598254D01*
X115249000Y-46202007D01*
X115249000Y-45797993D01*
X115327818Y-45401746D01*
X115482426Y-45028489D01*
X115483504Y-45026876D01*
X115706884Y-44692564D01*
X115992564Y-44406884D01*
X116328487Y-44182427D01*
X116328489Y-44182426D01*
X116701746Y-44027818D01*
X117097993Y-43949000D01*
X117502007Y-43949000D01*
X117898254Y-44027818D01*
G37*
G36*
X40898254Y-44027818D02*
G01*
X41271511Y-44182426D01*
X41271513Y-44182427D01*
X41607436Y-44406884D01*
X41893116Y-44692564D01*
X42116497Y-45026876D01*
X42117574Y-45028489D01*
X42272182Y-45401746D01*
X42351000Y-45797993D01*
X42351000Y-46202007D01*
X42272182Y-46598254D01*
X42142632Y-46911015D01*
X42117573Y-46971513D01*
X41893116Y-47307436D01*
X41607436Y-47593116D01*
X41271513Y-47817573D01*
X41271512Y-47817574D01*
X41271511Y-47817574D01*
X40898254Y-47972182D01*
X40502007Y-48051000D01*
X40097993Y-48051000D01*
X39701746Y-47972182D01*
X39328489Y-47817574D01*
X39328488Y-47817574D01*
X39328487Y-47817573D01*
X38992564Y-47593116D01*
X38706884Y-47307436D01*
X38482427Y-46971513D01*
X38457368Y-46911015D01*
X38327818Y-46598254D01*
X38249000Y-46202007D01*
X38249000Y-45797993D01*
X38327818Y-45401746D01*
X38482426Y-45028489D01*
X38483504Y-45026876D01*
X38706884Y-44692564D01*
X38992564Y-44406884D01*
X39328487Y-44182427D01*
X39328489Y-44182426D01*
X39701746Y-44027818D01*
X40097993Y-43949000D01*
X40502007Y-43949000D01*
X40898254Y-44027818D01*
G37*
G36*
X51151000Y-47301000D02*
G01*
X49349000Y-47301000D01*
X49349000Y-45499000D01*
X51151000Y-45499000D01*
X51151000Y-47301000D01*
G37*
G36*
X52903512Y-45503927D02*
G01*
X53052812Y-45533624D01*
X53216784Y-45601544D01*
X53364354Y-45700147D01*
X53489853Y-45825646D01*
X53588456Y-45973216D01*
X53656376Y-46137188D01*
X53682682Y-46269439D01*
X53689788Y-46305163D01*
X53691000Y-46311259D01*
X53691000Y-46488741D01*
X53656376Y-46662812D01*
X53588456Y-46826784D01*
X53489853Y-46974354D01*
X53364354Y-47099853D01*
X53216784Y-47198456D01*
X53052812Y-47266376D01*
X52903512Y-47296073D01*
X52878742Y-47301000D01*
X52701258Y-47301000D01*
X52676488Y-47296073D01*
X52527188Y-47266376D01*
X52363216Y-47198456D01*
X52215646Y-47099853D01*
X52090147Y-46974354D01*
X51991544Y-46826784D01*
X51923624Y-46662812D01*
X51889000Y-46488741D01*
X51889000Y-46311259D01*
X51890213Y-46305163D01*
X51897318Y-46269439D01*
X51923624Y-46137188D01*
X51991544Y-45973216D01*
X52090147Y-45825646D01*
X52215646Y-45700147D01*
X52363216Y-45601544D01*
X52527188Y-45533624D01*
X52676488Y-45503927D01*
X52701258Y-45499000D01*
X52878742Y-45499000D01*
X52903512Y-45503927D01*
G37*
G36*
X87000562Y-45378181D02*
G01*
X87035481Y-45388774D01*
X87067663Y-45405976D01*
X87095873Y-45429127D01*
X87119024Y-45457337D01*
X87136226Y-45489519D01*
X87146819Y-45524438D01*
X87151000Y-45566895D01*
X87151000Y-47033105D01*
X87146819Y-47075562D01*
X87136226Y-47110481D01*
X87119024Y-47142663D01*
X87095873Y-47170873D01*
X87067663Y-47194024D01*
X87035481Y-47211226D01*
X87000562Y-47221819D01*
X86958105Y-47226000D01*
X85816895Y-47226000D01*
X85774438Y-47221819D01*
X85739519Y-47211226D01*
X85707337Y-47194024D01*
X85679127Y-47170873D01*
X85655976Y-47142663D01*
X85638774Y-47110481D01*
X85628181Y-47075562D01*
X85624000Y-47033105D01*
X85624000Y-45566895D01*
X85628181Y-45524438D01*
X85638774Y-45489519D01*
X85655976Y-45457337D01*
X85679127Y-45429127D01*
X85707337Y-45405976D01*
X85739519Y-45388774D01*
X85774438Y-45378181D01*
X85816895Y-45374000D01*
X86958105Y-45374000D01*
X87000562Y-45378181D01*
G37*
G36*
X84025562Y-45378181D02*
G01*
X84060481Y-45388774D01*
X84092663Y-45405976D01*
X84120873Y-45429127D01*
X84144024Y-45457337D01*
X84161226Y-45489519D01*
X84171819Y-45524438D01*
X84176000Y-45566895D01*
X84176000Y-47033105D01*
X84171819Y-47075562D01*
X84161226Y-47110481D01*
X84144024Y-47142663D01*
X84120873Y-47170873D01*
X84092663Y-47194024D01*
X84060481Y-47211226D01*
X84025562Y-47221819D01*
X83983105Y-47226000D01*
X82841895Y-47226000D01*
X82799438Y-47221819D01*
X82764519Y-47211226D01*
X82732337Y-47194024D01*
X82704127Y-47170873D01*
X82680976Y-47142663D01*
X82663774Y-47110481D01*
X82653181Y-47075562D01*
X82649000Y-47033105D01*
X82649000Y-45566895D01*
X82653181Y-45524438D01*
X82663774Y-45489519D01*
X82680976Y-45457337D01*
X82704127Y-45429127D01*
X82732337Y-45405976D01*
X82764519Y-45388774D01*
X82799438Y-45378181D01*
X82841895Y-45374000D01*
X83983105Y-45374000D01*
X84025562Y-45378181D01*
G37*
G36*
X107101000Y-47201000D02*
G01*
X105299000Y-47201000D01*
X105299000Y-45399000D01*
X107101000Y-45399000D01*
X107101000Y-47201000D01*
G37*
G36*
X72548228Y-45431703D02*
G01*
X72703100Y-45495853D01*
X72842481Y-45588985D01*
X72961015Y-45707519D01*
X73054147Y-45846900D01*
X73118297Y-46001772D01*
X73151000Y-46166184D01*
X73151000Y-46333816D01*
X73118297Y-46498228D01*
X73054147Y-46653100D01*
X72961015Y-46792481D01*
X72842481Y-46911015D01*
X72703100Y-47004147D01*
X72548228Y-47068297D01*
X72383816Y-47101000D01*
X72216184Y-47101000D01*
X72051772Y-47068297D01*
X71896900Y-47004147D01*
X71757519Y-46911015D01*
X71638985Y-46792481D01*
X71545853Y-46653100D01*
X71481703Y-46498228D01*
X71449000Y-46333816D01*
X71449000Y-46166184D01*
X71481703Y-46001772D01*
X71545853Y-45846900D01*
X71638985Y-45707519D01*
X71757519Y-45588985D01*
X71896900Y-45495853D01*
X72051772Y-45431703D01*
X72216184Y-45399000D01*
X72383816Y-45399000D01*
X72548228Y-45431703D01*
G37*
G36*
X78848228Y-45431703D02*
G01*
X79003100Y-45495853D01*
X79142481Y-45588985D01*
X79261015Y-45707519D01*
X79354147Y-45846900D01*
X79418297Y-46001772D01*
X79451000Y-46166184D01*
X79451000Y-46333816D01*
X79418297Y-46498228D01*
X79354147Y-46653100D01*
X79261015Y-46792481D01*
X79142481Y-46911015D01*
X79003100Y-47004147D01*
X78848228Y-47068297D01*
X78683816Y-47101000D01*
X78516184Y-47101000D01*
X78351772Y-47068297D01*
X78196900Y-47004147D01*
X78057519Y-46911015D01*
X77938985Y-46792481D01*
X77845853Y-46653100D01*
X77781703Y-46498228D01*
X77749000Y-46333816D01*
X77749000Y-46166184D01*
X77781703Y-46001772D01*
X77845853Y-45846900D01*
X77938985Y-45707519D01*
X78057519Y-45588985D01*
X78196900Y-45495853D01*
X78351772Y-45431703D01*
X78516184Y-45399000D01*
X78683816Y-45399000D01*
X78848228Y-45431703D01*
G37*
G36*
X94498228Y-45331703D02*
G01*
X94653100Y-45395853D01*
X94792481Y-45488985D01*
X94911015Y-45607519D01*
X95004147Y-45746900D01*
X95068297Y-45901772D01*
X95101000Y-46066184D01*
X95101000Y-46233816D01*
X95068297Y-46398228D01*
X95004147Y-46553100D01*
X94911015Y-46692481D01*
X94792481Y-46811015D01*
X94653100Y-46904147D01*
X94498228Y-46968297D01*
X94333816Y-47001000D01*
X94166184Y-47001000D01*
X94001772Y-46968297D01*
X93846900Y-46904147D01*
X93707519Y-46811015D01*
X93588985Y-46692481D01*
X93495853Y-46553100D01*
X93431703Y-46398228D01*
X93399000Y-46233816D01*
X93399000Y-46066184D01*
X93431703Y-45901772D01*
X93495853Y-45746900D01*
X93588985Y-45607519D01*
X93707519Y-45488985D01*
X93846900Y-45395853D01*
X94001772Y-45331703D01*
X94166184Y-45299000D01*
X94333816Y-45299000D01*
X94498228Y-45331703D01*
G37*
G36*
X45975562Y-45228181D02*
G01*
X46010481Y-45238774D01*
X46042663Y-45255976D01*
X46070873Y-45279127D01*
X46094024Y-45307337D01*
X46111226Y-45339519D01*
X46121819Y-45374438D01*
X46126000Y-45416895D01*
X46126000Y-46558105D01*
X46121819Y-46600562D01*
X46111226Y-46635481D01*
X46094024Y-46667663D01*
X46070873Y-46695873D01*
X46042663Y-46719024D01*
X46010481Y-46736226D01*
X45975562Y-46746819D01*
X45933105Y-46751000D01*
X44466895Y-46751000D01*
X44424438Y-46746819D01*
X44389519Y-46736226D01*
X44357337Y-46719024D01*
X44329127Y-46695873D01*
X44305976Y-46667663D01*
X44288774Y-46635481D01*
X44278181Y-46600562D01*
X44274000Y-46558105D01*
X44274000Y-45416895D01*
X44278181Y-45374438D01*
X44288774Y-45339519D01*
X44305976Y-45307337D01*
X44329127Y-45279127D01*
X44357337Y-45255976D01*
X44389519Y-45238774D01*
X44424438Y-45228181D01*
X44466895Y-45224000D01*
X45933105Y-45224000D01*
X45975562Y-45228181D01*
G37*
G36*
X59700562Y-44828181D02*
G01*
X59735481Y-44838774D01*
X59767663Y-44855976D01*
X59795873Y-44879127D01*
X59819024Y-44907337D01*
X59836226Y-44939519D01*
X59846819Y-44974438D01*
X59851000Y-45016895D01*
X59851000Y-46483105D01*
X59846819Y-46525562D01*
X59836226Y-46560481D01*
X59819024Y-46592663D01*
X59795873Y-46620873D01*
X59767663Y-46644024D01*
X59735481Y-46661226D01*
X59700562Y-46671819D01*
X59658105Y-46676000D01*
X58516895Y-46676000D01*
X58474438Y-46671819D01*
X58439519Y-46661226D01*
X58407337Y-46644024D01*
X58379127Y-46620873D01*
X58355976Y-46592663D01*
X58338774Y-46560481D01*
X58328181Y-46525562D01*
X58324000Y-46483105D01*
X58324000Y-45016895D01*
X58328181Y-44974438D01*
X58338774Y-44939519D01*
X58355976Y-44907337D01*
X58379127Y-44879127D01*
X58407337Y-44855976D01*
X58439519Y-44838774D01*
X58474438Y-44828181D01*
X58516895Y-44824000D01*
X59658105Y-44824000D01*
X59700562Y-44828181D01*
G37*
G36*
X56725562Y-44828181D02*
G01*
X56760481Y-44838774D01*
X56792663Y-44855976D01*
X56820873Y-44879127D01*
X56844024Y-44907337D01*
X56861226Y-44939519D01*
X56871819Y-44974438D01*
X56876000Y-45016895D01*
X56876000Y-46483105D01*
X56871819Y-46525562D01*
X56861226Y-46560481D01*
X56844024Y-46592663D01*
X56820873Y-46620873D01*
X56792663Y-46644024D01*
X56760481Y-46661226D01*
X56725562Y-46671819D01*
X56683105Y-46676000D01*
X55541895Y-46676000D01*
X55499438Y-46671819D01*
X55464519Y-46661226D01*
X55432337Y-46644024D01*
X55404127Y-46620873D01*
X55380976Y-46592663D01*
X55363774Y-46560481D01*
X55353181Y-46525562D01*
X55349000Y-46483105D01*
X55349000Y-45016895D01*
X55353181Y-44974438D01*
X55363774Y-44939519D01*
X55380976Y-44907337D01*
X55404127Y-44879127D01*
X55432337Y-44855976D01*
X55464519Y-44838774D01*
X55499438Y-44828181D01*
X55541895Y-44824000D01*
X56683105Y-44824000D01*
X56725562Y-44828181D01*
G37*
G36*
X100825562Y-44865681D02*
G01*
X100860481Y-44876274D01*
X100892663Y-44893476D01*
X100920873Y-44916627D01*
X100944024Y-44944837D01*
X100961226Y-44977019D01*
X100971819Y-45011938D01*
X100976000Y-45054395D01*
X100976000Y-46195605D01*
X100971819Y-46238062D01*
X100961226Y-46272981D01*
X100944024Y-46305163D01*
X100920873Y-46333373D01*
X100892663Y-46356524D01*
X100860481Y-46373726D01*
X100825562Y-46384319D01*
X100783105Y-46388500D01*
X99316895Y-46388500D01*
X99274438Y-46384319D01*
X99239519Y-46373726D01*
X99207337Y-46356524D01*
X99179127Y-46333373D01*
X99155976Y-46305163D01*
X99138774Y-46272981D01*
X99128181Y-46238062D01*
X99124000Y-46195605D01*
X99124000Y-45054395D01*
X99128181Y-45011938D01*
X99138774Y-44977019D01*
X99155976Y-44944837D01*
X99179127Y-44916627D01*
X99207337Y-44893476D01*
X99239519Y-44876274D01*
X99274438Y-44865681D01*
X99316895Y-44861500D01*
X100783105Y-44861500D01*
X100825562Y-44865681D01*
G37*
G36*
X103275562Y-44840681D02*
G01*
X103310481Y-44851274D01*
X103342663Y-44868476D01*
X103370873Y-44891627D01*
X103394024Y-44919837D01*
X103411226Y-44952019D01*
X103421819Y-44986938D01*
X103426000Y-45029395D01*
X103426000Y-46170605D01*
X103421819Y-46213062D01*
X103411226Y-46247981D01*
X103394024Y-46280163D01*
X103370873Y-46308373D01*
X103342663Y-46331524D01*
X103310481Y-46348726D01*
X103275562Y-46359319D01*
X103233105Y-46363500D01*
X101766895Y-46363500D01*
X101724438Y-46359319D01*
X101689519Y-46348726D01*
X101657337Y-46331524D01*
X101629127Y-46308373D01*
X101605976Y-46280163D01*
X101588774Y-46247981D01*
X101578181Y-46213062D01*
X101574000Y-46170605D01*
X101574000Y-45029395D01*
X101578181Y-44986938D01*
X101588774Y-44952019D01*
X101605976Y-44919837D01*
X101629127Y-44891627D01*
X101657337Y-44868476D01*
X101689519Y-44851274D01*
X101724438Y-44840681D01*
X101766895Y-44836500D01*
X103233105Y-44836500D01*
X103275562Y-44840681D01*
G37*
G36*
X79451000Y-45101000D02*
G01*
X77749000Y-45101000D01*
X77749000Y-43399000D01*
X79451000Y-43399000D01*
X79451000Y-45101000D01*
G37*
G36*
X68175562Y-43553181D02*
G01*
X68210481Y-43563774D01*
X68242663Y-43580976D01*
X68270873Y-43604127D01*
X68294024Y-43632337D01*
X68311226Y-43664519D01*
X68321819Y-43699438D01*
X68326000Y-43741895D01*
X68326000Y-44883105D01*
X68321819Y-44925562D01*
X68311226Y-44960481D01*
X68294024Y-44992663D01*
X68270873Y-45020873D01*
X68242663Y-45044024D01*
X68210481Y-45061226D01*
X68175562Y-45071819D01*
X68133105Y-45076000D01*
X66666895Y-45076000D01*
X66624438Y-45071819D01*
X66589519Y-45061226D01*
X66557337Y-45044024D01*
X66529127Y-45020873D01*
X66505976Y-44992663D01*
X66488774Y-44960481D01*
X66478181Y-44925562D01*
X66474000Y-44883105D01*
X66474000Y-43741895D01*
X66478181Y-43699438D01*
X66488774Y-43664519D01*
X66505976Y-43632337D01*
X66529127Y-43604127D01*
X66557337Y-43580976D01*
X66589519Y-43563774D01*
X66624438Y-43553181D01*
X66666895Y-43549000D01*
X68133105Y-43549000D01*
X68175562Y-43553181D01*
G37*
G36*
X86425562Y-42878181D02*
G01*
X86460481Y-42888774D01*
X86492663Y-42905976D01*
X86520873Y-42929127D01*
X86544024Y-42957337D01*
X86561226Y-42989519D01*
X86571819Y-43024438D01*
X86576000Y-43066895D01*
X86576000Y-44533105D01*
X86571819Y-44575562D01*
X86561226Y-44610481D01*
X86544024Y-44642663D01*
X86520873Y-44670873D01*
X86492663Y-44694024D01*
X86460481Y-44711226D01*
X86425562Y-44721819D01*
X86383105Y-44726000D01*
X85241895Y-44726000D01*
X85199438Y-44721819D01*
X85164519Y-44711226D01*
X85132337Y-44694024D01*
X85104127Y-44670873D01*
X85080976Y-44642663D01*
X85063774Y-44610481D01*
X85053181Y-44575562D01*
X85049000Y-44533105D01*
X85049000Y-43066895D01*
X85053181Y-43024438D01*
X85063774Y-42989519D01*
X85080976Y-42957337D01*
X85104127Y-42929127D01*
X85132337Y-42905976D01*
X85164519Y-42888774D01*
X85199438Y-42878181D01*
X85241895Y-42874000D01*
X86383105Y-42874000D01*
X86425562Y-42878181D01*
G37*
G36*
X89400562Y-42878181D02*
G01*
X89435481Y-42888774D01*
X89467663Y-42905976D01*
X89495873Y-42929127D01*
X89519024Y-42957337D01*
X89536226Y-42989519D01*
X89546819Y-43024438D01*
X89551000Y-43066895D01*
X89551000Y-44533105D01*
X89546819Y-44575562D01*
X89536226Y-44610481D01*
X89519024Y-44642663D01*
X89495873Y-44670873D01*
X89467663Y-44694024D01*
X89435481Y-44711226D01*
X89400562Y-44721819D01*
X89358105Y-44726000D01*
X88216895Y-44726000D01*
X88174438Y-44721819D01*
X88139519Y-44711226D01*
X88107337Y-44694024D01*
X88079127Y-44670873D01*
X88055976Y-44642663D01*
X88038774Y-44610481D01*
X88028181Y-44575562D01*
X88024000Y-44533105D01*
X88024000Y-43066895D01*
X88028181Y-43024438D01*
X88038774Y-42989519D01*
X88055976Y-42957337D01*
X88079127Y-42929127D01*
X88107337Y-42905976D01*
X88139519Y-42888774D01*
X88174438Y-42878181D01*
X88216895Y-42874000D01*
X89358105Y-42874000D01*
X89400562Y-42878181D01*
G37*
G36*
X106313512Y-42863927D02*
G01*
X106462812Y-42893624D01*
X106626784Y-42961544D01*
X106774354Y-43060147D01*
X106899853Y-43185646D01*
X106998456Y-43333216D01*
X107066376Y-43497188D01*
X107092289Y-43627465D01*
X107099660Y-43664519D01*
X107101000Y-43671259D01*
X107101000Y-43848741D01*
X107066376Y-44022812D01*
X106998456Y-44186784D01*
X106899853Y-44334354D01*
X106774354Y-44459853D01*
X106626784Y-44558456D01*
X106462812Y-44626376D01*
X106313512Y-44656073D01*
X106288742Y-44661000D01*
X106111258Y-44661000D01*
X106086488Y-44656073D01*
X105937188Y-44626376D01*
X105773216Y-44558456D01*
X105625646Y-44459853D01*
X105500147Y-44334354D01*
X105401544Y-44186784D01*
X105333624Y-44022812D01*
X105299000Y-43848741D01*
X105299000Y-43671259D01*
X105300341Y-43664519D01*
X105307711Y-43627465D01*
X105333624Y-43497188D01*
X105401544Y-43333216D01*
X105500147Y-43185646D01*
X105625646Y-43060147D01*
X105773216Y-42961544D01*
X105937188Y-42893624D01*
X106086488Y-42863927D01*
X106111258Y-42859000D01*
X106288742Y-42859000D01*
X106313512Y-42863927D01*
G37*
G36*
X73151000Y-44601000D02*
G01*
X71449000Y-44601000D01*
X71449000Y-42899000D01*
X73151000Y-42899000D01*
X73151000Y-44601000D01*
G37*
G36*
X84375562Y-43028181D02*
G01*
X84410481Y-43038774D01*
X84442663Y-43055976D01*
X84470873Y-43079127D01*
X84494024Y-43107337D01*
X84511226Y-43139519D01*
X84521819Y-43174438D01*
X84526000Y-43216895D01*
X84526000Y-44358105D01*
X84521819Y-44400562D01*
X84511226Y-44435481D01*
X84494024Y-44467663D01*
X84470873Y-44495873D01*
X84442663Y-44519024D01*
X84410481Y-44536226D01*
X84375562Y-44546819D01*
X84333105Y-44551000D01*
X82866895Y-44551000D01*
X82824438Y-44546819D01*
X82789519Y-44536226D01*
X82757337Y-44519024D01*
X82729127Y-44495873D01*
X82705976Y-44467663D01*
X82688774Y-44435481D01*
X82678181Y-44400562D01*
X82674000Y-44358105D01*
X82674000Y-43216895D01*
X82678181Y-43174438D01*
X82688774Y-43139519D01*
X82705976Y-43107337D01*
X82729127Y-43079127D01*
X82757337Y-43055976D01*
X82789519Y-43038774D01*
X82824438Y-43028181D01*
X82866895Y-43024000D01*
X84333105Y-43024000D01*
X84375562Y-43028181D01*
G37*
G36*
X53575562Y-42278181D02*
G01*
X53610481Y-42288774D01*
X53642663Y-42305976D01*
X53670873Y-42329127D01*
X53694024Y-42357337D01*
X53711226Y-42389519D01*
X53721819Y-42424438D01*
X53726000Y-42466895D01*
X53726000Y-43608105D01*
X53721819Y-43650562D01*
X53711226Y-43685481D01*
X53694024Y-43717663D01*
X53670873Y-43745873D01*
X53642663Y-43769024D01*
X53610481Y-43786226D01*
X53575562Y-43796819D01*
X53533105Y-43801000D01*
X52066895Y-43801000D01*
X52024438Y-43796819D01*
X51989519Y-43786226D01*
X51957337Y-43769024D01*
X51929127Y-43745873D01*
X51905976Y-43717663D01*
X51888774Y-43685481D01*
X51878181Y-43650562D01*
X51874000Y-43608105D01*
X51874000Y-42466895D01*
X51878181Y-42424438D01*
X51888774Y-42389519D01*
X51905976Y-42357337D01*
X51929127Y-42329127D01*
X51957337Y-42305976D01*
X51989519Y-42288774D01*
X52024438Y-42278181D01*
X52066895Y-42274000D01*
X53533105Y-42274000D01*
X53575562Y-42278181D01*
G37*
G36*
X48475562Y-42265681D02*
G01*
X48510481Y-42276274D01*
X48542663Y-42293476D01*
X48570873Y-42316627D01*
X48594024Y-42344837D01*
X48611226Y-42377019D01*
X48621819Y-42411938D01*
X48626000Y-42454395D01*
X48626000Y-43595605D01*
X48621819Y-43638062D01*
X48611226Y-43672981D01*
X48594024Y-43705163D01*
X48570873Y-43733373D01*
X48542663Y-43756524D01*
X48510481Y-43773726D01*
X48475562Y-43784319D01*
X48433105Y-43788500D01*
X46966895Y-43788500D01*
X46924438Y-43784319D01*
X46889519Y-43773726D01*
X46857337Y-43756524D01*
X46829127Y-43733373D01*
X46805976Y-43705163D01*
X46788774Y-43672981D01*
X46778181Y-43638062D01*
X46774000Y-43595605D01*
X46774000Y-42454395D01*
X46778181Y-42411938D01*
X46788774Y-42377019D01*
X46805976Y-42344837D01*
X46829127Y-42316627D01*
X46857337Y-42293476D01*
X46889519Y-42276274D01*
X46924438Y-42265681D01*
X46966895Y-42261500D01*
X48433105Y-42261500D01*
X48475562Y-42265681D01*
G37*
G36*
X50975562Y-42265681D02*
G01*
X51010481Y-42276274D01*
X51042663Y-42293476D01*
X51070873Y-42316627D01*
X51094024Y-42344837D01*
X51111226Y-42377019D01*
X51121819Y-42411938D01*
X51126000Y-42454395D01*
X51126000Y-43595605D01*
X51121819Y-43638062D01*
X51111226Y-43672981D01*
X51094024Y-43705163D01*
X51070873Y-43733373D01*
X51042663Y-43756524D01*
X51010481Y-43773726D01*
X50975562Y-43784319D01*
X50933105Y-43788500D01*
X49466895Y-43788500D01*
X49424438Y-43784319D01*
X49389519Y-43773726D01*
X49357337Y-43756524D01*
X49329127Y-43733373D01*
X49305976Y-43705163D01*
X49288774Y-43672981D01*
X49278181Y-43638062D01*
X49274000Y-43595605D01*
X49274000Y-42454395D01*
X49278181Y-42411938D01*
X49288774Y-42377019D01*
X49305976Y-42344837D01*
X49329127Y-42316627D01*
X49357337Y-42293476D01*
X49389519Y-42276274D01*
X49424438Y-42265681D01*
X49466895Y-42261500D01*
X50933105Y-42261500D01*
X50975562Y-42265681D01*
G37*
G36*
X45975562Y-42253181D02*
G01*
X46010481Y-42263774D01*
X46042663Y-42280976D01*
X46070873Y-42304127D01*
X46094024Y-42332337D01*
X46111226Y-42364519D01*
X46121819Y-42399438D01*
X46126000Y-42441895D01*
X46126000Y-43583105D01*
X46121819Y-43625562D01*
X46111226Y-43660481D01*
X46094024Y-43692663D01*
X46070873Y-43720873D01*
X46042663Y-43744024D01*
X46010481Y-43761226D01*
X45975562Y-43771819D01*
X45933105Y-43776000D01*
X44466895Y-43776000D01*
X44424438Y-43771819D01*
X44389519Y-43761226D01*
X44357337Y-43744024D01*
X44329127Y-43720873D01*
X44305976Y-43692663D01*
X44288774Y-43660481D01*
X44278181Y-43625562D01*
X44274000Y-43583105D01*
X44274000Y-42441895D01*
X44278181Y-42399438D01*
X44288774Y-42364519D01*
X44305976Y-42332337D01*
X44329127Y-42304127D01*
X44357337Y-42280976D01*
X44389519Y-42263774D01*
X44424438Y-42253181D01*
X44466895Y-42249000D01*
X45933105Y-42249000D01*
X45975562Y-42253181D01*
G37*
G36*
X95101000Y-43501000D02*
G01*
X93399000Y-43501000D01*
X93399000Y-41799000D01*
X95101000Y-41799000D01*
X95101000Y-43501000D01*
G37*
G36*
X100825562Y-41890681D02*
G01*
X100860481Y-41901274D01*
X100892663Y-41918476D01*
X100920873Y-41941627D01*
X100944024Y-41969837D01*
X100961226Y-42002019D01*
X100971819Y-42036938D01*
X100976000Y-42079395D01*
X100976000Y-43220605D01*
X100971819Y-43263062D01*
X100961226Y-43297981D01*
X100944024Y-43330163D01*
X100920873Y-43358373D01*
X100892663Y-43381524D01*
X100860481Y-43398726D01*
X100825562Y-43409319D01*
X100783105Y-43413500D01*
X99316895Y-43413500D01*
X99274438Y-43409319D01*
X99239519Y-43398726D01*
X99207337Y-43381524D01*
X99179127Y-43358373D01*
X99155976Y-43330163D01*
X99138774Y-43297981D01*
X99128181Y-43263062D01*
X99124000Y-43220605D01*
X99124000Y-42079395D01*
X99128181Y-42036938D01*
X99138774Y-42002019D01*
X99155976Y-41969837D01*
X99179127Y-41941627D01*
X99207337Y-41918476D01*
X99239519Y-41901274D01*
X99274438Y-41890681D01*
X99316895Y-41886500D01*
X100783105Y-41886500D01*
X100825562Y-41890681D01*
G37*
G36*
X103275562Y-41865681D02*
G01*
X103310481Y-41876274D01*
X103342663Y-41893476D01*
X103370873Y-41916627D01*
X103394024Y-41944837D01*
X103411226Y-41977019D01*
X103421819Y-42011938D01*
X103426000Y-42054395D01*
X103426000Y-43195605D01*
X103421819Y-43238062D01*
X103411226Y-43272981D01*
X103394024Y-43305163D01*
X103370873Y-43333373D01*
X103342663Y-43356524D01*
X103310481Y-43373726D01*
X103275562Y-43384319D01*
X103233105Y-43388500D01*
X101766895Y-43388500D01*
X101724438Y-43384319D01*
X101689519Y-43373726D01*
X101657337Y-43356524D01*
X101629127Y-43333373D01*
X101605976Y-43305163D01*
X101588774Y-43272981D01*
X101578181Y-43238062D01*
X101574000Y-43195605D01*
X101574000Y-42054395D01*
X101578181Y-42011938D01*
X101588774Y-41977019D01*
X101605976Y-41944837D01*
X101629127Y-41916627D01*
X101657337Y-41893476D01*
X101689519Y-41876274D01*
X101724438Y-41865681D01*
X101766895Y-41861500D01*
X103233105Y-41861500D01*
X103275562Y-41865681D01*
G37*
G36*
X59951000Y-42901000D02*
G01*
X58249000Y-42901000D01*
X58249000Y-41199000D01*
X59951000Y-41199000D01*
X59951000Y-42901000D01*
G37*
G36*
X66083642Y-41309781D02*
G01*
X66229414Y-41370162D01*
X66229416Y-41370163D01*
X66360608Y-41457822D01*
X66472178Y-41569392D01*
X66559837Y-41700584D01*
X66559838Y-41700586D01*
X66620219Y-41846358D01*
X66651000Y-42001107D01*
X66651000Y-42158893D01*
X66620219Y-42313642D01*
X66561917Y-42454395D01*
X66559837Y-42459416D01*
X66472178Y-42590608D01*
X66360608Y-42702178D01*
X66229416Y-42789837D01*
X66229415Y-42789838D01*
X66229414Y-42789838D01*
X66083642Y-42850219D01*
X65928893Y-42881000D01*
X65771107Y-42881000D01*
X65616358Y-42850219D01*
X65470586Y-42789838D01*
X65470585Y-42789838D01*
X65470584Y-42789837D01*
X65339392Y-42702178D01*
X65227822Y-42590608D01*
X65140163Y-42459416D01*
X65138083Y-42454395D01*
X65079781Y-42313642D01*
X65049000Y-42158893D01*
X65049000Y-42001107D01*
X65079781Y-41846358D01*
X65140162Y-41700586D01*
X65140163Y-41700584D01*
X65227822Y-41569392D01*
X65339392Y-41457822D01*
X65470584Y-41370163D01*
X65470586Y-41370162D01*
X65616358Y-41309781D01*
X65771107Y-41279000D01*
X65928893Y-41279000D01*
X66083642Y-41309781D01*
G37*
G36*
X112248228Y-40931703D02*
G01*
X112403100Y-40995853D01*
X112542481Y-41088985D01*
X112661015Y-41207519D01*
X112754147Y-41346900D01*
X112818297Y-41501772D01*
X112851000Y-41666184D01*
X112851000Y-41833816D01*
X112818297Y-41998228D01*
X112754147Y-42153100D01*
X112661015Y-42292481D01*
X112542481Y-42411015D01*
X112403100Y-42504147D01*
X112248228Y-42568297D01*
X112083816Y-42601000D01*
X111916184Y-42601000D01*
X111751772Y-42568297D01*
X111596900Y-42504147D01*
X111457519Y-42411015D01*
X111338985Y-42292481D01*
X111245853Y-42153100D01*
X111181703Y-41998228D01*
X111149000Y-41833816D01*
X111149000Y-41666184D01*
X111181703Y-41501772D01*
X111245853Y-41346900D01*
X111338985Y-41207519D01*
X111457519Y-41088985D01*
X111596900Y-40995853D01*
X111751772Y-40931703D01*
X111916184Y-40899000D01*
X112083816Y-40899000D01*
X112248228Y-40931703D01*
G37*
G36*
X78833642Y-40409781D02*
G01*
X78979414Y-40470162D01*
X78979416Y-40470163D01*
X79110608Y-40557822D01*
X79222178Y-40669392D01*
X79309744Y-40800445D01*
X79309838Y-40800586D01*
X79370219Y-40946358D01*
X79401000Y-41101107D01*
X79401000Y-41258893D01*
X79370219Y-41413642D01*
X79309838Y-41559414D01*
X79309837Y-41559416D01*
X79222178Y-41690608D01*
X79110608Y-41802178D01*
X78979416Y-41889837D01*
X78979415Y-41889838D01*
X78979414Y-41889838D01*
X78833642Y-41950219D01*
X78678893Y-41981000D01*
X78521107Y-41981000D01*
X78366358Y-41950219D01*
X78220586Y-41889838D01*
X78220585Y-41889838D01*
X78220584Y-41889837D01*
X78089392Y-41802178D01*
X77977822Y-41690608D01*
X77890163Y-41559416D01*
X77890162Y-41559414D01*
X77829781Y-41413642D01*
X77799000Y-41258893D01*
X77799000Y-41101107D01*
X77829781Y-40946358D01*
X77890162Y-40800586D01*
X77890256Y-40800445D01*
X77977822Y-40669392D01*
X78089392Y-40557822D01*
X78220584Y-40470163D01*
X78220586Y-40470162D01*
X78366358Y-40409781D01*
X78521107Y-40379000D01*
X78678893Y-40379000D01*
X78833642Y-40409781D01*
G37*
G36*
X89400562Y-39878181D02*
G01*
X89435481Y-39888774D01*
X89467663Y-39905976D01*
X89495873Y-39929127D01*
X89519024Y-39957337D01*
X89536226Y-39989519D01*
X89546819Y-40024438D01*
X89551000Y-40066895D01*
X89551000Y-41533105D01*
X89546819Y-41575562D01*
X89536226Y-41610481D01*
X89519024Y-41642663D01*
X89495873Y-41670873D01*
X89467663Y-41694024D01*
X89435481Y-41711226D01*
X89400562Y-41721819D01*
X89358105Y-41726000D01*
X88216895Y-41726000D01*
X88174438Y-41721819D01*
X88139519Y-41711226D01*
X88107337Y-41694024D01*
X88079127Y-41670873D01*
X88055976Y-41642663D01*
X88038774Y-41610481D01*
X88028181Y-41575562D01*
X88024000Y-41533105D01*
X88024000Y-40066895D01*
X88028181Y-40024438D01*
X88038774Y-39989519D01*
X88055976Y-39957337D01*
X88079127Y-39929127D01*
X88107337Y-39905976D01*
X88139519Y-39888774D01*
X88174438Y-39878181D01*
X88216895Y-39874000D01*
X89358105Y-39874000D01*
X89400562Y-39878181D01*
G37*
G36*
X86425562Y-39878181D02*
G01*
X86460481Y-39888774D01*
X86492663Y-39905976D01*
X86520873Y-39929127D01*
X86544024Y-39957337D01*
X86561226Y-39989519D01*
X86571819Y-40024438D01*
X86576000Y-40066895D01*
X86576000Y-41533105D01*
X86571819Y-41575562D01*
X86561226Y-41610481D01*
X86544024Y-41642663D01*
X86520873Y-41670873D01*
X86492663Y-41694024D01*
X86460481Y-41711226D01*
X86425562Y-41721819D01*
X86383105Y-41726000D01*
X85241895Y-41726000D01*
X85199438Y-41721819D01*
X85164519Y-41711226D01*
X85132337Y-41694024D01*
X85104127Y-41670873D01*
X85080976Y-41642663D01*
X85063774Y-41610481D01*
X85053181Y-41575562D01*
X85049000Y-41533105D01*
X85049000Y-40066895D01*
X85053181Y-40024438D01*
X85063774Y-39989519D01*
X85080976Y-39957337D01*
X85104127Y-39929127D01*
X85132337Y-39905976D01*
X85164519Y-39888774D01*
X85199438Y-39878181D01*
X85241895Y-39874000D01*
X86383105Y-39874000D01*
X86425562Y-39878181D01*
G37*
G36*
X84375562Y-40053181D02*
G01*
X84410481Y-40063774D01*
X84442663Y-40080976D01*
X84470873Y-40104127D01*
X84494024Y-40132337D01*
X84511226Y-40164519D01*
X84521819Y-40199438D01*
X84526000Y-40241895D01*
X84526000Y-41383105D01*
X84521819Y-41425562D01*
X84511226Y-41460481D01*
X84494024Y-41492663D01*
X84470873Y-41520873D01*
X84442663Y-41544024D01*
X84410481Y-41561226D01*
X84375562Y-41571819D01*
X84333105Y-41576000D01*
X82866895Y-41576000D01*
X82824438Y-41571819D01*
X82789519Y-41561226D01*
X82757337Y-41544024D01*
X82729127Y-41520873D01*
X82705976Y-41492663D01*
X82688774Y-41460481D01*
X82678181Y-41425562D01*
X82674000Y-41383105D01*
X82674000Y-40241895D01*
X82678181Y-40199438D01*
X82688774Y-40164519D01*
X82705976Y-40132337D01*
X82729127Y-40104127D01*
X82757337Y-40080976D01*
X82789519Y-40063774D01*
X82824438Y-40053181D01*
X82866895Y-40049000D01*
X84333105Y-40049000D01*
X84375562Y-40053181D01*
G37*
G36*
X102604928Y-39001764D02*
G01*
X102626009Y-39008160D01*
X102645445Y-39018548D01*
X102662476Y-39032524D01*
X102676452Y-39049555D01*
X102686840Y-39068991D01*
X102693236Y-39090072D01*
X102696000Y-39118140D01*
X102696000Y-40731860D01*
X102693236Y-40759928D01*
X102686840Y-40781009D01*
X102676452Y-40800445D01*
X102662476Y-40817476D01*
X102645445Y-40831452D01*
X102626009Y-40841840D01*
X102604928Y-40848236D01*
X102576860Y-40851000D01*
X102113140Y-40851000D01*
X102085072Y-40848236D01*
X102063991Y-40841840D01*
X102044555Y-40831452D01*
X102027524Y-40817476D01*
X102013548Y-40800445D01*
X102003160Y-40781009D01*
X101996764Y-40759928D01*
X101994000Y-40731860D01*
X101994000Y-39118140D01*
X101996764Y-39090072D01*
X102003160Y-39068991D01*
X102013548Y-39049555D01*
X102027524Y-39032524D01*
X102044555Y-39018548D01*
X102063991Y-39008160D01*
X102085072Y-39001764D01*
X102113140Y-38999000D01*
X102576860Y-38999000D01*
X102604928Y-39001764D01*
G37*
G36*
X103874928Y-39001764D02*
G01*
X103896009Y-39008160D01*
X103915445Y-39018548D01*
X103932476Y-39032524D01*
X103946452Y-39049555D01*
X103956840Y-39068991D01*
X103963236Y-39090072D01*
X103966000Y-39118140D01*
X103966000Y-40731860D01*
X103963236Y-40759928D01*
X103956840Y-40781009D01*
X103946452Y-40800445D01*
X103932476Y-40817476D01*
X103915445Y-40831452D01*
X103896009Y-40841840D01*
X103874928Y-40848236D01*
X103846860Y-40851000D01*
X103383140Y-40851000D01*
X103355072Y-40848236D01*
X103333991Y-40841840D01*
X103314555Y-40831452D01*
X103297524Y-40817476D01*
X103283548Y-40800445D01*
X103273160Y-40781009D01*
X103266764Y-40759928D01*
X103264000Y-40731860D01*
X103264000Y-39118140D01*
X103266764Y-39090072D01*
X103273160Y-39068991D01*
X103283548Y-39049555D01*
X103297524Y-39032524D01*
X103314555Y-39018548D01*
X103333991Y-39008160D01*
X103355072Y-39001764D01*
X103383140Y-38999000D01*
X103846860Y-38999000D01*
X103874928Y-39001764D01*
G37*
G36*
X105144928Y-39001764D02*
G01*
X105166009Y-39008160D01*
X105185445Y-39018548D01*
X105202476Y-39032524D01*
X105216452Y-39049555D01*
X105226840Y-39068991D01*
X105233236Y-39090072D01*
X105236000Y-39118140D01*
X105236000Y-40731860D01*
X105233236Y-40759928D01*
X105226840Y-40781009D01*
X105216452Y-40800445D01*
X105202476Y-40817476D01*
X105185445Y-40831452D01*
X105166009Y-40841840D01*
X105144928Y-40848236D01*
X105116860Y-40851000D01*
X104653140Y-40851000D01*
X104625072Y-40848236D01*
X104603991Y-40841840D01*
X104584555Y-40831452D01*
X104567524Y-40817476D01*
X104553548Y-40800445D01*
X104543160Y-40781009D01*
X104536764Y-40759928D01*
X104534000Y-40731860D01*
X104534000Y-39118140D01*
X104536764Y-39090072D01*
X104543160Y-39068991D01*
X104553548Y-39049555D01*
X104567524Y-39032524D01*
X104584555Y-39018548D01*
X104603991Y-39008160D01*
X104625072Y-39001764D01*
X104653140Y-38999000D01*
X105116860Y-38999000D01*
X105144928Y-39001764D01*
G37*
G36*
X106414928Y-39001764D02*
G01*
X106436009Y-39008160D01*
X106455445Y-39018548D01*
X106472476Y-39032524D01*
X106486452Y-39049555D01*
X106496840Y-39068991D01*
X106503236Y-39090072D01*
X106506000Y-39118140D01*
X106506000Y-40731860D01*
X106503236Y-40759928D01*
X106496840Y-40781009D01*
X106486452Y-40800445D01*
X106472476Y-40817476D01*
X106455445Y-40831452D01*
X106436009Y-40841840D01*
X106414928Y-40848236D01*
X106386860Y-40851000D01*
X105923140Y-40851000D01*
X105895072Y-40848236D01*
X105873991Y-40841840D01*
X105854555Y-40831452D01*
X105837524Y-40817476D01*
X105823548Y-40800445D01*
X105813160Y-40781009D01*
X105806764Y-40759928D01*
X105804000Y-40731860D01*
X105804000Y-39118140D01*
X105806764Y-39090072D01*
X105813160Y-39068991D01*
X105823548Y-39049555D01*
X105837524Y-39032524D01*
X105854555Y-39018548D01*
X105873991Y-39008160D01*
X105895072Y-39001764D01*
X105923140Y-38999000D01*
X106386860Y-38999000D01*
X106414928Y-39001764D01*
G37*
G36*
X53575562Y-39303181D02*
G01*
X53610481Y-39313774D01*
X53642663Y-39330976D01*
X53670873Y-39354127D01*
X53694024Y-39382337D01*
X53711226Y-39414519D01*
X53721819Y-39449438D01*
X53726000Y-39491895D01*
X53726000Y-40633105D01*
X53721819Y-40675562D01*
X53711226Y-40710481D01*
X53694024Y-40742663D01*
X53670873Y-40770873D01*
X53642663Y-40794024D01*
X53610481Y-40811226D01*
X53575562Y-40821819D01*
X53533105Y-40826000D01*
X52066895Y-40826000D01*
X52024438Y-40821819D01*
X51989519Y-40811226D01*
X51957337Y-40794024D01*
X51929127Y-40770873D01*
X51905976Y-40742663D01*
X51888774Y-40710481D01*
X51878181Y-40675562D01*
X51874000Y-40633105D01*
X51874000Y-39491895D01*
X51878181Y-39449438D01*
X51888774Y-39414519D01*
X51905976Y-39382337D01*
X51929127Y-39354127D01*
X51957337Y-39330976D01*
X51989519Y-39313774D01*
X52024438Y-39303181D01*
X52066895Y-39299000D01*
X53533105Y-39299000D01*
X53575562Y-39303181D01*
G37*
G36*
X50975562Y-39290681D02*
G01*
X51010481Y-39301274D01*
X51042663Y-39318476D01*
X51070873Y-39341627D01*
X51094024Y-39369837D01*
X51111226Y-39402019D01*
X51121819Y-39436938D01*
X51126000Y-39479395D01*
X51126000Y-40620605D01*
X51121819Y-40663062D01*
X51111226Y-40697981D01*
X51094024Y-40730163D01*
X51070873Y-40758373D01*
X51042663Y-40781524D01*
X51010481Y-40798726D01*
X50975562Y-40809319D01*
X50933105Y-40813500D01*
X49466895Y-40813500D01*
X49424438Y-40809319D01*
X49389519Y-40798726D01*
X49357337Y-40781524D01*
X49329127Y-40758373D01*
X49305976Y-40730163D01*
X49288774Y-40697981D01*
X49278181Y-40663062D01*
X49274000Y-40620605D01*
X49274000Y-39479395D01*
X49278181Y-39436938D01*
X49288774Y-39402019D01*
X49305976Y-39369837D01*
X49329127Y-39341627D01*
X49357337Y-39318476D01*
X49389519Y-39301274D01*
X49424438Y-39290681D01*
X49466895Y-39286500D01*
X50933105Y-39286500D01*
X50975562Y-39290681D01*
G37*
G36*
X48475562Y-39290681D02*
G01*
X48510481Y-39301274D01*
X48542663Y-39318476D01*
X48570873Y-39341627D01*
X48594024Y-39369837D01*
X48611226Y-39402019D01*
X48621819Y-39436938D01*
X48626000Y-39479395D01*
X48626000Y-40620605D01*
X48621819Y-40663062D01*
X48611226Y-40697981D01*
X48594024Y-40730163D01*
X48570873Y-40758373D01*
X48542663Y-40781524D01*
X48510481Y-40798726D01*
X48475562Y-40809319D01*
X48433105Y-40813500D01*
X46966895Y-40813500D01*
X46924438Y-40809319D01*
X46889519Y-40798726D01*
X46857337Y-40781524D01*
X46829127Y-40758373D01*
X46805976Y-40730163D01*
X46788774Y-40697981D01*
X46778181Y-40663062D01*
X46774000Y-40620605D01*
X46774000Y-39479395D01*
X46778181Y-39436938D01*
X46788774Y-39402019D01*
X46805976Y-39369837D01*
X46829127Y-39341627D01*
X46857337Y-39318476D01*
X46889519Y-39301274D01*
X46924438Y-39290681D01*
X46966895Y-39286500D01*
X48433105Y-39286500D01*
X48475562Y-39290681D01*
G37*
G36*
X73075562Y-39228181D02*
G01*
X73110481Y-39238774D01*
X73142663Y-39255976D01*
X73170873Y-39279127D01*
X73194024Y-39307337D01*
X73211226Y-39339519D01*
X73221819Y-39374438D01*
X73226000Y-39416895D01*
X73226000Y-40558105D01*
X73221819Y-40600562D01*
X73211226Y-40635481D01*
X73194024Y-40667663D01*
X73170873Y-40695873D01*
X73142663Y-40719024D01*
X73110481Y-40736226D01*
X73075562Y-40746819D01*
X73033105Y-40751000D01*
X71566895Y-40751000D01*
X71524438Y-40746819D01*
X71489519Y-40736226D01*
X71457337Y-40719024D01*
X71429127Y-40695873D01*
X71405976Y-40667663D01*
X71388774Y-40635481D01*
X71378181Y-40600562D01*
X71374000Y-40558105D01*
X71374000Y-39416895D01*
X71378181Y-39374438D01*
X71388774Y-39339519D01*
X71405976Y-39307337D01*
X71429127Y-39279127D01*
X71457337Y-39255976D01*
X71489519Y-39238774D01*
X71524438Y-39228181D01*
X71566895Y-39224000D01*
X73033105Y-39224000D01*
X73075562Y-39228181D01*
G37*
G36*
X59348228Y-38731703D02*
G01*
X59503100Y-38795853D01*
X59642481Y-38888985D01*
X59761015Y-39007519D01*
X59854147Y-39146900D01*
X59918297Y-39301772D01*
X59951000Y-39466184D01*
X59951000Y-39633816D01*
X59918297Y-39798228D01*
X59854147Y-39953100D01*
X59761015Y-40092481D01*
X59642481Y-40211015D01*
X59503100Y-40304147D01*
X59348228Y-40368297D01*
X59183816Y-40401000D01*
X59016184Y-40401000D01*
X58851772Y-40368297D01*
X58696900Y-40304147D01*
X58557519Y-40211015D01*
X58438985Y-40092481D01*
X58345853Y-39953100D01*
X58281703Y-39798228D01*
X58249000Y-39633816D01*
X58249000Y-39466184D01*
X58281703Y-39301772D01*
X58345853Y-39146900D01*
X58438985Y-39007519D01*
X58557519Y-38888985D01*
X58696900Y-38795853D01*
X58851772Y-38731703D01*
X59016184Y-38699000D01*
X59183816Y-38699000D01*
X59348228Y-38731703D01*
G37*
G36*
X66083642Y-38769781D02*
G01*
X66229414Y-38830162D01*
X66229416Y-38830163D01*
X66360608Y-38917822D01*
X66472178Y-39029392D01*
X66553171Y-39150608D01*
X66559838Y-39160586D01*
X66620219Y-39306358D01*
X66651000Y-39461107D01*
X66651000Y-39618893D01*
X66620219Y-39773642D01*
X66570202Y-39894392D01*
X66559837Y-39919416D01*
X66472178Y-40050608D01*
X66360608Y-40162178D01*
X66229416Y-40249837D01*
X66229415Y-40249838D01*
X66229414Y-40249838D01*
X66083642Y-40310219D01*
X65928893Y-40341000D01*
X65771107Y-40341000D01*
X65616358Y-40310219D01*
X65470586Y-40249838D01*
X65470585Y-40249838D01*
X65470584Y-40249837D01*
X65339392Y-40162178D01*
X65227822Y-40050608D01*
X65140163Y-39919416D01*
X65129798Y-39894392D01*
X65079781Y-39773642D01*
X65049000Y-39618893D01*
X65049000Y-39461107D01*
X65079781Y-39306358D01*
X65140162Y-39160586D01*
X65146829Y-39150608D01*
X65227822Y-39029392D01*
X65339392Y-38917822D01*
X65470584Y-38830163D01*
X65470586Y-38830162D01*
X65616358Y-38769781D01*
X65771107Y-38739000D01*
X65928893Y-38739000D01*
X66083642Y-38769781D01*
G37*
G36*
X78833642Y-37869781D02*
G01*
X78976915Y-37929127D01*
X78979416Y-37930163D01*
X79110608Y-38017822D01*
X79222178Y-38129392D01*
X79309837Y-38260584D01*
X79309838Y-38260586D01*
X79370219Y-38406358D01*
X79401000Y-38561107D01*
X79401000Y-38718893D01*
X79370219Y-38873642D01*
X79312760Y-39012359D01*
X79309837Y-39019416D01*
X79222178Y-39150608D01*
X79110608Y-39262178D01*
X78979416Y-39349837D01*
X78979415Y-39349838D01*
X78979414Y-39349838D01*
X78833642Y-39410219D01*
X78678893Y-39441000D01*
X78521107Y-39441000D01*
X78366358Y-39410219D01*
X78220586Y-39349838D01*
X78220585Y-39349838D01*
X78220584Y-39349837D01*
X78089392Y-39262178D01*
X77977822Y-39150608D01*
X77890163Y-39019416D01*
X77887240Y-39012359D01*
X77829781Y-38873642D01*
X77799000Y-38718893D01*
X77799000Y-38561107D01*
X77829781Y-38406358D01*
X77890162Y-38260586D01*
X77890163Y-38260584D01*
X77977822Y-38129392D01*
X78089392Y-38017822D01*
X78220584Y-37930163D01*
X78223085Y-37929127D01*
X78366358Y-37869781D01*
X78521107Y-37839000D01*
X78678893Y-37839000D01*
X78833642Y-37869781D01*
G37*
G36*
X84375562Y-37878181D02*
G01*
X84410481Y-37888774D01*
X84442663Y-37905976D01*
X84470873Y-37929127D01*
X84494024Y-37957337D01*
X84511226Y-37989519D01*
X84521819Y-38024438D01*
X84526000Y-38066895D01*
X84526000Y-39208105D01*
X84521819Y-39250562D01*
X84511226Y-39285481D01*
X84494024Y-39317663D01*
X84470873Y-39345873D01*
X84442663Y-39369024D01*
X84410481Y-39386226D01*
X84375562Y-39396819D01*
X84333105Y-39401000D01*
X82866895Y-39401000D01*
X82824438Y-39396819D01*
X82789519Y-39386226D01*
X82757337Y-39369024D01*
X82729127Y-39345873D01*
X82705976Y-39317663D01*
X82688774Y-39285481D01*
X82678181Y-39250562D01*
X82674000Y-39208105D01*
X82674000Y-38066895D01*
X82678181Y-38024438D01*
X82688774Y-37989519D01*
X82705976Y-37957337D01*
X82729127Y-37929127D01*
X82757337Y-37905976D01*
X82789519Y-37888774D01*
X82824438Y-37878181D01*
X82866895Y-37874000D01*
X84333105Y-37874000D01*
X84375562Y-37878181D01*
G37*
G36*
X112851000Y-39101000D02*
G01*
X111149000Y-39101000D01*
X111149000Y-37399000D01*
X112851000Y-37399000D01*
X112851000Y-39101000D01*
G37*
G36*
X100251000Y-38351000D02*
G01*
X98549000Y-38351000D01*
X98549000Y-36649000D01*
X100251000Y-36649000D01*
X100251000Y-38351000D01*
G37*
G36*
X97648228Y-36681703D02*
G01*
X97803100Y-36745853D01*
X97942481Y-36838985D01*
X98061015Y-36957519D01*
X98154147Y-37096900D01*
X98218297Y-37251772D01*
X98251000Y-37416184D01*
X98251000Y-37583816D01*
X98218297Y-37748228D01*
X98154147Y-37903100D01*
X98061015Y-38042481D01*
X97942481Y-38161015D01*
X97803100Y-38254147D01*
X97648228Y-38318297D01*
X97483816Y-38351000D01*
X97316184Y-38351000D01*
X97151772Y-38318297D01*
X96996900Y-38254147D01*
X96857519Y-38161015D01*
X96738985Y-38042481D01*
X96645853Y-37903100D01*
X96581703Y-37748228D01*
X96549000Y-37583816D01*
X96549000Y-37416184D01*
X96581703Y-37251772D01*
X96645853Y-37096900D01*
X96738985Y-36957519D01*
X96857519Y-36838985D01*
X96996900Y-36745853D01*
X97151772Y-36681703D01*
X97316184Y-36649000D01*
X97483816Y-36649000D01*
X97648228Y-36681703D01*
G37*
G36*
X66651000Y-37801000D02*
G01*
X65049000Y-37801000D01*
X65049000Y-36199000D01*
X66651000Y-36199000D01*
X66651000Y-37801000D01*
G37*
G36*
X73075562Y-36253181D02*
G01*
X73110481Y-36263774D01*
X73142663Y-36280976D01*
X73170873Y-36304127D01*
X73194024Y-36332337D01*
X73211226Y-36364519D01*
X73221819Y-36399438D01*
X73226000Y-36441895D01*
X73226000Y-37583105D01*
X73221819Y-37625562D01*
X73211226Y-37660481D01*
X73194024Y-37692663D01*
X73170873Y-37720873D01*
X73142663Y-37744024D01*
X73110481Y-37761226D01*
X73075562Y-37771819D01*
X73033105Y-37776000D01*
X71566895Y-37776000D01*
X71524438Y-37771819D01*
X71489519Y-37761226D01*
X71457337Y-37744024D01*
X71429127Y-37720873D01*
X71405976Y-37692663D01*
X71388774Y-37660481D01*
X71378181Y-37625562D01*
X71374000Y-37583105D01*
X71374000Y-36441895D01*
X71378181Y-36399438D01*
X71388774Y-36364519D01*
X71405976Y-36332337D01*
X71429127Y-36304127D01*
X71457337Y-36280976D01*
X71489519Y-36263774D01*
X71524438Y-36253181D01*
X71566895Y-36249000D01*
X73033105Y-36249000D01*
X73075562Y-36253181D01*
G37*
G36*
X51001000Y-37751000D02*
G01*
X49599000Y-37751000D01*
X49599000Y-35849000D01*
X51001000Y-35849000D01*
X51001000Y-37751000D01*
G37*
G36*
X53501000Y-37751000D02*
G01*
X52099000Y-37751000D01*
X52099000Y-35849000D01*
X53501000Y-35849000D01*
X53501000Y-37751000D01*
G37*
G36*
X48501000Y-37751000D02*
G01*
X47099000Y-37751000D01*
X47099000Y-35849000D01*
X48501000Y-35849000D01*
X48501000Y-37751000D01*
G37*
G36*
X92425562Y-35428181D02*
G01*
X92460481Y-35438774D01*
X92492663Y-35455976D01*
X92520873Y-35479127D01*
X92544024Y-35507337D01*
X92561226Y-35539519D01*
X92571819Y-35574438D01*
X92576000Y-35616895D01*
X92576000Y-36758105D01*
X92571819Y-36800562D01*
X92561226Y-36835481D01*
X92544024Y-36867663D01*
X92520873Y-36895873D01*
X92492663Y-36919024D01*
X92460481Y-36936226D01*
X92425562Y-36946819D01*
X92383105Y-36951000D01*
X90916895Y-36951000D01*
X90874438Y-36946819D01*
X90839519Y-36936226D01*
X90807337Y-36919024D01*
X90779127Y-36895873D01*
X90755976Y-36867663D01*
X90738774Y-36835481D01*
X90728181Y-36800562D01*
X90724000Y-36758105D01*
X90724000Y-35616895D01*
X90728181Y-35574438D01*
X90738774Y-35539519D01*
X90755976Y-35507337D01*
X90779127Y-35479127D01*
X90807337Y-35455976D01*
X90839519Y-35438774D01*
X90874438Y-35428181D01*
X90916895Y-35424000D01*
X92383105Y-35424000D01*
X92425562Y-35428181D01*
G37*
G36*
X79401000Y-36901000D02*
G01*
X77799000Y-36901000D01*
X77799000Y-35299000D01*
X79401000Y-35299000D01*
X79401000Y-36901000D01*
G37*
G36*
X59333642Y-35279781D02*
G01*
X59479414Y-35340162D01*
X59479416Y-35340163D01*
X59610608Y-35427822D01*
X59722178Y-35539392D01*
X59807760Y-35667476D01*
X59809838Y-35670586D01*
X59870219Y-35816358D01*
X59901000Y-35971107D01*
X59901000Y-36128893D01*
X59870219Y-36283642D01*
X59811252Y-36426000D01*
X59809837Y-36429416D01*
X59722178Y-36560608D01*
X59610608Y-36672178D01*
X59479416Y-36759837D01*
X59479415Y-36759838D01*
X59479414Y-36759838D01*
X59333642Y-36820219D01*
X59178893Y-36851000D01*
X59021107Y-36851000D01*
X58866358Y-36820219D01*
X58720586Y-36759838D01*
X58720585Y-36759838D01*
X58720584Y-36759837D01*
X58589392Y-36672178D01*
X58477822Y-36560608D01*
X58390163Y-36429416D01*
X58388748Y-36426000D01*
X58329781Y-36283642D01*
X58299000Y-36128893D01*
X58299000Y-35971107D01*
X58329781Y-35816358D01*
X58390162Y-35670586D01*
X58392240Y-35667476D01*
X58477822Y-35539392D01*
X58589392Y-35427822D01*
X58720584Y-35340163D01*
X58720586Y-35340162D01*
X58866358Y-35279781D01*
X59021107Y-35249000D01*
X59178893Y-35249000D01*
X59333642Y-35279781D01*
G37*
G36*
X86425562Y-34728181D02*
G01*
X86460481Y-34738774D01*
X86492663Y-34755976D01*
X86520873Y-34779127D01*
X86544024Y-34807337D01*
X86561226Y-34839519D01*
X86571819Y-34874438D01*
X86576000Y-34916895D01*
X86576000Y-36383105D01*
X86571819Y-36425562D01*
X86561226Y-36460481D01*
X86544024Y-36492663D01*
X86520873Y-36520873D01*
X86492663Y-36544024D01*
X86460481Y-36561226D01*
X86425562Y-36571819D01*
X86383105Y-36576000D01*
X85241895Y-36576000D01*
X85199438Y-36571819D01*
X85164519Y-36561226D01*
X85132337Y-36544024D01*
X85104127Y-36520873D01*
X85080976Y-36492663D01*
X85063774Y-36460481D01*
X85053181Y-36425562D01*
X85049000Y-36383105D01*
X85049000Y-34916895D01*
X85053181Y-34874438D01*
X85063774Y-34839519D01*
X85080976Y-34807337D01*
X85104127Y-34779127D01*
X85132337Y-34755976D01*
X85164519Y-34738774D01*
X85199438Y-34728181D01*
X85241895Y-34724000D01*
X86383105Y-34724000D01*
X86425562Y-34728181D01*
G37*
G36*
X89400562Y-34728181D02*
G01*
X89435481Y-34738774D01*
X89467663Y-34755976D01*
X89495873Y-34779127D01*
X89519024Y-34807337D01*
X89536226Y-34839519D01*
X89546819Y-34874438D01*
X89551000Y-34916895D01*
X89551000Y-36383105D01*
X89546819Y-36425562D01*
X89536226Y-36460481D01*
X89519024Y-36492663D01*
X89495873Y-36520873D01*
X89467663Y-36544024D01*
X89435481Y-36561226D01*
X89400562Y-36571819D01*
X89358105Y-36576000D01*
X88216895Y-36576000D01*
X88174438Y-36571819D01*
X88139519Y-36561226D01*
X88107337Y-36544024D01*
X88079127Y-36520873D01*
X88055976Y-36492663D01*
X88038774Y-36460481D01*
X88028181Y-36425562D01*
X88024000Y-36383105D01*
X88024000Y-34916895D01*
X88028181Y-34874438D01*
X88038774Y-34839519D01*
X88055976Y-34807337D01*
X88079127Y-34779127D01*
X88107337Y-34755976D01*
X88139519Y-34738774D01*
X88174438Y-34728181D01*
X88216895Y-34724000D01*
X89358105Y-34724000D01*
X89400562Y-34728181D01*
G37*
G36*
X84375562Y-34903181D02*
G01*
X84410481Y-34913774D01*
X84442663Y-34930976D01*
X84470873Y-34954127D01*
X84494024Y-34982337D01*
X84511226Y-35014519D01*
X84521819Y-35049438D01*
X84526000Y-35091895D01*
X84526000Y-36233105D01*
X84521819Y-36275562D01*
X84511226Y-36310481D01*
X84494024Y-36342663D01*
X84470873Y-36370873D01*
X84442663Y-36394024D01*
X84410481Y-36411226D01*
X84375562Y-36421819D01*
X84333105Y-36426000D01*
X82866895Y-36426000D01*
X82824438Y-36421819D01*
X82789519Y-36411226D01*
X82757337Y-36394024D01*
X82729127Y-36370873D01*
X82705976Y-36342663D01*
X82688774Y-36310481D01*
X82678181Y-36275562D01*
X82674000Y-36233105D01*
X82674000Y-35091895D01*
X82678181Y-35049438D01*
X82688774Y-35014519D01*
X82705976Y-34982337D01*
X82729127Y-34954127D01*
X82757337Y-34930976D01*
X82789519Y-34913774D01*
X82824438Y-34903181D01*
X82866895Y-34899000D01*
X84333105Y-34899000D01*
X84375562Y-34903181D01*
G37*
G36*
X102604928Y-33851764D02*
G01*
X102626009Y-33858160D01*
X102645445Y-33868548D01*
X102662476Y-33882524D01*
X102676452Y-33899555D01*
X102686840Y-33918991D01*
X102693236Y-33940072D01*
X102696000Y-33968140D01*
X102696000Y-35581860D01*
X102693236Y-35609928D01*
X102686840Y-35631009D01*
X102676452Y-35650445D01*
X102662476Y-35667476D01*
X102645445Y-35681452D01*
X102626009Y-35691840D01*
X102604928Y-35698236D01*
X102576860Y-35701000D01*
X102113140Y-35701000D01*
X102085072Y-35698236D01*
X102063991Y-35691840D01*
X102044555Y-35681452D01*
X102027524Y-35667476D01*
X102013548Y-35650445D01*
X102003160Y-35631009D01*
X101996764Y-35609928D01*
X101994000Y-35581860D01*
X101994000Y-33968140D01*
X101996764Y-33940072D01*
X102003160Y-33918991D01*
X102013548Y-33899555D01*
X102027524Y-33882524D01*
X102044555Y-33868548D01*
X102063991Y-33858160D01*
X102085072Y-33851764D01*
X102113140Y-33849000D01*
X102576860Y-33849000D01*
X102604928Y-33851764D01*
G37*
G36*
X103874928Y-33851764D02*
G01*
X103896009Y-33858160D01*
X103915445Y-33868548D01*
X103932476Y-33882524D01*
X103946452Y-33899555D01*
X103956840Y-33918991D01*
X103963236Y-33940072D01*
X103966000Y-33968140D01*
X103966000Y-35581860D01*
X103963236Y-35609928D01*
X103956840Y-35631009D01*
X103946452Y-35650445D01*
X103932476Y-35667476D01*
X103915445Y-35681452D01*
X103896009Y-35691840D01*
X103874928Y-35698236D01*
X103846860Y-35701000D01*
X103383140Y-35701000D01*
X103355072Y-35698236D01*
X103333991Y-35691840D01*
X103314555Y-35681452D01*
X103297524Y-35667476D01*
X103283548Y-35650445D01*
X103273160Y-35631009D01*
X103266764Y-35609928D01*
X103264000Y-35581860D01*
X103264000Y-33968140D01*
X103266764Y-33940072D01*
X103273160Y-33918991D01*
X103283548Y-33899555D01*
X103297524Y-33882524D01*
X103314555Y-33868548D01*
X103333991Y-33858160D01*
X103355072Y-33851764D01*
X103383140Y-33849000D01*
X103846860Y-33849000D01*
X103874928Y-33851764D01*
G37*
G36*
X106414928Y-33851764D02*
G01*
X106436009Y-33858160D01*
X106455445Y-33868548D01*
X106472476Y-33882524D01*
X106486452Y-33899555D01*
X106496840Y-33918991D01*
X106503236Y-33940072D01*
X106506000Y-33968140D01*
X106506000Y-35581860D01*
X106503236Y-35609928D01*
X106496840Y-35631009D01*
X106486452Y-35650445D01*
X106472476Y-35667476D01*
X106455445Y-35681452D01*
X106436009Y-35691840D01*
X106414928Y-35698236D01*
X106386860Y-35701000D01*
X105923140Y-35701000D01*
X105895072Y-35698236D01*
X105873991Y-35691840D01*
X105854555Y-35681452D01*
X105837524Y-35667476D01*
X105823548Y-35650445D01*
X105813160Y-35631009D01*
X105806764Y-35609928D01*
X105804000Y-35581860D01*
X105804000Y-33968140D01*
X105806764Y-33940072D01*
X105813160Y-33918991D01*
X105823548Y-33899555D01*
X105837524Y-33882524D01*
X105854555Y-33868548D01*
X105873991Y-33858160D01*
X105895072Y-33851764D01*
X105923140Y-33849000D01*
X106386860Y-33849000D01*
X106414928Y-33851764D01*
G37*
G36*
X105144928Y-33851764D02*
G01*
X105166009Y-33858160D01*
X105185445Y-33868548D01*
X105202476Y-33882524D01*
X105216452Y-33899555D01*
X105226840Y-33918991D01*
X105233236Y-33940072D01*
X105236000Y-33968140D01*
X105236000Y-35581860D01*
X105233236Y-35609928D01*
X105226840Y-35631009D01*
X105216452Y-35650445D01*
X105202476Y-35667476D01*
X105185445Y-35681452D01*
X105166009Y-35691840D01*
X105144928Y-35698236D01*
X105116860Y-35701000D01*
X104653140Y-35701000D01*
X104625072Y-35698236D01*
X104603991Y-35691840D01*
X104584555Y-35681452D01*
X104567524Y-35667476D01*
X104553548Y-35650445D01*
X104543160Y-35631009D01*
X104536764Y-35609928D01*
X104534000Y-35581860D01*
X104534000Y-33968140D01*
X104536764Y-33940072D01*
X104543160Y-33918991D01*
X104553548Y-33899555D01*
X104567524Y-33882524D01*
X104584555Y-33868548D01*
X104603991Y-33858160D01*
X104625072Y-33851764D01*
X104653140Y-33849000D01*
X105116860Y-33849000D01*
X105144928Y-33851764D01*
G37*
G36*
X66625562Y-33340681D02*
G01*
X66660481Y-33351274D01*
X66692663Y-33368476D01*
X66720873Y-33391627D01*
X66744024Y-33419837D01*
X66761226Y-33452019D01*
X66771819Y-33486938D01*
X66776000Y-33529395D01*
X66776000Y-34670605D01*
X66771819Y-34713062D01*
X66761226Y-34747981D01*
X66744024Y-34780163D01*
X66720873Y-34808373D01*
X66692663Y-34831524D01*
X66660481Y-34848726D01*
X66625562Y-34859319D01*
X66583105Y-34863500D01*
X65116895Y-34863500D01*
X65074438Y-34859319D01*
X65039519Y-34848726D01*
X65007337Y-34831524D01*
X64979127Y-34808373D01*
X64955976Y-34780163D01*
X64938774Y-34747981D01*
X64928181Y-34713062D01*
X64924000Y-34670605D01*
X64924000Y-33529395D01*
X64928181Y-33486938D01*
X64938774Y-33452019D01*
X64955976Y-33419837D01*
X64979127Y-33391627D01*
X65007337Y-33368476D01*
X65039519Y-33351274D01*
X65074438Y-33340681D01*
X65116895Y-33336500D01*
X66583105Y-33336500D01*
X66625562Y-33340681D01*
G37*
G36*
X70225562Y-33328181D02*
G01*
X70260481Y-33338774D01*
X70292663Y-33355976D01*
X70320873Y-33379127D01*
X70344024Y-33407337D01*
X70361226Y-33439519D01*
X70371819Y-33474438D01*
X70376000Y-33516895D01*
X70376000Y-34658105D01*
X70371819Y-34700562D01*
X70361226Y-34735481D01*
X70344024Y-34767663D01*
X70320873Y-34795873D01*
X70292663Y-34819024D01*
X70260481Y-34836226D01*
X70225562Y-34846819D01*
X70183105Y-34851000D01*
X68716895Y-34851000D01*
X68674438Y-34846819D01*
X68639519Y-34836226D01*
X68607337Y-34819024D01*
X68579127Y-34795873D01*
X68555976Y-34767663D01*
X68538774Y-34735481D01*
X68528181Y-34700562D01*
X68524000Y-34658105D01*
X68524000Y-33516895D01*
X68528181Y-33474438D01*
X68538774Y-33439519D01*
X68555976Y-33407337D01*
X68579127Y-33379127D01*
X68607337Y-33355976D01*
X68639519Y-33338774D01*
X68674438Y-33328181D01*
X68716895Y-33324000D01*
X70183105Y-33324000D01*
X70225562Y-33328181D01*
G37*
G36*
X114625562Y-33315681D02*
G01*
X114660481Y-33326274D01*
X114692663Y-33343476D01*
X114720873Y-33366627D01*
X114744024Y-33394837D01*
X114761226Y-33427019D01*
X114771819Y-33461938D01*
X114776000Y-33504395D01*
X114776000Y-34645605D01*
X114771819Y-34688062D01*
X114761226Y-34722981D01*
X114744024Y-34755163D01*
X114720873Y-34783373D01*
X114692663Y-34806524D01*
X114660481Y-34823726D01*
X114625562Y-34834319D01*
X114583105Y-34838500D01*
X113116895Y-34838500D01*
X113074438Y-34834319D01*
X113039519Y-34823726D01*
X113007337Y-34806524D01*
X112979127Y-34783373D01*
X112955976Y-34755163D01*
X112938774Y-34722981D01*
X112928181Y-34688062D01*
X112924000Y-34645605D01*
X112924000Y-33504395D01*
X112928181Y-33461938D01*
X112938774Y-33427019D01*
X112955976Y-33394837D01*
X112979127Y-33366627D01*
X113007337Y-33343476D01*
X113039519Y-33326274D01*
X113074438Y-33315681D01*
X113116895Y-33311500D01*
X114583105Y-33311500D01*
X114625562Y-33315681D01*
G37*
G36*
X74498228Y-32781703D02*
G01*
X74653100Y-32845853D01*
X74792481Y-32938985D01*
X74911015Y-33057519D01*
X75004147Y-33196900D01*
X75068297Y-33351772D01*
X75101000Y-33516184D01*
X75101000Y-33683816D01*
X75068297Y-33848228D01*
X75004147Y-34003100D01*
X74911015Y-34142481D01*
X74792481Y-34261015D01*
X74653100Y-34354147D01*
X74498228Y-34418297D01*
X74333816Y-34451000D01*
X74166184Y-34451000D01*
X74001772Y-34418297D01*
X73846900Y-34354147D01*
X73707519Y-34261015D01*
X73588985Y-34142481D01*
X73495853Y-34003100D01*
X73431703Y-33848228D01*
X73399000Y-33683816D01*
X73399000Y-33516184D01*
X73431703Y-33351772D01*
X73495853Y-33196900D01*
X73588985Y-33057519D01*
X73707519Y-32938985D01*
X73846900Y-32845853D01*
X74001772Y-32781703D01*
X74166184Y-32749000D01*
X74333816Y-32749000D01*
X74498228Y-32781703D01*
G37*
G36*
X84375562Y-32778181D02*
G01*
X84410481Y-32788774D01*
X84442663Y-32805976D01*
X84470873Y-32829127D01*
X84494024Y-32857337D01*
X84511226Y-32889519D01*
X84521819Y-32924438D01*
X84526000Y-32966895D01*
X84526000Y-34108105D01*
X84521819Y-34150562D01*
X84511226Y-34185481D01*
X84494024Y-34217663D01*
X84470873Y-34245873D01*
X84442663Y-34269024D01*
X84410481Y-34286226D01*
X84375562Y-34296819D01*
X84333105Y-34301000D01*
X82866895Y-34301000D01*
X82824438Y-34296819D01*
X82789519Y-34286226D01*
X82757337Y-34269024D01*
X82729127Y-34245873D01*
X82705976Y-34217663D01*
X82688774Y-34185481D01*
X82678181Y-34150562D01*
X82674000Y-34108105D01*
X82674000Y-32966895D01*
X82678181Y-32924438D01*
X82688774Y-32889519D01*
X82705976Y-32857337D01*
X82729127Y-32829127D01*
X82757337Y-32805976D01*
X82789519Y-32788774D01*
X82824438Y-32778181D01*
X82866895Y-32774000D01*
X84333105Y-32774000D01*
X84375562Y-32778181D01*
G37*
G36*
X79775562Y-32778181D02*
G01*
X79810481Y-32788774D01*
X79842663Y-32805976D01*
X79870873Y-32829127D01*
X79894024Y-32857337D01*
X79911226Y-32889519D01*
X79921819Y-32924438D01*
X79926000Y-32966895D01*
X79926000Y-34108105D01*
X79921819Y-34150562D01*
X79911226Y-34185481D01*
X79894024Y-34217663D01*
X79870873Y-34245873D01*
X79842663Y-34269024D01*
X79810481Y-34286226D01*
X79775562Y-34296819D01*
X79733105Y-34301000D01*
X78266895Y-34301000D01*
X78224438Y-34296819D01*
X78189519Y-34286226D01*
X78157337Y-34269024D01*
X78129127Y-34245873D01*
X78105976Y-34217663D01*
X78088774Y-34185481D01*
X78078181Y-34150562D01*
X78074000Y-34108105D01*
X78074000Y-32966895D01*
X78078181Y-32924438D01*
X78088774Y-32889519D01*
X78105976Y-32857337D01*
X78129127Y-32829127D01*
X78157337Y-32805976D01*
X78189519Y-32788774D01*
X78224438Y-32778181D01*
X78266895Y-32774000D01*
X79733105Y-32774000D01*
X79775562Y-32778181D01*
G37*
G36*
X39213512Y-32343927D02*
G01*
X39362812Y-32373624D01*
X39526784Y-32441544D01*
X39674354Y-32540147D01*
X39799853Y-32665646D01*
X39898456Y-32813216D01*
X39966376Y-32977188D01*
X40001000Y-33151259D01*
X40001000Y-33328741D01*
X39966376Y-33502812D01*
X39898456Y-33666784D01*
X39799853Y-33814354D01*
X39674354Y-33939853D01*
X39526784Y-34038456D01*
X39362812Y-34106376D01*
X39215769Y-34135624D01*
X39188742Y-34141000D01*
X39011258Y-34141000D01*
X38984231Y-34135624D01*
X38837188Y-34106376D01*
X38673216Y-34038456D01*
X38525646Y-33939853D01*
X38400147Y-33814354D01*
X38301544Y-33666784D01*
X38233624Y-33502812D01*
X38199000Y-33328741D01*
X38199000Y-33151259D01*
X38233624Y-32977188D01*
X38301544Y-32813216D01*
X38400147Y-32665646D01*
X38525646Y-32540147D01*
X38673216Y-32441544D01*
X38837188Y-32373624D01*
X38986488Y-32343927D01*
X39011258Y-32339000D01*
X39188742Y-32339000D01*
X39213512Y-32343927D01*
G37*
G36*
X95898228Y-32331703D02*
G01*
X96053100Y-32395853D01*
X96192481Y-32488985D01*
X96311015Y-32607519D01*
X96404147Y-32746900D01*
X96468297Y-32901772D01*
X96501000Y-33066184D01*
X96501000Y-33233816D01*
X96468297Y-33398228D01*
X96404147Y-33553100D01*
X96311015Y-33692481D01*
X96192481Y-33811015D01*
X96053100Y-33904147D01*
X95898228Y-33968297D01*
X95733816Y-34001000D01*
X95566184Y-34001000D01*
X95401772Y-33968297D01*
X95246900Y-33904147D01*
X95107519Y-33811015D01*
X94988985Y-33692481D01*
X94895853Y-33553100D01*
X94831703Y-33398228D01*
X94799000Y-33233816D01*
X94799000Y-33066184D01*
X94831703Y-32901772D01*
X94895853Y-32746900D01*
X94988985Y-32607519D01*
X95107519Y-32488985D01*
X95246900Y-32395853D01*
X95401772Y-32331703D01*
X95566184Y-32299000D01*
X95733816Y-32299000D01*
X95898228Y-32331703D01*
G37*
G36*
X92425562Y-32453181D02*
G01*
X92460481Y-32463774D01*
X92492663Y-32480976D01*
X92520873Y-32504127D01*
X92544024Y-32532337D01*
X92561226Y-32564519D01*
X92571819Y-32599438D01*
X92576000Y-32641895D01*
X92576000Y-33783105D01*
X92571819Y-33825562D01*
X92561226Y-33860481D01*
X92544024Y-33892663D01*
X92520873Y-33920873D01*
X92492663Y-33944024D01*
X92460481Y-33961226D01*
X92425562Y-33971819D01*
X92383105Y-33976000D01*
X90916895Y-33976000D01*
X90874438Y-33971819D01*
X90839519Y-33961226D01*
X90807337Y-33944024D01*
X90779127Y-33920873D01*
X90755976Y-33892663D01*
X90738774Y-33860481D01*
X90728181Y-33825562D01*
X90724000Y-33783105D01*
X90724000Y-32641895D01*
X90728181Y-32599438D01*
X90738774Y-32564519D01*
X90755976Y-32532337D01*
X90779127Y-32504127D01*
X90807337Y-32480976D01*
X90839519Y-32463774D01*
X90874438Y-32453181D01*
X90916895Y-32449000D01*
X92383105Y-32449000D01*
X92425562Y-32453181D01*
G37*
G36*
X96501000Y-32001000D02*
G01*
X94799000Y-32001000D01*
X94799000Y-30299000D01*
X96501000Y-30299000D01*
X96501000Y-32001000D01*
G37*
G36*
X107953512Y-30153927D02*
G01*
X108102812Y-30183624D01*
X108266784Y-30251544D01*
X108414354Y-30350147D01*
X108539853Y-30475646D01*
X108638456Y-30623216D01*
X108706376Y-30787188D01*
X108741000Y-30961259D01*
X108741000Y-31138741D01*
X108706376Y-31312812D01*
X108638456Y-31476784D01*
X108539853Y-31624354D01*
X108414354Y-31749853D01*
X108266784Y-31848456D01*
X108102812Y-31916376D01*
X107953512Y-31946073D01*
X107928742Y-31951000D01*
X107751258Y-31951000D01*
X107726488Y-31946073D01*
X107577188Y-31916376D01*
X107413216Y-31848456D01*
X107265646Y-31749853D01*
X107140147Y-31624354D01*
X107041544Y-31476784D01*
X106973624Y-31312812D01*
X106939000Y-31138741D01*
X106939000Y-30961259D01*
X106973624Y-30787188D01*
X107041544Y-30623216D01*
X107140147Y-30475646D01*
X107265646Y-30350147D01*
X107413216Y-30251544D01*
X107577188Y-30183624D01*
X107726488Y-30153927D01*
X107751258Y-30149000D01*
X107928742Y-30149000D01*
X107953512Y-30153927D01*
G37*
G36*
X75101000Y-31951000D02*
G01*
X73399000Y-31951000D01*
X73399000Y-30249000D01*
X75101000Y-30249000D01*
X75101000Y-31951000D01*
G37*
G36*
X106201000Y-31951000D02*
G01*
X104399000Y-31951000D01*
X104399000Y-30149000D01*
X106201000Y-30149000D01*
X106201000Y-31951000D01*
G37*
G36*
X110493512Y-30153927D02*
G01*
X110642812Y-30183624D01*
X110806784Y-30251544D01*
X110954354Y-30350147D01*
X111079853Y-30475646D01*
X111178456Y-30623216D01*
X111246376Y-30787188D01*
X111281000Y-30961259D01*
X111281000Y-31138741D01*
X111246376Y-31312812D01*
X111178456Y-31476784D01*
X111079853Y-31624354D01*
X110954354Y-31749853D01*
X110806784Y-31848456D01*
X110642812Y-31916376D01*
X110493512Y-31946073D01*
X110468742Y-31951000D01*
X110291258Y-31951000D01*
X110266488Y-31946073D01*
X110117188Y-31916376D01*
X109953216Y-31848456D01*
X109805646Y-31749853D01*
X109680147Y-31624354D01*
X109581544Y-31476784D01*
X109513624Y-31312812D01*
X109479000Y-31138741D01*
X109479000Y-30961259D01*
X109513624Y-30787188D01*
X109581544Y-30623216D01*
X109680147Y-30475646D01*
X109805646Y-30350147D01*
X109953216Y-30251544D01*
X110117188Y-30183624D01*
X110266488Y-30153927D01*
X110291258Y-30149000D01*
X110468742Y-30149000D01*
X110493512Y-30153927D01*
G37*
G36*
X92425562Y-30378181D02*
G01*
X92460481Y-30388774D01*
X92492663Y-30405976D01*
X92520873Y-30429127D01*
X92544024Y-30457337D01*
X92561226Y-30489519D01*
X92571819Y-30524438D01*
X92576000Y-30566895D01*
X92576000Y-31708105D01*
X92571819Y-31750562D01*
X92561226Y-31785481D01*
X92544024Y-31817663D01*
X92520873Y-31845873D01*
X92492663Y-31869024D01*
X92460481Y-31886226D01*
X92425562Y-31896819D01*
X92383105Y-31901000D01*
X90916895Y-31901000D01*
X90874438Y-31896819D01*
X90839519Y-31886226D01*
X90807337Y-31869024D01*
X90779127Y-31845873D01*
X90755976Y-31817663D01*
X90738774Y-31785481D01*
X90728181Y-31750562D01*
X90724000Y-31708105D01*
X90724000Y-30566895D01*
X90728181Y-30524438D01*
X90738774Y-30489519D01*
X90755976Y-30457337D01*
X90779127Y-30429127D01*
X90807337Y-30405976D01*
X90839519Y-30388774D01*
X90874438Y-30378181D01*
X90916895Y-30374000D01*
X92383105Y-30374000D01*
X92425562Y-30378181D01*
G37*
G36*
X66625562Y-30365681D02*
G01*
X66660481Y-30376274D01*
X66692663Y-30393476D01*
X66720873Y-30416627D01*
X66744024Y-30444837D01*
X66761226Y-30477019D01*
X66771819Y-30511938D01*
X66776000Y-30554395D01*
X66776000Y-31695605D01*
X66771819Y-31738062D01*
X66761226Y-31772981D01*
X66744024Y-31805163D01*
X66720873Y-31833373D01*
X66692663Y-31856524D01*
X66660481Y-31873726D01*
X66625562Y-31884319D01*
X66583105Y-31888500D01*
X65116895Y-31888500D01*
X65074438Y-31884319D01*
X65039519Y-31873726D01*
X65007337Y-31856524D01*
X64979127Y-31833373D01*
X64955976Y-31805163D01*
X64938774Y-31772981D01*
X64928181Y-31738062D01*
X64924000Y-31695605D01*
X64924000Y-30554395D01*
X64928181Y-30511938D01*
X64938774Y-30477019D01*
X64955976Y-30444837D01*
X64979127Y-30416627D01*
X65007337Y-30393476D01*
X65039519Y-30376274D01*
X65074438Y-30365681D01*
X65116895Y-30361500D01*
X66583105Y-30361500D01*
X66625562Y-30365681D01*
G37*
G36*
X70225562Y-30353181D02*
G01*
X70260481Y-30363774D01*
X70292663Y-30380976D01*
X70320873Y-30404127D01*
X70344024Y-30432337D01*
X70361226Y-30464519D01*
X70371819Y-30499438D01*
X70376000Y-30541895D01*
X70376000Y-31683105D01*
X70371819Y-31725562D01*
X70361226Y-31760481D01*
X70344024Y-31792663D01*
X70320873Y-31820873D01*
X70292663Y-31844024D01*
X70260481Y-31861226D01*
X70225562Y-31871819D01*
X70183105Y-31876000D01*
X68716895Y-31876000D01*
X68674438Y-31871819D01*
X68639519Y-31861226D01*
X68607337Y-31844024D01*
X68579127Y-31820873D01*
X68555976Y-31792663D01*
X68538774Y-31760481D01*
X68528181Y-31725562D01*
X68524000Y-31683105D01*
X68524000Y-30541895D01*
X68528181Y-30499438D01*
X68538774Y-30464519D01*
X68555976Y-30432337D01*
X68579127Y-30404127D01*
X68607337Y-30380976D01*
X68639519Y-30363774D01*
X68674438Y-30353181D01*
X68716895Y-30349000D01*
X70183105Y-30349000D01*
X70225562Y-30353181D01*
G37*
G36*
X114625562Y-30340681D02*
G01*
X114660481Y-30351274D01*
X114692663Y-30368476D01*
X114720873Y-30391627D01*
X114744024Y-30419837D01*
X114761226Y-30452019D01*
X114771819Y-30486938D01*
X114776000Y-30529395D01*
X114776000Y-31670605D01*
X114771819Y-31713062D01*
X114761226Y-31747981D01*
X114744024Y-31780163D01*
X114720873Y-31808373D01*
X114692663Y-31831524D01*
X114660481Y-31848726D01*
X114625562Y-31859319D01*
X114583105Y-31863500D01*
X113116895Y-31863500D01*
X113074438Y-31859319D01*
X113039519Y-31848726D01*
X113007337Y-31831524D01*
X112979127Y-31808373D01*
X112955976Y-31780163D01*
X112938774Y-31747981D01*
X112928181Y-31713062D01*
X112924000Y-31670605D01*
X112924000Y-30529395D01*
X112928181Y-30486938D01*
X112938774Y-30452019D01*
X112955976Y-30419837D01*
X112979127Y-30391627D01*
X113007337Y-30368476D01*
X113039519Y-30351274D01*
X113074438Y-30340681D01*
X113116895Y-30336500D01*
X114583105Y-30336500D01*
X114625562Y-30340681D01*
G37*
G36*
X102825562Y-30315681D02*
G01*
X102860481Y-30326274D01*
X102892663Y-30343476D01*
X102920873Y-30366627D01*
X102944024Y-30394837D01*
X102961226Y-30427019D01*
X102971819Y-30461938D01*
X102976000Y-30504395D01*
X102976000Y-31645605D01*
X102971819Y-31688062D01*
X102961226Y-31722981D01*
X102944024Y-31755163D01*
X102920873Y-31783373D01*
X102892663Y-31806524D01*
X102860481Y-31823726D01*
X102825562Y-31834319D01*
X102783105Y-31838500D01*
X101316895Y-31838500D01*
X101274438Y-31834319D01*
X101239519Y-31823726D01*
X101207337Y-31806524D01*
X101179127Y-31783373D01*
X101155976Y-31755163D01*
X101138774Y-31722981D01*
X101128181Y-31688062D01*
X101124000Y-31645605D01*
X101124000Y-30504395D01*
X101128181Y-30461938D01*
X101138774Y-30427019D01*
X101155976Y-30394837D01*
X101179127Y-30366627D01*
X101207337Y-30343476D01*
X101239519Y-30326274D01*
X101274438Y-30315681D01*
X101316895Y-30311500D01*
X102783105Y-30311500D01*
X102825562Y-30315681D01*
G37*
G36*
X52937421Y-29759143D02*
G01*
X53069557Y-29799227D01*
X53069559Y-29799228D01*
X53191339Y-29864320D01*
X53298080Y-29951920D01*
X53385680Y-30058661D01*
X53450772Y-30180441D01*
X53450773Y-30180443D01*
X53490857Y-30312579D01*
X53501000Y-30415568D01*
X53501000Y-30984432D01*
X53490857Y-31087421D01*
X53454247Y-31208105D01*
X53450772Y-31219559D01*
X53385681Y-31341338D01*
X53385679Y-31341340D01*
X53298080Y-31448080D01*
X53226359Y-31506939D01*
X53191338Y-31535680D01*
X53106826Y-31580852D01*
X53069556Y-31600773D01*
X52937420Y-31640857D01*
X52800000Y-31654391D01*
X52662579Y-31640857D01*
X52530443Y-31600773D01*
X52493173Y-31580852D01*
X52408661Y-31535680D01*
X52373640Y-31506939D01*
X52301920Y-31448080D01*
X52214321Y-31341339D01*
X52203371Y-31320852D01*
X52149228Y-31219558D01*
X52149227Y-31219556D01*
X52109143Y-31087420D01*
X52099000Y-30984431D01*
X52099000Y-30415568D01*
X52109143Y-30312579D01*
X52149227Y-30180442D01*
X52209919Y-30066895D01*
X52214320Y-30058661D01*
X52301921Y-29951920D01*
X52408662Y-29864320D01*
X52530442Y-29799228D01*
X52530444Y-29799227D01*
X52662580Y-29759143D01*
X52800000Y-29745609D01*
X52937421Y-29759143D01*
G37*
G36*
X51001000Y-31651000D02*
G01*
X49599000Y-31651000D01*
X49599000Y-29749000D01*
X51001000Y-29749000D01*
X51001000Y-31651000D01*
G37*
G36*
X48501000Y-31651000D02*
G01*
X47099000Y-31651000D01*
X47099000Y-29749000D01*
X48501000Y-29749000D01*
X48501000Y-31651000D01*
G37*
G36*
X118613512Y-29843927D02*
G01*
X118762812Y-29873624D01*
X118926784Y-29941544D01*
X119074354Y-30040147D01*
X119199853Y-30165646D01*
X119298456Y-30313216D01*
X119366376Y-30477188D01*
X119391678Y-30604395D01*
X119399138Y-30641895D01*
X119401000Y-30651259D01*
X119401000Y-30828741D01*
X119366376Y-31002812D01*
X119298456Y-31166784D01*
X119199853Y-31314354D01*
X119074354Y-31439853D01*
X118926784Y-31538456D01*
X118762812Y-31606376D01*
X118613512Y-31636073D01*
X118588742Y-31641000D01*
X118411258Y-31641000D01*
X118386488Y-31636073D01*
X118237188Y-31606376D01*
X118073216Y-31538456D01*
X117925646Y-31439853D01*
X117800147Y-31314354D01*
X117701544Y-31166784D01*
X117633624Y-31002812D01*
X117599000Y-30828741D01*
X117599000Y-30651259D01*
X117600863Y-30641895D01*
X117608322Y-30604395D01*
X117633624Y-30477188D01*
X117701544Y-30313216D01*
X117800147Y-30165646D01*
X117925646Y-30040147D01*
X118073216Y-29941544D01*
X118237188Y-29873624D01*
X118386488Y-29843927D01*
X118411258Y-29839000D01*
X118588742Y-29839000D01*
X118613512Y-29843927D01*
G37*
G36*
X45950562Y-29778181D02*
G01*
X45985481Y-29788774D01*
X46017663Y-29805976D01*
X46045873Y-29829127D01*
X46069024Y-29857337D01*
X46086226Y-29889519D01*
X46096819Y-29924438D01*
X46101000Y-29966895D01*
X46101000Y-31433105D01*
X46096819Y-31475562D01*
X46086226Y-31510481D01*
X46069024Y-31542663D01*
X46045873Y-31570873D01*
X46017663Y-31594024D01*
X45985481Y-31611226D01*
X45950562Y-31621819D01*
X45908105Y-31626000D01*
X44766895Y-31626000D01*
X44724438Y-31621819D01*
X44689519Y-31611226D01*
X44657337Y-31594024D01*
X44629127Y-31570873D01*
X44605976Y-31542663D01*
X44588774Y-31510481D01*
X44578181Y-31475562D01*
X44574000Y-31433105D01*
X44574000Y-29966895D01*
X44578181Y-29924438D01*
X44588774Y-29889519D01*
X44605976Y-29857337D01*
X44629127Y-29829127D01*
X44657337Y-29805976D01*
X44689519Y-29788774D01*
X44724438Y-29778181D01*
X44766895Y-29774000D01*
X45908105Y-29774000D01*
X45950562Y-29778181D01*
G37*
G36*
X42975562Y-29778181D02*
G01*
X43010481Y-29788774D01*
X43042663Y-29805976D01*
X43070873Y-29829127D01*
X43094024Y-29857337D01*
X43111226Y-29889519D01*
X43121819Y-29924438D01*
X43126000Y-29966895D01*
X43126000Y-31433105D01*
X43121819Y-31475562D01*
X43111226Y-31510481D01*
X43094024Y-31542663D01*
X43070873Y-31570873D01*
X43042663Y-31594024D01*
X43010481Y-31611226D01*
X42975562Y-31621819D01*
X42933105Y-31626000D01*
X41791895Y-31626000D01*
X41749438Y-31621819D01*
X41714519Y-31611226D01*
X41682337Y-31594024D01*
X41654127Y-31570873D01*
X41630976Y-31542663D01*
X41613774Y-31510481D01*
X41603181Y-31475562D01*
X41599000Y-31433105D01*
X41599000Y-29966895D01*
X41603181Y-29924438D01*
X41613774Y-29889519D01*
X41630976Y-29857337D01*
X41654127Y-29829127D01*
X41682337Y-29805976D01*
X41714519Y-29788774D01*
X41749438Y-29778181D01*
X41791895Y-29774000D01*
X42933105Y-29774000D01*
X42975562Y-29778181D01*
G37*
G36*
X40001000Y-31601000D02*
G01*
X38199000Y-31601000D01*
X38199000Y-29799000D01*
X40001000Y-29799000D01*
X40001000Y-31601000D01*
G37*
G36*
X86425562Y-29628181D02*
G01*
X86460481Y-29638774D01*
X86492663Y-29655976D01*
X86520873Y-29679127D01*
X86544024Y-29707337D01*
X86561226Y-29739519D01*
X86571819Y-29774438D01*
X86576000Y-29816895D01*
X86576000Y-31283105D01*
X86571819Y-31325562D01*
X86561226Y-31360481D01*
X86544024Y-31392663D01*
X86520873Y-31420873D01*
X86492663Y-31444024D01*
X86460481Y-31461226D01*
X86425562Y-31471819D01*
X86383105Y-31476000D01*
X85241895Y-31476000D01*
X85199438Y-31471819D01*
X85164519Y-31461226D01*
X85132337Y-31444024D01*
X85104127Y-31420873D01*
X85080976Y-31392663D01*
X85063774Y-31360481D01*
X85053181Y-31325562D01*
X85049000Y-31283105D01*
X85049000Y-29816895D01*
X85053181Y-29774438D01*
X85063774Y-29739519D01*
X85080976Y-29707337D01*
X85104127Y-29679127D01*
X85132337Y-29655976D01*
X85164519Y-29638774D01*
X85199438Y-29628181D01*
X85241895Y-29624000D01*
X86383105Y-29624000D01*
X86425562Y-29628181D01*
G37*
G36*
X89400562Y-29628181D02*
G01*
X89435481Y-29638774D01*
X89467663Y-29655976D01*
X89495873Y-29679127D01*
X89519024Y-29707337D01*
X89536226Y-29739519D01*
X89546819Y-29774438D01*
X89551000Y-29816895D01*
X89551000Y-31283105D01*
X89546819Y-31325562D01*
X89536226Y-31360481D01*
X89519024Y-31392663D01*
X89495873Y-31420873D01*
X89467663Y-31444024D01*
X89435481Y-31461226D01*
X89400562Y-31471819D01*
X89358105Y-31476000D01*
X88216895Y-31476000D01*
X88174438Y-31471819D01*
X88139519Y-31461226D01*
X88107337Y-31444024D01*
X88079127Y-31420873D01*
X88055976Y-31392663D01*
X88038774Y-31360481D01*
X88028181Y-31325562D01*
X88024000Y-31283105D01*
X88024000Y-29816895D01*
X88028181Y-29774438D01*
X88038774Y-29739519D01*
X88055976Y-29707337D01*
X88079127Y-29679127D01*
X88107337Y-29655976D01*
X88139519Y-29638774D01*
X88174438Y-29628181D01*
X88216895Y-29624000D01*
X89358105Y-29624000D01*
X89400562Y-29628181D01*
G37*
G36*
X84375562Y-29803181D02*
G01*
X84410481Y-29813774D01*
X84442663Y-29830976D01*
X84470873Y-29854127D01*
X84494024Y-29882337D01*
X84511226Y-29914519D01*
X84521819Y-29949438D01*
X84526000Y-29991895D01*
X84526000Y-31133105D01*
X84521819Y-31175562D01*
X84511226Y-31210481D01*
X84494024Y-31242663D01*
X84470873Y-31270873D01*
X84442663Y-31294024D01*
X84410481Y-31311226D01*
X84375562Y-31321819D01*
X84333105Y-31326000D01*
X82866895Y-31326000D01*
X82824438Y-31321819D01*
X82789519Y-31311226D01*
X82757337Y-31294024D01*
X82729127Y-31270873D01*
X82705976Y-31242663D01*
X82688774Y-31210481D01*
X82678181Y-31175562D01*
X82674000Y-31133105D01*
X82674000Y-29991895D01*
X82678181Y-29949438D01*
X82688774Y-29914519D01*
X82705976Y-29882337D01*
X82729127Y-29854127D01*
X82757337Y-29830976D01*
X82789519Y-29813774D01*
X82824438Y-29803181D01*
X82866895Y-29799000D01*
X84333105Y-29799000D01*
X84375562Y-29803181D01*
G37*
G36*
X79775562Y-29803181D02*
G01*
X79810481Y-29813774D01*
X79842663Y-29830976D01*
X79870873Y-29854127D01*
X79894024Y-29882337D01*
X79911226Y-29914519D01*
X79921819Y-29949438D01*
X79926000Y-29991895D01*
X79926000Y-31133105D01*
X79921819Y-31175562D01*
X79911226Y-31210481D01*
X79894024Y-31242663D01*
X79870873Y-31270873D01*
X79842663Y-31294024D01*
X79810481Y-31311226D01*
X79775562Y-31321819D01*
X79733105Y-31326000D01*
X78266895Y-31326000D01*
X78224438Y-31321819D01*
X78189519Y-31311226D01*
X78157337Y-31294024D01*
X78129127Y-31270873D01*
X78105976Y-31242663D01*
X78088774Y-31210481D01*
X78078181Y-31175562D01*
X78074000Y-31133105D01*
X78074000Y-29991895D01*
X78078181Y-29949438D01*
X78088774Y-29914519D01*
X78105976Y-29882337D01*
X78129127Y-29854127D01*
X78157337Y-29830976D01*
X78189519Y-29813774D01*
X78224438Y-29803181D01*
X78266895Y-29799000D01*
X79733105Y-29799000D01*
X79775562Y-29803181D01*
G37*
G36*
X84375562Y-27678181D02*
G01*
X84410481Y-27688774D01*
X84442663Y-27705976D01*
X84470873Y-27729127D01*
X84494024Y-27757337D01*
X84511226Y-27789519D01*
X84521819Y-27824438D01*
X84526000Y-27866895D01*
X84526000Y-29008105D01*
X84521819Y-29050562D01*
X84511226Y-29085481D01*
X84494024Y-29117663D01*
X84470873Y-29145873D01*
X84442663Y-29169024D01*
X84410481Y-29186226D01*
X84375562Y-29196819D01*
X84333105Y-29201000D01*
X82866895Y-29201000D01*
X82824438Y-29196819D01*
X82789519Y-29186226D01*
X82757337Y-29169024D01*
X82729127Y-29145873D01*
X82705976Y-29117663D01*
X82688774Y-29085481D01*
X82678181Y-29050562D01*
X82674000Y-29008105D01*
X82674000Y-27866895D01*
X82678181Y-27824438D01*
X82688774Y-27789519D01*
X82705976Y-27757337D01*
X82729127Y-27729127D01*
X82757337Y-27705976D01*
X82789519Y-27688774D01*
X82824438Y-27678181D01*
X82866895Y-27674000D01*
X84333105Y-27674000D01*
X84375562Y-27678181D01*
G37*
G36*
X119401000Y-29101000D02*
G01*
X117599000Y-29101000D01*
X117599000Y-27299000D01*
X119401000Y-27299000D01*
X119401000Y-29101000D01*
G37*
G36*
X92425562Y-27403181D02*
G01*
X92460481Y-27413774D01*
X92492663Y-27430976D01*
X92520873Y-27454127D01*
X92544024Y-27482337D01*
X92561226Y-27514519D01*
X92571818Y-27549435D01*
X92576000Y-27591895D01*
X92576000Y-28733105D01*
X92571819Y-28775562D01*
X92561226Y-28810481D01*
X92544024Y-28842663D01*
X92520873Y-28870873D01*
X92492663Y-28894024D01*
X92460481Y-28911226D01*
X92425562Y-28921819D01*
X92383105Y-28926000D01*
X90916895Y-28926000D01*
X90874438Y-28921819D01*
X90839519Y-28911226D01*
X90807337Y-28894024D01*
X90779127Y-28870873D01*
X90755976Y-28842663D01*
X90738774Y-28810481D01*
X90728181Y-28775562D01*
X90724000Y-28733105D01*
X90724000Y-27591895D01*
X90728182Y-27549435D01*
X90738774Y-27514519D01*
X90755976Y-27482337D01*
X90779127Y-27454127D01*
X90807337Y-27430976D01*
X90839519Y-27413774D01*
X90874438Y-27403181D01*
X90916895Y-27399000D01*
X92383105Y-27399000D01*
X92425562Y-27403181D01*
G37*
G36*
X102825562Y-27340681D02*
G01*
X102860481Y-27351274D01*
X102892663Y-27368476D01*
X102920873Y-27391627D01*
X102944024Y-27419837D01*
X102961226Y-27452019D01*
X102971819Y-27486938D01*
X102976000Y-27529395D01*
X102976000Y-28670605D01*
X102971819Y-28713062D01*
X102961226Y-28747981D01*
X102944024Y-28780163D01*
X102920873Y-28808373D01*
X102892663Y-28831524D01*
X102860481Y-28848726D01*
X102825562Y-28859319D01*
X102783105Y-28863500D01*
X101316895Y-28863500D01*
X101274438Y-28859319D01*
X101239519Y-28848726D01*
X101207337Y-28831524D01*
X101179127Y-28808373D01*
X101155976Y-28780163D01*
X101138774Y-28747981D01*
X101128181Y-28713062D01*
X101124000Y-28670605D01*
X101124000Y-27529395D01*
X101128181Y-27486938D01*
X101138774Y-27452019D01*
X101155976Y-27419837D01*
X101179127Y-27391627D01*
X101207337Y-27368476D01*
X101239519Y-27351274D01*
X101274438Y-27340681D01*
X101316895Y-27336500D01*
X102783105Y-27336500D01*
X102825562Y-27340681D01*
G37*
G36*
X51075562Y-26440681D02*
G01*
X51110481Y-26451274D01*
X51142663Y-26468476D01*
X51170873Y-26491627D01*
X51194024Y-26519837D01*
X51211226Y-26552019D01*
X51221819Y-26586938D01*
X51226000Y-26629395D01*
X51226000Y-27770605D01*
X51221819Y-27813062D01*
X51211226Y-27847981D01*
X51194024Y-27880163D01*
X51170873Y-27908373D01*
X51142663Y-27931524D01*
X51110481Y-27948726D01*
X51075562Y-27959319D01*
X51033105Y-27963500D01*
X49566895Y-27963500D01*
X49524438Y-27959319D01*
X49489519Y-27948726D01*
X49457337Y-27931524D01*
X49429127Y-27908373D01*
X49405976Y-27880163D01*
X49388774Y-27847981D01*
X49378181Y-27813062D01*
X49374000Y-27770605D01*
X49374000Y-26629395D01*
X49378181Y-26586938D01*
X49388774Y-26552019D01*
X49405976Y-26519837D01*
X49429127Y-26491627D01*
X49457337Y-26468476D01*
X49489519Y-26451274D01*
X49524438Y-26440681D01*
X49566895Y-26436500D01*
X51033105Y-26436500D01*
X51075562Y-26440681D01*
G37*
G36*
X109598228Y-25981703D02*
G01*
X109753100Y-26045853D01*
X109892481Y-26138985D01*
X110011015Y-26257519D01*
X110104147Y-26396900D01*
X110168297Y-26551772D01*
X110201000Y-26716184D01*
X110201000Y-26883816D01*
X110168297Y-27048228D01*
X110104147Y-27203100D01*
X110011015Y-27342481D01*
X109892481Y-27461015D01*
X109753100Y-27554147D01*
X109598228Y-27618297D01*
X109433816Y-27651000D01*
X109266184Y-27651000D01*
X109101772Y-27618297D01*
X108946900Y-27554147D01*
X108807519Y-27461015D01*
X108688985Y-27342481D01*
X108595853Y-27203100D01*
X108531703Y-27048228D01*
X108499000Y-26883816D01*
X108499000Y-26716184D01*
X108531703Y-26551772D01*
X108595853Y-26396900D01*
X108688985Y-26257519D01*
X108807519Y-26138985D01*
X108946900Y-26045853D01*
X109101772Y-25981703D01*
X109266184Y-25949000D01*
X109433816Y-25949000D01*
X109598228Y-25981703D01*
G37*
G36*
X71701000Y-27551000D02*
G01*
X70099000Y-27551000D01*
X70099000Y-25949000D01*
X71701000Y-25949000D01*
X71701000Y-27551000D01*
G37*
G36*
X66053642Y-25979781D02*
G01*
X66196572Y-26038985D01*
X66199416Y-26040163D01*
X66330608Y-26127822D01*
X66442178Y-26239392D01*
X66496621Y-26320873D01*
X66529838Y-26370586D01*
X66590219Y-26516358D01*
X66621000Y-26671107D01*
X66621000Y-26828893D01*
X66590219Y-26983642D01*
X66529838Y-27129414D01*
X66529837Y-27129416D01*
X66442178Y-27260608D01*
X66330608Y-27372178D01*
X66199416Y-27459837D01*
X66199415Y-27459838D01*
X66199414Y-27459838D01*
X66053642Y-27520219D01*
X65898893Y-27551000D01*
X65741107Y-27551000D01*
X65586358Y-27520219D01*
X65440586Y-27459838D01*
X65440585Y-27459838D01*
X65440584Y-27459837D01*
X65309392Y-27372178D01*
X65197822Y-27260608D01*
X65110163Y-27129416D01*
X65110162Y-27129414D01*
X65049781Y-26983642D01*
X65019000Y-26828893D01*
X65019000Y-26671107D01*
X65049781Y-26516358D01*
X65110162Y-26370586D01*
X65143379Y-26320873D01*
X65197822Y-26239392D01*
X65309392Y-26127822D01*
X65440584Y-26040163D01*
X65443428Y-26038985D01*
X65586358Y-25979781D01*
X65741107Y-25949000D01*
X65898893Y-25949000D01*
X66053642Y-25979781D01*
G37*
G36*
X68593642Y-25979781D02*
G01*
X68736572Y-26038985D01*
X68739416Y-26040163D01*
X68870608Y-26127822D01*
X68982178Y-26239392D01*
X69036621Y-26320873D01*
X69069838Y-26370586D01*
X69130219Y-26516358D01*
X69161000Y-26671107D01*
X69161000Y-26828893D01*
X69130219Y-26983642D01*
X69069838Y-27129414D01*
X69069837Y-27129416D01*
X68982178Y-27260608D01*
X68870608Y-27372178D01*
X68739416Y-27459837D01*
X68739415Y-27459838D01*
X68739414Y-27459838D01*
X68593642Y-27520219D01*
X68438893Y-27551000D01*
X68281107Y-27551000D01*
X68126358Y-27520219D01*
X67980586Y-27459838D01*
X67980585Y-27459838D01*
X67980584Y-27459837D01*
X67849392Y-27372178D01*
X67737822Y-27260608D01*
X67650163Y-27129416D01*
X67650162Y-27129414D01*
X67589781Y-26983642D01*
X67559000Y-26828893D01*
X67559000Y-26671107D01*
X67589781Y-26516358D01*
X67650162Y-26370586D01*
X67683379Y-26320873D01*
X67737822Y-26239392D01*
X67849392Y-26127822D01*
X67980584Y-26040163D01*
X67983428Y-26038985D01*
X68126358Y-25979781D01*
X68281107Y-25949000D01*
X68438893Y-25949000D01*
X68593642Y-25979781D01*
G37*
G36*
X75748228Y-25881703D02*
G01*
X75903100Y-25945853D01*
X76042481Y-26038985D01*
X76161015Y-26157519D01*
X76254147Y-26296900D01*
X76318297Y-26451772D01*
X76351000Y-26616184D01*
X76351000Y-26783816D01*
X76318297Y-26948228D01*
X76254147Y-27103100D01*
X76161015Y-27242481D01*
X76042481Y-27361015D01*
X75903100Y-27454147D01*
X75748228Y-27518297D01*
X75583816Y-27551000D01*
X75416184Y-27551000D01*
X75251772Y-27518297D01*
X75096900Y-27454147D01*
X74957519Y-27361015D01*
X74838985Y-27242481D01*
X74745853Y-27103100D01*
X74681703Y-26948228D01*
X74649000Y-26783816D01*
X74649000Y-26616184D01*
X74681703Y-26451772D01*
X74745853Y-26296900D01*
X74838985Y-26157519D01*
X74957519Y-26038985D01*
X75096900Y-25945853D01*
X75251772Y-25881703D01*
X75416184Y-25849000D01*
X75583816Y-25849000D01*
X75748228Y-25881703D01*
G37*
G36*
X100151000Y-27251000D02*
G01*
X98549000Y-27251000D01*
X98549000Y-25649000D01*
X100151000Y-25649000D01*
X100151000Y-27251000D01*
G37*
G36*
X97043642Y-25679781D02*
G01*
X97189414Y-25740162D01*
X97189416Y-25740163D01*
X97320608Y-25827822D01*
X97432178Y-25939392D01*
X97503312Y-26045853D01*
X97519838Y-26070586D01*
X97580219Y-26216358D01*
X97611000Y-26371107D01*
X97611000Y-26528893D01*
X97580219Y-26683642D01*
X97554050Y-26746819D01*
X97519837Y-26829416D01*
X97432178Y-26960608D01*
X97320608Y-27072178D01*
X97189416Y-27159837D01*
X97189415Y-27159838D01*
X97189414Y-27159838D01*
X97043642Y-27220219D01*
X96888893Y-27251000D01*
X96731107Y-27251000D01*
X96576358Y-27220219D01*
X96430586Y-27159838D01*
X96430585Y-27159838D01*
X96430584Y-27159837D01*
X96299392Y-27072178D01*
X96187822Y-26960608D01*
X96100163Y-26829416D01*
X96065950Y-26746819D01*
X96039781Y-26683642D01*
X96009000Y-26528893D01*
X96009000Y-26371107D01*
X96039781Y-26216358D01*
X96100162Y-26070586D01*
X96116688Y-26045853D01*
X96187822Y-25939392D01*
X96299392Y-25827822D01*
X96430584Y-25740163D01*
X96430586Y-25740162D01*
X96576358Y-25679781D01*
X96731107Y-25649000D01*
X96888893Y-25649000D01*
X97043642Y-25679781D01*
G37*
G36*
X94503642Y-25679781D02*
G01*
X94649414Y-25740162D01*
X94649416Y-25740163D01*
X94780608Y-25827822D01*
X94892178Y-25939392D01*
X94963312Y-26045853D01*
X94979838Y-26070586D01*
X95040219Y-26216358D01*
X95071000Y-26371107D01*
X95071000Y-26528893D01*
X95040219Y-26683642D01*
X95014050Y-26746819D01*
X94979837Y-26829416D01*
X94892178Y-26960608D01*
X94780608Y-27072178D01*
X94649416Y-27159837D01*
X94649415Y-27159838D01*
X94649414Y-27159838D01*
X94503642Y-27220219D01*
X94348893Y-27251000D01*
X94191107Y-27251000D01*
X94036358Y-27220219D01*
X93890586Y-27159838D01*
X93890585Y-27159838D01*
X93890584Y-27159837D01*
X93759392Y-27072178D01*
X93647822Y-26960608D01*
X93560163Y-26829416D01*
X93525950Y-26746819D01*
X93499781Y-26683642D01*
X93469000Y-26528893D01*
X93469000Y-26371107D01*
X93499781Y-26216358D01*
X93560162Y-26070586D01*
X93576688Y-26045853D01*
X93647822Y-25939392D01*
X93759392Y-25827822D01*
X93890584Y-25740163D01*
X93890586Y-25740162D01*
X94036358Y-25679781D01*
X94191107Y-25649000D01*
X94348893Y-25649000D01*
X94503642Y-25679781D01*
G37*
G36*
X102825562Y-25228181D02*
G01*
X102860481Y-25238774D01*
X102892663Y-25255976D01*
X102920873Y-25279127D01*
X102944024Y-25307337D01*
X102961226Y-25339519D01*
X102971819Y-25374438D01*
X102976000Y-25416895D01*
X102976000Y-26558105D01*
X102971819Y-26600562D01*
X102961226Y-26635481D01*
X102944024Y-26667663D01*
X102920873Y-26695873D01*
X102892663Y-26719024D01*
X102860481Y-26736226D01*
X102825562Y-26746819D01*
X102783105Y-26751000D01*
X101316895Y-26751000D01*
X101274438Y-26746819D01*
X101239519Y-26736226D01*
X101207337Y-26719024D01*
X101179127Y-26695873D01*
X101155976Y-26667663D01*
X101138774Y-26635481D01*
X101128181Y-26600562D01*
X101124000Y-26558105D01*
X101124000Y-25416895D01*
X101128181Y-25374438D01*
X101138774Y-25339519D01*
X101155976Y-25307337D01*
X101179127Y-25279127D01*
X101207337Y-25255976D01*
X101239519Y-25238774D01*
X101274438Y-25228181D01*
X101316895Y-25224000D01*
X102783105Y-25224000D01*
X102825562Y-25228181D01*
G37*
G36*
X105275562Y-25228181D02*
G01*
X105310481Y-25238774D01*
X105342663Y-25255976D01*
X105370873Y-25279127D01*
X105394024Y-25307337D01*
X105411226Y-25339519D01*
X105421819Y-25374438D01*
X105426000Y-25416895D01*
X105426000Y-26558105D01*
X105421819Y-26600562D01*
X105411226Y-26635481D01*
X105394024Y-26667663D01*
X105370873Y-26695873D01*
X105342663Y-26719024D01*
X105310481Y-26736226D01*
X105275562Y-26746819D01*
X105233105Y-26751000D01*
X103766895Y-26751000D01*
X103724438Y-26746819D01*
X103689519Y-26736226D01*
X103657337Y-26719024D01*
X103629127Y-26695873D01*
X103605976Y-26667663D01*
X103588774Y-26635481D01*
X103578181Y-26600562D01*
X103574000Y-26558105D01*
X103574000Y-25416895D01*
X103578181Y-25374438D01*
X103588774Y-25339519D01*
X103605976Y-25307337D01*
X103629127Y-25279127D01*
X103657337Y-25255976D01*
X103689519Y-25238774D01*
X103724438Y-25228181D01*
X103766895Y-25224000D01*
X105233105Y-25224000D01*
X105275562Y-25228181D01*
G37*
G36*
X92425562Y-25215681D02*
G01*
X92460481Y-25226274D01*
X92492663Y-25243476D01*
X92520873Y-25266627D01*
X92544024Y-25294837D01*
X92561226Y-25327019D01*
X92571819Y-25361938D01*
X92576000Y-25404395D01*
X92576000Y-26545605D01*
X92571819Y-26588062D01*
X92561226Y-26622981D01*
X92544024Y-26655163D01*
X92520873Y-26683373D01*
X92492663Y-26706524D01*
X92460481Y-26723726D01*
X92425562Y-26734319D01*
X92383105Y-26738500D01*
X90916895Y-26738500D01*
X90874438Y-26734319D01*
X90839519Y-26723726D01*
X90807337Y-26706524D01*
X90779127Y-26683373D01*
X90755976Y-26655163D01*
X90738774Y-26622981D01*
X90728181Y-26588062D01*
X90724000Y-26545605D01*
X90724000Y-25404395D01*
X90728181Y-25361938D01*
X90738774Y-25327019D01*
X90755976Y-25294837D01*
X90779127Y-25266627D01*
X90807337Y-25243476D01*
X90839519Y-25226274D01*
X90874438Y-25215681D01*
X90916895Y-25211500D01*
X92383105Y-25211500D01*
X92425562Y-25215681D01*
G37*
G36*
X89400562Y-24528181D02*
G01*
X89435481Y-24538774D01*
X89467663Y-24555976D01*
X89495873Y-24579127D01*
X89519024Y-24607337D01*
X89536226Y-24639519D01*
X89546819Y-24674438D01*
X89551000Y-24716895D01*
X89551000Y-26183105D01*
X89546819Y-26225562D01*
X89536226Y-26260481D01*
X89519024Y-26292663D01*
X89495873Y-26320873D01*
X89467663Y-26344024D01*
X89435481Y-26361226D01*
X89400562Y-26371819D01*
X89358105Y-26376000D01*
X88216895Y-26376000D01*
X88174438Y-26371819D01*
X88139519Y-26361226D01*
X88107337Y-26344024D01*
X88079127Y-26320873D01*
X88055976Y-26292663D01*
X88038774Y-26260481D01*
X88028181Y-26225562D01*
X88024000Y-26183105D01*
X88024000Y-24716895D01*
X88028181Y-24674438D01*
X88038774Y-24639519D01*
X88055976Y-24607337D01*
X88079127Y-24579127D01*
X88107337Y-24555976D01*
X88139519Y-24538774D01*
X88174438Y-24528181D01*
X88216895Y-24524000D01*
X89358105Y-24524000D01*
X89400562Y-24528181D01*
G37*
G36*
X86425562Y-24528181D02*
G01*
X86460481Y-24538774D01*
X86492663Y-24555976D01*
X86520873Y-24579127D01*
X86544024Y-24607337D01*
X86561226Y-24639519D01*
X86571819Y-24674438D01*
X86576000Y-24716895D01*
X86576000Y-26183105D01*
X86571819Y-26225562D01*
X86561226Y-26260481D01*
X86544024Y-26292663D01*
X86520873Y-26320873D01*
X86492663Y-26344024D01*
X86460481Y-26361226D01*
X86425562Y-26371819D01*
X86383105Y-26376000D01*
X85241895Y-26376000D01*
X85199438Y-26371819D01*
X85164519Y-26361226D01*
X85132337Y-26344024D01*
X85104127Y-26320873D01*
X85080976Y-26292663D01*
X85063774Y-26260481D01*
X85053181Y-26225562D01*
X85049000Y-26183105D01*
X85049000Y-24716895D01*
X85053181Y-24674438D01*
X85063774Y-24639519D01*
X85080976Y-24607337D01*
X85104127Y-24579127D01*
X85132337Y-24555976D01*
X85164519Y-24538774D01*
X85199438Y-24528181D01*
X85241895Y-24524000D01*
X86383105Y-24524000D01*
X86425562Y-24528181D01*
G37*
G36*
X84375562Y-24703181D02*
G01*
X84410481Y-24713774D01*
X84442663Y-24730976D01*
X84470873Y-24754127D01*
X84494024Y-24782337D01*
X84511226Y-24814519D01*
X84521819Y-24849438D01*
X84526000Y-24891895D01*
X84526000Y-26033105D01*
X84521819Y-26075562D01*
X84511226Y-26110481D01*
X84494024Y-26142663D01*
X84470873Y-26170873D01*
X84442663Y-26194024D01*
X84410481Y-26211226D01*
X84375562Y-26221819D01*
X84333105Y-26226000D01*
X82866895Y-26226000D01*
X82824438Y-26221819D01*
X82789519Y-26211226D01*
X82757337Y-26194024D01*
X82729127Y-26170873D01*
X82705976Y-26142663D01*
X82688774Y-26110481D01*
X82678181Y-26075562D01*
X82674000Y-26033105D01*
X82674000Y-24891895D01*
X82678181Y-24849438D01*
X82688774Y-24814519D01*
X82705976Y-24782337D01*
X82729127Y-24754127D01*
X82757337Y-24730976D01*
X82789519Y-24713774D01*
X82824438Y-24703181D01*
X82866895Y-24699000D01*
X84333105Y-24699000D01*
X84375562Y-24703181D01*
G37*
G36*
X110201000Y-25151000D02*
G01*
X108499000Y-25151000D01*
X108499000Y-23449000D01*
X110201000Y-23449000D01*
X110201000Y-25151000D01*
G37*
G36*
X76351000Y-25051000D02*
G01*
X74649000Y-25051000D01*
X74649000Y-23349000D01*
X76351000Y-23349000D01*
X76351000Y-25051000D01*
G37*
G36*
X51075562Y-23465681D02*
G01*
X51110481Y-23476274D01*
X51142663Y-23493476D01*
X51170873Y-23516627D01*
X51194024Y-23544837D01*
X51211226Y-23577019D01*
X51221819Y-23611938D01*
X51226000Y-23654395D01*
X51226000Y-24795605D01*
X51221819Y-24838062D01*
X51211226Y-24872981D01*
X51194024Y-24905163D01*
X51170873Y-24933373D01*
X51142663Y-24956524D01*
X51110481Y-24973726D01*
X51075562Y-24984319D01*
X51033105Y-24988500D01*
X49566895Y-24988500D01*
X49524438Y-24984319D01*
X49489519Y-24973726D01*
X49457337Y-24956524D01*
X49429127Y-24933373D01*
X49405976Y-24905163D01*
X49388774Y-24872981D01*
X49378181Y-24838062D01*
X49374000Y-24795605D01*
X49374000Y-23654395D01*
X49378181Y-23611938D01*
X49388774Y-23577019D01*
X49405976Y-23544837D01*
X49429127Y-23516627D01*
X49457337Y-23493476D01*
X49489519Y-23476274D01*
X49524438Y-23465681D01*
X49566895Y-23461500D01*
X51033105Y-23461500D01*
X51075562Y-23465681D01*
G37*
G36*
X81125562Y-23440681D02*
G01*
X81160481Y-23451274D01*
X81192663Y-23468476D01*
X81220873Y-23491627D01*
X81244024Y-23519837D01*
X81261226Y-23552019D01*
X81271819Y-23586938D01*
X81276000Y-23629395D01*
X81276000Y-24770605D01*
X81271819Y-24813062D01*
X81261226Y-24847981D01*
X81244024Y-24880163D01*
X81220873Y-24908373D01*
X81192663Y-24931524D01*
X81160481Y-24948726D01*
X81125562Y-24959319D01*
X81083105Y-24963500D01*
X79616895Y-24963500D01*
X79574438Y-24959319D01*
X79539519Y-24948726D01*
X79507337Y-24931524D01*
X79479127Y-24908373D01*
X79455976Y-24880163D01*
X79438774Y-24847981D01*
X79428181Y-24813062D01*
X79424000Y-24770605D01*
X79424000Y-23629395D01*
X79428181Y-23586938D01*
X79438774Y-23552019D01*
X79455976Y-23519837D01*
X79479127Y-23491627D01*
X79507337Y-23468476D01*
X79539519Y-23451274D01*
X79574438Y-23440681D01*
X79616895Y-23436500D01*
X81083105Y-23436500D01*
X81125562Y-23440681D01*
G37*
G36*
X59333642Y-23279781D02*
G01*
X59479414Y-23340162D01*
X59479416Y-23340163D01*
X59610608Y-23427822D01*
X59722178Y-23539392D01*
X59803086Y-23660481D01*
X59809838Y-23670586D01*
X59870219Y-23816358D01*
X59901000Y-23971107D01*
X59901000Y-24128893D01*
X59870219Y-24283642D01*
X59809838Y-24429414D01*
X59809837Y-24429416D01*
X59722178Y-24560608D01*
X59610608Y-24672178D01*
X59479416Y-24759837D01*
X59479415Y-24759838D01*
X59479414Y-24759838D01*
X59333642Y-24820219D01*
X59178893Y-24851000D01*
X59021107Y-24851000D01*
X58866358Y-24820219D01*
X58720586Y-24759838D01*
X58720585Y-24759838D01*
X58720584Y-24759837D01*
X58589392Y-24672178D01*
X58477822Y-24560608D01*
X58390163Y-24429416D01*
X58390162Y-24429414D01*
X58329781Y-24283642D01*
X58299000Y-24128893D01*
X58299000Y-23971107D01*
X58329781Y-23816358D01*
X58390162Y-23670586D01*
X58396914Y-23660481D01*
X58477822Y-23539392D01*
X58589392Y-23427822D01*
X58720584Y-23340163D01*
X58720586Y-23340162D01*
X58866358Y-23279781D01*
X59021107Y-23249000D01*
X59178893Y-23249000D01*
X59333642Y-23279781D01*
G37*
G36*
X71513062Y-22478181D02*
G01*
X71547981Y-22488774D01*
X71580163Y-22505976D01*
X71608373Y-22529127D01*
X71631524Y-22557337D01*
X71648726Y-22589519D01*
X71659319Y-22624438D01*
X71663500Y-22666895D01*
X71663500Y-24133105D01*
X71659319Y-24175562D01*
X71648726Y-24210481D01*
X71631524Y-24242663D01*
X71608373Y-24270873D01*
X71580163Y-24294024D01*
X71547981Y-24311226D01*
X71513062Y-24321819D01*
X71470605Y-24326000D01*
X70329395Y-24326000D01*
X70286938Y-24321819D01*
X70252019Y-24311226D01*
X70219837Y-24294024D01*
X70191627Y-24270873D01*
X70168476Y-24242663D01*
X70151274Y-24210481D01*
X70140681Y-24175562D01*
X70136500Y-24133105D01*
X70136500Y-22666895D01*
X70140681Y-22624438D01*
X70151274Y-22589519D01*
X70168476Y-22557337D01*
X70191627Y-22529127D01*
X70219837Y-22505976D01*
X70252019Y-22488774D01*
X70286938Y-22478181D01*
X70329395Y-22474000D01*
X71470605Y-22474000D01*
X71513062Y-22478181D01*
G37*
G36*
X68538062Y-22478181D02*
G01*
X68572981Y-22488774D01*
X68605163Y-22505976D01*
X68633373Y-22529127D01*
X68656524Y-22557337D01*
X68673726Y-22589519D01*
X68684319Y-22624438D01*
X68688500Y-22666895D01*
X68688500Y-24133105D01*
X68684319Y-24175562D01*
X68673726Y-24210481D01*
X68656524Y-24242663D01*
X68633373Y-24270873D01*
X68605163Y-24294024D01*
X68572981Y-24311226D01*
X68538062Y-24321819D01*
X68495605Y-24326000D01*
X67354395Y-24326000D01*
X67311938Y-24321819D01*
X67277019Y-24311226D01*
X67244837Y-24294024D01*
X67216627Y-24270873D01*
X67193476Y-24242663D01*
X67176274Y-24210481D01*
X67165681Y-24175562D01*
X67161500Y-24133105D01*
X67161500Y-22666895D01*
X67165681Y-22624438D01*
X67176274Y-22589519D01*
X67193476Y-22557337D01*
X67216627Y-22529127D01*
X67244837Y-22505976D01*
X67277019Y-22488774D01*
X67311938Y-22478181D01*
X67354395Y-22474000D01*
X68495605Y-22474000D01*
X68538062Y-22478181D01*
G37*
G36*
X117898254Y-20027818D02*
G01*
X118271511Y-20182426D01*
X118271513Y-20182427D01*
X118607436Y-20406884D01*
X118893116Y-20692564D01*
X118947823Y-20774438D01*
X119117574Y-21028489D01*
X119272182Y-21401746D01*
X119351000Y-21797993D01*
X119351000Y-22202007D01*
X119272182Y-22598254D01*
X119234332Y-22689631D01*
X119117573Y-22971513D01*
X118893116Y-23307436D01*
X118607436Y-23593116D01*
X118271513Y-23817573D01*
X118271512Y-23817574D01*
X118271511Y-23817574D01*
X117898254Y-23972182D01*
X117502007Y-24051000D01*
X117097993Y-24051000D01*
X116701746Y-23972182D01*
X116328489Y-23817574D01*
X116328488Y-23817574D01*
X116328487Y-23817573D01*
X115992564Y-23593116D01*
X115706884Y-23307436D01*
X115482427Y-22971513D01*
X115365668Y-22689631D01*
X115327818Y-22598254D01*
X115249000Y-22202007D01*
X115249000Y-21797993D01*
X115327818Y-21401746D01*
X115482426Y-21028489D01*
X115652178Y-20774438D01*
X115706884Y-20692564D01*
X115992564Y-20406884D01*
X116328487Y-20182427D01*
X116328489Y-20182426D01*
X116701746Y-20027818D01*
X117097993Y-19949000D01*
X117502007Y-19949000D01*
X117898254Y-20027818D01*
G37*
G36*
X40898254Y-20027818D02*
G01*
X41271511Y-20182426D01*
X41271513Y-20182427D01*
X41607436Y-20406884D01*
X41893116Y-20692564D01*
X41947823Y-20774438D01*
X42117574Y-21028489D01*
X42272182Y-21401746D01*
X42351000Y-21797993D01*
X42351000Y-22202007D01*
X42272182Y-22598254D01*
X42234332Y-22689631D01*
X42117573Y-22971513D01*
X41893116Y-23307436D01*
X41607436Y-23593116D01*
X41271513Y-23817573D01*
X41271512Y-23817574D01*
X41271511Y-23817574D01*
X40898254Y-23972182D01*
X40502007Y-24051000D01*
X40097993Y-24051000D01*
X39701746Y-23972182D01*
X39328489Y-23817574D01*
X39328488Y-23817574D01*
X39328487Y-23817573D01*
X38992564Y-23593116D01*
X38706884Y-23307436D01*
X38482427Y-22971513D01*
X38365668Y-22689631D01*
X38327818Y-22598254D01*
X38249000Y-22202007D01*
X38249000Y-21797993D01*
X38327818Y-21401746D01*
X38482426Y-21028489D01*
X38652178Y-20774438D01*
X38706884Y-20692564D01*
X38992564Y-20406884D01*
X39328487Y-20182427D01*
X39328489Y-20182426D01*
X39701746Y-20027818D01*
X40097993Y-19949000D01*
X40502007Y-19949000D01*
X40898254Y-20027818D01*
G37*
G36*
X86425562Y-22078181D02*
G01*
X86460481Y-22088774D01*
X86492663Y-22105976D01*
X86520873Y-22129127D01*
X86544024Y-22157337D01*
X86561226Y-22189519D01*
X86571819Y-22224438D01*
X86576000Y-22266895D01*
X86576000Y-23733105D01*
X86571819Y-23775562D01*
X86561226Y-23810481D01*
X86544024Y-23842663D01*
X86520873Y-23870873D01*
X86492663Y-23894024D01*
X86460481Y-23911226D01*
X86425562Y-23921819D01*
X86383105Y-23926000D01*
X85241895Y-23926000D01*
X85199438Y-23921819D01*
X85164519Y-23911226D01*
X85132337Y-23894024D01*
X85104127Y-23870873D01*
X85080976Y-23842663D01*
X85063774Y-23810481D01*
X85053181Y-23775562D01*
X85049000Y-23733105D01*
X85049000Y-22266895D01*
X85053181Y-22224438D01*
X85063774Y-22189519D01*
X85080976Y-22157337D01*
X85104127Y-22129127D01*
X85132337Y-22105976D01*
X85164519Y-22088774D01*
X85199438Y-22078181D01*
X85241895Y-22074000D01*
X86383105Y-22074000D01*
X86425562Y-22078181D01*
G37*
G36*
X89400562Y-22078181D02*
G01*
X89435481Y-22088774D01*
X89467663Y-22105976D01*
X89495873Y-22129127D01*
X89519024Y-22157337D01*
X89536226Y-22189519D01*
X89546819Y-22224438D01*
X89551000Y-22266895D01*
X89551000Y-23733105D01*
X89546819Y-23775562D01*
X89536226Y-23810481D01*
X89519024Y-23842663D01*
X89495873Y-23870873D01*
X89467663Y-23894024D01*
X89435481Y-23911226D01*
X89400562Y-23921819D01*
X89358105Y-23926000D01*
X88216895Y-23926000D01*
X88174438Y-23921819D01*
X88139519Y-23911226D01*
X88107337Y-23894024D01*
X88079127Y-23870873D01*
X88055976Y-23842663D01*
X88038774Y-23810481D01*
X88028181Y-23775562D01*
X88024000Y-23733105D01*
X88024000Y-22266895D01*
X88028181Y-22224438D01*
X88038774Y-22189519D01*
X88055976Y-22157337D01*
X88079127Y-22129127D01*
X88107337Y-22105976D01*
X88139519Y-22088774D01*
X88174438Y-22078181D01*
X88216895Y-22074000D01*
X89358105Y-22074000D01*
X89400562Y-22078181D01*
G37*
G36*
X100400562Y-22078181D02*
G01*
X100435481Y-22088774D01*
X100467663Y-22105976D01*
X100495873Y-22129127D01*
X100519024Y-22157337D01*
X100536226Y-22189519D01*
X100546819Y-22224438D01*
X100551000Y-22266895D01*
X100551000Y-23733105D01*
X100546819Y-23775562D01*
X100536226Y-23810481D01*
X100519024Y-23842663D01*
X100495873Y-23870873D01*
X100467663Y-23894024D01*
X100435481Y-23911226D01*
X100400562Y-23921819D01*
X100358105Y-23926000D01*
X99216895Y-23926000D01*
X99174438Y-23921819D01*
X99139519Y-23911226D01*
X99107337Y-23894024D01*
X99079127Y-23870873D01*
X99055976Y-23842663D01*
X99038774Y-23810481D01*
X99028181Y-23775562D01*
X99024000Y-23733105D01*
X99024000Y-22266895D01*
X99028181Y-22224438D01*
X99038774Y-22189519D01*
X99055976Y-22157337D01*
X99079127Y-22129127D01*
X99107337Y-22105976D01*
X99139519Y-22088774D01*
X99174438Y-22078181D01*
X99216895Y-22074000D01*
X100358105Y-22074000D01*
X100400562Y-22078181D01*
G37*
G36*
X97425562Y-22078181D02*
G01*
X97460481Y-22088774D01*
X97492663Y-22105976D01*
X97520873Y-22129127D01*
X97544024Y-22157337D01*
X97561226Y-22189519D01*
X97571819Y-22224438D01*
X97576000Y-22266895D01*
X97576000Y-23733105D01*
X97571819Y-23775562D01*
X97561226Y-23810481D01*
X97544024Y-23842663D01*
X97520873Y-23870873D01*
X97492663Y-23894024D01*
X97460481Y-23911226D01*
X97425562Y-23921819D01*
X97383105Y-23926000D01*
X96241895Y-23926000D01*
X96199438Y-23921819D01*
X96164519Y-23911226D01*
X96132337Y-23894024D01*
X96104127Y-23870873D01*
X96080976Y-23842663D01*
X96063774Y-23810481D01*
X96053181Y-23775562D01*
X96049000Y-23733105D01*
X96049000Y-22266895D01*
X96053181Y-22224438D01*
X96063774Y-22189519D01*
X96080976Y-22157337D01*
X96104127Y-22129127D01*
X96132337Y-22105976D01*
X96164519Y-22088774D01*
X96199438Y-22078181D01*
X96241895Y-22074000D01*
X97383105Y-22074000D01*
X97425562Y-22078181D01*
G37*
G36*
X102825562Y-22253181D02*
G01*
X102860481Y-22263774D01*
X102892663Y-22280976D01*
X102920873Y-22304127D01*
X102944024Y-22332337D01*
X102961226Y-22364519D01*
X102971819Y-22399438D01*
X102976000Y-22441895D01*
X102976000Y-23583105D01*
X102971819Y-23625562D01*
X102961226Y-23660481D01*
X102944024Y-23692663D01*
X102920873Y-23720873D01*
X102892663Y-23744024D01*
X102860481Y-23761226D01*
X102825562Y-23771819D01*
X102783105Y-23776000D01*
X101316895Y-23776000D01*
X101274438Y-23771819D01*
X101239519Y-23761226D01*
X101207337Y-23744024D01*
X101179127Y-23720873D01*
X101155976Y-23692663D01*
X101138774Y-23660481D01*
X101128181Y-23625562D01*
X101124000Y-23583105D01*
X101124000Y-22441895D01*
X101128181Y-22399438D01*
X101138774Y-22364519D01*
X101155976Y-22332337D01*
X101179127Y-22304127D01*
X101207337Y-22280976D01*
X101239519Y-22263774D01*
X101274438Y-22253181D01*
X101316895Y-22249000D01*
X102783105Y-22249000D01*
X102825562Y-22253181D01*
G37*
G36*
X105275562Y-22253181D02*
G01*
X105310481Y-22263774D01*
X105342663Y-22280976D01*
X105370873Y-22304127D01*
X105394024Y-22332337D01*
X105411226Y-22364519D01*
X105421819Y-22399438D01*
X105426000Y-22441895D01*
X105426000Y-23583105D01*
X105421819Y-23625562D01*
X105411226Y-23660481D01*
X105394024Y-23692663D01*
X105370873Y-23720873D01*
X105342663Y-23744024D01*
X105310481Y-23761226D01*
X105275562Y-23771819D01*
X105233105Y-23776000D01*
X103766895Y-23776000D01*
X103724438Y-23771819D01*
X103689519Y-23761226D01*
X103657337Y-23744024D01*
X103629127Y-23720873D01*
X103605976Y-23692663D01*
X103588774Y-23660481D01*
X103578181Y-23625562D01*
X103574000Y-23583105D01*
X103574000Y-22441895D01*
X103578181Y-22399438D01*
X103588774Y-22364519D01*
X103605976Y-22332337D01*
X103629127Y-22304127D01*
X103657337Y-22280976D01*
X103689519Y-22263774D01*
X103724438Y-22253181D01*
X103766895Y-22249000D01*
X105233105Y-22249000D01*
X105275562Y-22253181D01*
G37*
G36*
X92425562Y-22240681D02*
G01*
X92460481Y-22251274D01*
X92492663Y-22268476D01*
X92520873Y-22291627D01*
X92544024Y-22319837D01*
X92561226Y-22352019D01*
X92571819Y-22386938D01*
X92576000Y-22429395D01*
X92576000Y-23570605D01*
X92571819Y-23613062D01*
X92561226Y-23647981D01*
X92544024Y-23680163D01*
X92520873Y-23708373D01*
X92492663Y-23731524D01*
X92460481Y-23748726D01*
X92425562Y-23759319D01*
X92383105Y-23763500D01*
X90916895Y-23763500D01*
X90874438Y-23759319D01*
X90839519Y-23748726D01*
X90807337Y-23731524D01*
X90779127Y-23708373D01*
X90755976Y-23680163D01*
X90738774Y-23647981D01*
X90728181Y-23613062D01*
X90724000Y-23570605D01*
X90724000Y-22429395D01*
X90728181Y-22386938D01*
X90738774Y-22352019D01*
X90755976Y-22319837D01*
X90779127Y-22291627D01*
X90807337Y-22268476D01*
X90839519Y-22251274D01*
X90874438Y-22240681D01*
X90916895Y-22236500D01*
X92383105Y-22236500D01*
X92425562Y-22240681D01*
G37*
G36*
X53888062Y-20628181D02*
G01*
X53922981Y-20638774D01*
X53955163Y-20655976D01*
X53983373Y-20679127D01*
X54006524Y-20707337D01*
X54023726Y-20739519D01*
X54034319Y-20774438D01*
X54038500Y-20816895D01*
X54038500Y-22283105D01*
X54034319Y-22325562D01*
X54023726Y-22360481D01*
X54006524Y-22392663D01*
X53983373Y-22420873D01*
X53955163Y-22444024D01*
X53922981Y-22461226D01*
X53888062Y-22471819D01*
X53845605Y-22476000D01*
X52704395Y-22476000D01*
X52661938Y-22471819D01*
X52627019Y-22461226D01*
X52594837Y-22444024D01*
X52566627Y-22420873D01*
X52543476Y-22392663D01*
X52526274Y-22360481D01*
X52515681Y-22325562D01*
X52511500Y-22283105D01*
X52511500Y-20816895D01*
X52515681Y-20774438D01*
X52526274Y-20739519D01*
X52543476Y-20707337D01*
X52566627Y-20679127D01*
X52594837Y-20655976D01*
X52627019Y-20638774D01*
X52661938Y-20628181D01*
X52704395Y-20624000D01*
X53845605Y-20624000D01*
X53888062Y-20628181D01*
G37*
G36*
X50913062Y-20628181D02*
G01*
X50947981Y-20638774D01*
X50980163Y-20655976D01*
X51008373Y-20679127D01*
X51031524Y-20707337D01*
X51048726Y-20739519D01*
X51059319Y-20774438D01*
X51063500Y-20816895D01*
X51063500Y-22283105D01*
X51059319Y-22325562D01*
X51048726Y-22360481D01*
X51031524Y-22392663D01*
X51008373Y-22420873D01*
X50980163Y-22444024D01*
X50947981Y-22461226D01*
X50913062Y-22471819D01*
X50870605Y-22476000D01*
X49729395Y-22476000D01*
X49686938Y-22471819D01*
X49652019Y-22461226D01*
X49619837Y-22444024D01*
X49591627Y-22420873D01*
X49568476Y-22392663D01*
X49551274Y-22360481D01*
X49540681Y-22325562D01*
X49536500Y-22283105D01*
X49536500Y-20816895D01*
X49540681Y-20774438D01*
X49551274Y-20739519D01*
X49568476Y-20707337D01*
X49591627Y-20679127D01*
X49619837Y-20655976D01*
X49652019Y-20638774D01*
X49686938Y-20628181D01*
X49729395Y-20624000D01*
X50870605Y-20624000D01*
X50913062Y-20628181D01*
G37*
G36*
X81125562Y-20465681D02*
G01*
X81160481Y-20476274D01*
X81192663Y-20493476D01*
X81220873Y-20516627D01*
X81244024Y-20544837D01*
X81261226Y-20577019D01*
X81271819Y-20611938D01*
X81276000Y-20654395D01*
X81276000Y-21795605D01*
X81271819Y-21838062D01*
X81261226Y-21872981D01*
X81244024Y-21905163D01*
X81220873Y-21933373D01*
X81192663Y-21956524D01*
X81160481Y-21973726D01*
X81125562Y-21984319D01*
X81083105Y-21988500D01*
X79616895Y-21988500D01*
X79574438Y-21984319D01*
X79539519Y-21973726D01*
X79507337Y-21956524D01*
X79479127Y-21933373D01*
X79455976Y-21905163D01*
X79438774Y-21872981D01*
X79428181Y-21838062D01*
X79424000Y-21795605D01*
X79424000Y-20654395D01*
X79428181Y-20611938D01*
X79438774Y-20577019D01*
X79455976Y-20544837D01*
X79479127Y-20516627D01*
X79507337Y-20493476D01*
X79539519Y-20476274D01*
X79574438Y-20465681D01*
X79616895Y-20461500D01*
X81083105Y-20461500D01*
X81125562Y-20465681D01*
G37*
M02*
