M48
; DRILL file {KiCad 5.1.5+dfsg1-2build2} date Fri 11 Mar 2022 02:10:32 PM EET
; FORMAT={-:-/ absolute / inch / decimal}
; #@! TF.CreationDate,2022-03-11T14:10:32+02:00
; #@! TF.GenerationSoftware,Kicad,Pcbnew,5.1.5+dfsg1-2build2
FMAT,2
INCH
T1C0.0157
T2C0.0315
T3C0.0394
T4C0.1260
T5C0.1260
%
G90
G05
T1
X1.8799Y-1.2894
X1.8799Y-1.3799
X1.9272Y-1.5217
X1.9803Y-1.2894
X1.9803Y-1.3799
X2.0787Y-1.6358
X2.0807Y-1.2894
X2.0965Y-0.9134
X2.1555Y-0.8484
X2.2677Y-1.8012
X2.6535Y-1.8031
X2.7343Y-1.4016
X2.7913Y-0.8524
X2.8465Y-1.5138
X3.2343Y-0.8346
X3.437Y-1.7244
X3.4941Y-1.0965
X3.4941Y-1.2933
X3.4941Y-1.498
X4.0295Y-1.4331
X4.0354Y-1.7382
X4.0787Y-1.5059
X4.1142Y-1.0768
X4.1299Y-1.4409
T2
X2.5925Y-1.4567
X2.5925Y-1.5567
X2.5925Y-1.6567
X3.7114Y-1.0413
X3.8114Y-1.0413
X3.9114Y-1.0413
X2.8465Y-1.7224
X2.8465Y-1.8209
X3.7657Y-1.2264
X3.7657Y-1.3051
X2.9724Y-0.9528
X2.9724Y-1.0512
X2.9232Y-1.2244
X2.9232Y-1.3228
X2.3268Y-1.5571
X2.3268Y-1.6555
X4.4094Y-1.5059
X4.4094Y-1.6437
X3.0945Y-1.7421
X3.0945Y-1.8209
X3.0945Y-1.4213
X3.0945Y-1.5213
X3.0945Y-1.6213
X3.8346Y-1.4764
X3.9134Y-1.4764
X2.3268Y-0.9469
X2.3268Y-1.4193
X2.5913Y-1.0531
X2.6913Y-1.0531
X2.7913Y-1.0531
X4.3051Y-0.9567
X4.3051Y-1.0551
X3.7106Y-1.6791
X3.7106Y-1.8169
T3
X4.1811Y-1.7228
X4.1811Y-1.8228
X4.1457Y-1.2224
X4.2457Y-1.2224
X4.3457Y-1.2224
X1.5394Y-1.2087
X1.5394Y-1.3087
X4.6654Y-1.1102
X4.6654Y-1.2102
X1.9783Y-1.8268
X2.0783Y-1.8268
T4
X1.5866Y-0.8661
X1.5866Y-1.811
X4.6181Y-1.811
X4.6181Y-0.8661
T5
X2.3268Y-1.1831
T0
M30
