G04 #@! TF.GenerationSoftware,KiCad,Pcbnew,5.1.5+dfsg1-2build2*
G04 #@! TF.CreationDate,2022-03-11T14:10:26+02:00*
G04 #@! TF.ProjectId,dc_receiver,64635f72-6563-4656-9976-65722e6b6963,rev?*
G04 #@! TF.SameCoordinates,Original*
G04 #@! TF.FileFunction,Copper,L2,Bot*
G04 #@! TF.FilePolarity,Positive*
%FSLAX46Y46*%
G04 Gerber Fmt 4.6, Leading zero omitted, Abs format (unit mm)*
G04 Created by KiCad (PCBNEW 5.1.5+dfsg1-2build2) date 2022-03-11 14:10:26*
%MOMM*%
%LPD*%
G04 APERTURE LIST*
%ADD10C,3.300000*%
%ADD11C,1.500000*%
%ADD12R,1.600000X1.600000*%
%ADD13C,1.600000*%
%ADD14O,1.700000X1.700000*%
%ADD15R,1.700000X1.700000*%
%ADD16R,1.500000X1.500000*%
%ADD17C,4.000000*%
%ADD18C,0.800000*%
%ADD19C,1.000000*%
%ADD20C,0.500000*%
%ADD21C,0.700000*%
%ADD22C,0.254000*%
G04 APERTURE END LIST*
D10*
X59100000Y-30050000D03*
D11*
X59100000Y-36050000D03*
X59100000Y-24050000D03*
D12*
X109350000Y-24300000D03*
D13*
X109350000Y-26800000D03*
X95650000Y-33150000D03*
D12*
X95650000Y-31150000D03*
X112000000Y-38250000D03*
D13*
X112000000Y-41750000D03*
X74250000Y-33600000D03*
D12*
X74250000Y-31100000D03*
D13*
X59100000Y-39550000D03*
D12*
X59100000Y-42050000D03*
X99400000Y-37500000D03*
D13*
X97400000Y-37500000D03*
D12*
X72300000Y-43750000D03*
D13*
X72300000Y-46250000D03*
X94250000Y-46150000D03*
D12*
X94250000Y-42650000D03*
X75500000Y-24200000D03*
D13*
X75500000Y-26700000D03*
D12*
X78600000Y-44250000D03*
D13*
X78600000Y-46250000D03*
D14*
X52790000Y-46400000D03*
D15*
X50250000Y-46400000D03*
X118500000Y-28200000D03*
D14*
X118500000Y-30740000D03*
X106200000Y-43760000D03*
D15*
X106200000Y-46300000D03*
D16*
X99350000Y-26450000D03*
D11*
X94270000Y-26450000D03*
X96810000Y-26450000D03*
D16*
X70900000Y-26750000D03*
D11*
X65820000Y-26750000D03*
X68360000Y-26750000D03*
X65850000Y-39540000D03*
X65850000Y-42080000D03*
D16*
X65850000Y-37000000D03*
D11*
X78600000Y-38640000D03*
X78600000Y-41180000D03*
D16*
X78600000Y-36100000D03*
D15*
X105300000Y-31050000D03*
D14*
X107840000Y-31050000D03*
X110380000Y-31050000D03*
D17*
X40300000Y-46000000D03*
X40300000Y-22000000D03*
X117300000Y-46000000D03*
X117300000Y-22000000D03*
D15*
X39100000Y-30700000D03*
D14*
X39100000Y-33240000D03*
D18*
X102350000Y-36400000D03*
X52850000Y-32750000D03*
X50300000Y-32750000D03*
X47750000Y-32750000D03*
X47750000Y-35050000D03*
X50300000Y-35050000D03*
X48950000Y-38650000D03*
X53250000Y-23200000D03*
X54750000Y-21550000D03*
X57600000Y-45750000D03*
X52800000Y-41550000D03*
X72300000Y-38450000D03*
X67400000Y-45800000D03*
X88750000Y-38050000D03*
X87300000Y-43800000D03*
X88750000Y-32850000D03*
X88750000Y-27850000D03*
X104900000Y-36600000D03*
X102500000Y-44150000D03*
X104500000Y-27350000D03*
X82150000Y-21200000D03*
X70900000Y-21650000D03*
X69450000Y-35600000D03*
X103600000Y-38250000D03*
D19*
X71350000Y-21200000D02*
X82150000Y-21200000D01*
X70900000Y-21650000D02*
X71350000Y-21200000D01*
X112200000Y-21200000D02*
X114550000Y-23550000D01*
X114550000Y-23550000D02*
X114550000Y-26300000D01*
X116450000Y-28200000D02*
X118500000Y-28200000D01*
X114550000Y-26300000D02*
X116450000Y-28200000D01*
X104500000Y-27350000D02*
X104500000Y-21200000D01*
X104500000Y-21200000D02*
X112200000Y-21200000D01*
X82150000Y-21200000D02*
X104500000Y-21200000D01*
D20*
X69450000Y-35940000D02*
X65850000Y-39540000D01*
X69450000Y-35600000D02*
X69450000Y-35940000D01*
D21*
X112000000Y-38250000D02*
X103600000Y-38250000D01*
D22*
G36*
X38848228Y-19785742D02*
G01*
X38632106Y-20152501D01*
X40300000Y-21820395D01*
X41967894Y-20152501D01*
X41751772Y-19785742D01*
X41511512Y-19660000D01*
X116083476Y-19660000D01*
X115848228Y-19785742D01*
X115632106Y-20152501D01*
X117300000Y-21820395D01*
X118967894Y-20152501D01*
X118751772Y-19785742D01*
X118511512Y-19660000D01*
X119640000Y-19660000D01*
X119640000Y-20783477D01*
X119514258Y-20548228D01*
X119147499Y-20332106D01*
X117479605Y-22000000D01*
X119147499Y-23667894D01*
X119514258Y-23451772D01*
X119640000Y-23211511D01*
X119640000Y-26784990D01*
X119594180Y-26760498D01*
X119474482Y-26724188D01*
X119350000Y-26711928D01*
X117650000Y-26711928D01*
X117525518Y-26724188D01*
X117405820Y-26760498D01*
X117295506Y-26819463D01*
X117198815Y-26898815D01*
X117119463Y-26995506D01*
X117082317Y-27065000D01*
X116920132Y-27065000D01*
X115685000Y-25829869D01*
X115685000Y-23937260D01*
X115848228Y-24214258D01*
X116308105Y-24454938D01*
X116806098Y-24601275D01*
X117323071Y-24647648D01*
X117839159Y-24592273D01*
X118334526Y-24437279D01*
X118751772Y-24214258D01*
X118967894Y-23847499D01*
X117300000Y-22179605D01*
X117285858Y-22193748D01*
X117106253Y-22014143D01*
X117120395Y-22000000D01*
X115452501Y-20332106D01*
X115085742Y-20548228D01*
X114845062Y-21008105D01*
X114698725Y-21506098D01*
X114652352Y-22023071D01*
X114655255Y-22050123D01*
X113041996Y-20436865D01*
X113006449Y-20393551D01*
X112833623Y-20251716D01*
X112636447Y-20146324D01*
X112422499Y-20081423D01*
X112255752Y-20065000D01*
X112255751Y-20065000D01*
X112200000Y-20059509D01*
X112144249Y-20065000D01*
X104555752Y-20065000D01*
X104500000Y-20059509D01*
X104444249Y-20065000D01*
X71405751Y-20065000D01*
X71349999Y-20059509D01*
X71294248Y-20065000D01*
X71127501Y-20081423D01*
X70913553Y-20146324D01*
X70716377Y-20251716D01*
X70543551Y-20393551D01*
X70508004Y-20436865D01*
X70058012Y-20886857D01*
X69951717Y-21016378D01*
X69846324Y-21213554D01*
X69781423Y-21427502D01*
X69759509Y-21650000D01*
X69781423Y-21872498D01*
X69846324Y-22086446D01*
X69951717Y-22283622D01*
X70093552Y-22456448D01*
X70266378Y-22598283D01*
X70463554Y-22703676D01*
X70677502Y-22768577D01*
X70900000Y-22790491D01*
X71122498Y-22768577D01*
X71336446Y-22703676D01*
X71533622Y-22598283D01*
X71663143Y-22491988D01*
X71820131Y-22335000D01*
X103365001Y-22335000D01*
X103365000Y-27405751D01*
X103381423Y-27572498D01*
X103446324Y-27786446D01*
X103551716Y-27983623D01*
X103693551Y-28156449D01*
X103866377Y-28298284D01*
X104063553Y-28403676D01*
X104277501Y-28468577D01*
X104500000Y-28490491D01*
X104722498Y-28468577D01*
X104936446Y-28403676D01*
X105133623Y-28298284D01*
X105306449Y-28156449D01*
X105448284Y-27983623D01*
X105550332Y-27792702D01*
X108536903Y-27792702D01*
X108608486Y-28036671D01*
X108863996Y-28157571D01*
X109138184Y-28226300D01*
X109420512Y-28240217D01*
X109700130Y-28198787D01*
X109966292Y-28103603D01*
X110091514Y-28036671D01*
X110163097Y-27792702D01*
X109350000Y-26979605D01*
X108536903Y-27792702D01*
X105550332Y-27792702D01*
X105553676Y-27786447D01*
X105618577Y-27572499D01*
X105635000Y-27405752D01*
X105635000Y-26870512D01*
X107909783Y-26870512D01*
X107951213Y-27150130D01*
X108046397Y-27416292D01*
X108113329Y-27541514D01*
X108357298Y-27613097D01*
X109170395Y-26800000D01*
X109529605Y-26800000D01*
X110342702Y-27613097D01*
X110586671Y-27541514D01*
X110707571Y-27286004D01*
X110776300Y-27011816D01*
X110790217Y-26729488D01*
X110748787Y-26449870D01*
X110653603Y-26183708D01*
X110586671Y-26058486D01*
X110342702Y-25986903D01*
X109529605Y-26800000D01*
X109170395Y-26800000D01*
X108357298Y-25986903D01*
X108113329Y-26058486D01*
X107992429Y-26313996D01*
X107923700Y-26588184D01*
X107909783Y-26870512D01*
X105635000Y-26870512D01*
X105635000Y-23500000D01*
X107911928Y-23500000D01*
X107911928Y-25100000D01*
X107924188Y-25224482D01*
X107960498Y-25344180D01*
X108019463Y-25454494D01*
X108098815Y-25551185D01*
X108195506Y-25630537D01*
X108305820Y-25689502D01*
X108425518Y-25725812D01*
X108550000Y-25738072D01*
X108557215Y-25738072D01*
X108536903Y-25807298D01*
X109350000Y-26620395D01*
X110163097Y-25807298D01*
X110142785Y-25738072D01*
X110150000Y-25738072D01*
X110274482Y-25725812D01*
X110394180Y-25689502D01*
X110504494Y-25630537D01*
X110601185Y-25551185D01*
X110680537Y-25454494D01*
X110739502Y-25344180D01*
X110775812Y-25224482D01*
X110788072Y-25100000D01*
X110788072Y-23500000D01*
X110775812Y-23375518D01*
X110739502Y-23255820D01*
X110680537Y-23145506D01*
X110601185Y-23048815D01*
X110504494Y-22969463D01*
X110394180Y-22910498D01*
X110274482Y-22874188D01*
X110150000Y-22861928D01*
X108550000Y-22861928D01*
X108425518Y-22874188D01*
X108305820Y-22910498D01*
X108195506Y-22969463D01*
X108098815Y-23048815D01*
X108019463Y-23145506D01*
X107960498Y-23255820D01*
X107924188Y-23375518D01*
X107911928Y-23500000D01*
X105635000Y-23500000D01*
X105635000Y-22335000D01*
X111729869Y-22335000D01*
X113415000Y-24020132D01*
X113415001Y-26244239D01*
X113409509Y-26300000D01*
X113431423Y-26522498D01*
X113496324Y-26736446D01*
X113540698Y-26819463D01*
X113601717Y-26933623D01*
X113743552Y-27106449D01*
X113786860Y-27141991D01*
X115608009Y-28963141D01*
X115643551Y-29006449D01*
X115816377Y-29148284D01*
X116013553Y-29253676D01*
X116227501Y-29318577D01*
X116450000Y-29340491D01*
X116505752Y-29335000D01*
X117082317Y-29335000D01*
X117119463Y-29404494D01*
X117198815Y-29501185D01*
X117295506Y-29580537D01*
X117405820Y-29639502D01*
X117486466Y-29663966D01*
X117402412Y-29739731D01*
X117228359Y-29973080D01*
X117103175Y-30235901D01*
X117058524Y-30383110D01*
X117179845Y-30613000D01*
X118373000Y-30613000D01*
X118373000Y-30593000D01*
X118627000Y-30593000D01*
X118627000Y-30613000D01*
X118647000Y-30613000D01*
X118647000Y-30867000D01*
X118627000Y-30867000D01*
X118627000Y-32060814D01*
X118856891Y-32181481D01*
X119131252Y-32084157D01*
X119381355Y-31935178D01*
X119597588Y-31740269D01*
X119640000Y-31683408D01*
X119640001Y-44783478D01*
X119514258Y-44548228D01*
X119147499Y-44332106D01*
X117479605Y-46000000D01*
X119147499Y-47667894D01*
X119514258Y-47451772D01*
X119640001Y-47211510D01*
X119640001Y-48340000D01*
X118516524Y-48340000D01*
X118751772Y-48214258D01*
X118967894Y-47847499D01*
X117300000Y-46179605D01*
X115632106Y-47847499D01*
X115848228Y-48214258D01*
X116088488Y-48340000D01*
X41516524Y-48340000D01*
X41751772Y-48214258D01*
X41967894Y-47847499D01*
X40300000Y-46179605D01*
X38632106Y-47847499D01*
X38848228Y-48214258D01*
X39088488Y-48340000D01*
X37960000Y-48340000D01*
X37960000Y-47216524D01*
X38085742Y-47451772D01*
X38452501Y-47667894D01*
X40120395Y-46000000D01*
X40479605Y-46000000D01*
X42147499Y-47667894D01*
X42514258Y-47451772D01*
X42754938Y-46991895D01*
X42901275Y-46493902D01*
X42947648Y-45976929D01*
X42901840Y-45550000D01*
X48761928Y-45550000D01*
X48761928Y-47250000D01*
X48774188Y-47374482D01*
X48810498Y-47494180D01*
X48869463Y-47604494D01*
X48948815Y-47701185D01*
X49045506Y-47780537D01*
X49155820Y-47839502D01*
X49275518Y-47875812D01*
X49400000Y-47888072D01*
X51100000Y-47888072D01*
X51224482Y-47875812D01*
X51344180Y-47839502D01*
X51454494Y-47780537D01*
X51551185Y-47701185D01*
X51630537Y-47604494D01*
X51689502Y-47494180D01*
X51713966Y-47413534D01*
X51789731Y-47497588D01*
X52023080Y-47671641D01*
X52285901Y-47796825D01*
X52433110Y-47841476D01*
X52663000Y-47720155D01*
X52663000Y-46527000D01*
X52917000Y-46527000D01*
X52917000Y-47720155D01*
X53146890Y-47841476D01*
X53294099Y-47796825D01*
X53556920Y-47671641D01*
X53790269Y-47497588D01*
X53985178Y-47281355D01*
X54008202Y-47242702D01*
X71486903Y-47242702D01*
X71558486Y-47486671D01*
X71813996Y-47607571D01*
X72088184Y-47676300D01*
X72370512Y-47690217D01*
X72650130Y-47648787D01*
X72916292Y-47553603D01*
X73041514Y-47486671D01*
X73113097Y-47242702D01*
X77786903Y-47242702D01*
X77858486Y-47486671D01*
X78113996Y-47607571D01*
X78388184Y-47676300D01*
X78670512Y-47690217D01*
X78950130Y-47648787D01*
X79216292Y-47553603D01*
X79341514Y-47486671D01*
X79413097Y-47242702D01*
X78600000Y-46429605D01*
X77786903Y-47242702D01*
X73113097Y-47242702D01*
X72300000Y-46429605D01*
X71486903Y-47242702D01*
X54008202Y-47242702D01*
X54134157Y-47031252D01*
X54231481Y-46756891D01*
X54110814Y-46527000D01*
X52917000Y-46527000D01*
X52663000Y-46527000D01*
X52643000Y-46527000D01*
X52643000Y-46320512D01*
X70859783Y-46320512D01*
X70901213Y-46600130D01*
X70996397Y-46866292D01*
X71063329Y-46991514D01*
X71307298Y-47063097D01*
X72120395Y-46250000D01*
X72479605Y-46250000D01*
X73292702Y-47063097D01*
X73536671Y-46991514D01*
X73657571Y-46736004D01*
X73726300Y-46461816D01*
X73733265Y-46320512D01*
X77159783Y-46320512D01*
X77201213Y-46600130D01*
X77296397Y-46866292D01*
X77363329Y-46991514D01*
X77607298Y-47063097D01*
X78420395Y-46250000D01*
X78406253Y-46235858D01*
X78585858Y-46056253D01*
X78600000Y-46070395D01*
X78614143Y-46056253D01*
X78793748Y-46235858D01*
X78779605Y-46250000D01*
X79592702Y-47063097D01*
X79836671Y-46991514D01*
X79957571Y-46736004D01*
X80026300Y-46461816D01*
X80040217Y-46179488D01*
X80014907Y-46008665D01*
X92815000Y-46008665D01*
X92815000Y-46291335D01*
X92870147Y-46568574D01*
X92978320Y-46829727D01*
X93135363Y-47064759D01*
X93335241Y-47264637D01*
X93570273Y-47421680D01*
X93831426Y-47529853D01*
X94108665Y-47585000D01*
X94391335Y-47585000D01*
X94668574Y-47529853D01*
X94929727Y-47421680D01*
X95164759Y-47264637D01*
X95364637Y-47064759D01*
X95521680Y-46829727D01*
X95629853Y-46568574D01*
X95685000Y-46291335D01*
X95685000Y-46008665D01*
X95629853Y-45731426D01*
X95521680Y-45470273D01*
X95508135Y-45450000D01*
X104711928Y-45450000D01*
X104711928Y-47150000D01*
X104724188Y-47274482D01*
X104760498Y-47394180D01*
X104819463Y-47504494D01*
X104898815Y-47601185D01*
X104995506Y-47680537D01*
X105105820Y-47739502D01*
X105225518Y-47775812D01*
X105350000Y-47788072D01*
X107050000Y-47788072D01*
X107174482Y-47775812D01*
X107294180Y-47739502D01*
X107404494Y-47680537D01*
X107501185Y-47601185D01*
X107580537Y-47504494D01*
X107639502Y-47394180D01*
X107675812Y-47274482D01*
X107688072Y-47150000D01*
X107688072Y-46023071D01*
X114652352Y-46023071D01*
X114707727Y-46539159D01*
X114862721Y-47034526D01*
X115085742Y-47451772D01*
X115452501Y-47667894D01*
X117120395Y-46000000D01*
X115452501Y-44332106D01*
X115085742Y-44548228D01*
X114845062Y-45008105D01*
X114698725Y-45506098D01*
X114652352Y-46023071D01*
X107688072Y-46023071D01*
X107688072Y-45450000D01*
X107675812Y-45325518D01*
X107639502Y-45205820D01*
X107580537Y-45095506D01*
X107501185Y-44998815D01*
X107404494Y-44919463D01*
X107294180Y-44860498D01*
X107213534Y-44836034D01*
X107297588Y-44760269D01*
X107471641Y-44526920D01*
X107596825Y-44264099D01*
X107630674Y-44152501D01*
X115632106Y-44152501D01*
X117300000Y-45820395D01*
X118967894Y-44152501D01*
X118751772Y-43785742D01*
X118291895Y-43545062D01*
X117793902Y-43398725D01*
X117276929Y-43352352D01*
X116760841Y-43407727D01*
X116265474Y-43562721D01*
X115848228Y-43785742D01*
X115632106Y-44152501D01*
X107630674Y-44152501D01*
X107641476Y-44116890D01*
X107520155Y-43887000D01*
X106327000Y-43887000D01*
X106327000Y-43907000D01*
X106073000Y-43907000D01*
X106073000Y-43887000D01*
X104879845Y-43887000D01*
X104758524Y-44116890D01*
X104803175Y-44264099D01*
X104928359Y-44526920D01*
X105102412Y-44760269D01*
X105186466Y-44836034D01*
X105105820Y-44860498D01*
X104995506Y-44919463D01*
X104898815Y-44998815D01*
X104819463Y-45095506D01*
X104760498Y-45205820D01*
X104724188Y-45325518D01*
X104711928Y-45450000D01*
X95508135Y-45450000D01*
X95364637Y-45235241D01*
X95164759Y-45035363D01*
X94929727Y-44878320D01*
X94668574Y-44770147D01*
X94391335Y-44715000D01*
X94108665Y-44715000D01*
X93831426Y-44770147D01*
X93570273Y-44878320D01*
X93335241Y-45035363D01*
X93135363Y-45235241D01*
X92978320Y-45470273D01*
X92870147Y-45731426D01*
X92815000Y-46008665D01*
X80014907Y-46008665D01*
X79998787Y-45899870D01*
X79903603Y-45633708D01*
X79838384Y-45511691D01*
X79851185Y-45501185D01*
X79930537Y-45404494D01*
X79989502Y-45294180D01*
X80025812Y-45174482D01*
X80038072Y-45050000D01*
X80038072Y-43450000D01*
X80025812Y-43325518D01*
X79989502Y-43205820D01*
X79930537Y-43095506D01*
X79851185Y-42998815D01*
X79754494Y-42919463D01*
X79644180Y-42860498D01*
X79524482Y-42824188D01*
X79400000Y-42811928D01*
X77800000Y-42811928D01*
X77675518Y-42824188D01*
X77555820Y-42860498D01*
X77445506Y-42919463D01*
X77348815Y-42998815D01*
X77269463Y-43095506D01*
X77210498Y-43205820D01*
X77174188Y-43325518D01*
X77161928Y-43450000D01*
X77161928Y-45050000D01*
X77174188Y-45174482D01*
X77210498Y-45294180D01*
X77269463Y-45404494D01*
X77348815Y-45501185D01*
X77361758Y-45511807D01*
X77242429Y-45763996D01*
X77173700Y-46038184D01*
X77159783Y-46320512D01*
X73733265Y-46320512D01*
X73740217Y-46179488D01*
X73698787Y-45899870D01*
X73603603Y-45633708D01*
X73536671Y-45508486D01*
X73292702Y-45436903D01*
X72479605Y-46250000D01*
X72120395Y-46250000D01*
X71307298Y-45436903D01*
X71063329Y-45508486D01*
X70942429Y-45763996D01*
X70873700Y-46038184D01*
X70859783Y-46320512D01*
X52643000Y-46320512D01*
X52643000Y-46273000D01*
X52663000Y-46273000D01*
X52663000Y-45079845D01*
X52917000Y-45079845D01*
X52917000Y-46273000D01*
X54110814Y-46273000D01*
X54231481Y-46043109D01*
X54134157Y-45768748D01*
X53985178Y-45518645D01*
X53790269Y-45302412D01*
X53556920Y-45128359D01*
X53294099Y-45003175D01*
X53146890Y-44958524D01*
X52917000Y-45079845D01*
X52663000Y-45079845D01*
X52433110Y-44958524D01*
X52285901Y-45003175D01*
X52023080Y-45128359D01*
X51789731Y-45302412D01*
X51713966Y-45386466D01*
X51689502Y-45305820D01*
X51630537Y-45195506D01*
X51551185Y-45098815D01*
X51454494Y-45019463D01*
X51344180Y-44960498D01*
X51224482Y-44924188D01*
X51100000Y-44911928D01*
X49400000Y-44911928D01*
X49275518Y-44924188D01*
X49155820Y-44960498D01*
X49045506Y-45019463D01*
X48948815Y-45098815D01*
X48869463Y-45195506D01*
X48810498Y-45305820D01*
X48774188Y-45425518D01*
X48761928Y-45550000D01*
X42901840Y-45550000D01*
X42892273Y-45460841D01*
X42737279Y-44965474D01*
X42514258Y-44548228D01*
X42147499Y-44332106D01*
X40479605Y-46000000D01*
X40120395Y-46000000D01*
X38452501Y-44332106D01*
X38085742Y-44548228D01*
X37960000Y-44788488D01*
X37960000Y-44152501D01*
X38632106Y-44152501D01*
X40300000Y-45820395D01*
X41967894Y-44152501D01*
X41751772Y-43785742D01*
X41291895Y-43545062D01*
X40793902Y-43398725D01*
X40276929Y-43352352D01*
X39760841Y-43407727D01*
X39265474Y-43562721D01*
X38848228Y-43785742D01*
X38632106Y-44152501D01*
X37960000Y-44152501D01*
X37960000Y-41250000D01*
X57661928Y-41250000D01*
X57661928Y-42850000D01*
X57674188Y-42974482D01*
X57710498Y-43094180D01*
X57769463Y-43204494D01*
X57848815Y-43301185D01*
X57945506Y-43380537D01*
X58055820Y-43439502D01*
X58175518Y-43475812D01*
X58300000Y-43488072D01*
X59900000Y-43488072D01*
X60024482Y-43475812D01*
X60144180Y-43439502D01*
X60254494Y-43380537D01*
X60351185Y-43301185D01*
X60430537Y-43204494D01*
X60489502Y-43094180D01*
X60525812Y-42974482D01*
X60538072Y-42850000D01*
X60538072Y-41250000D01*
X60525812Y-41125518D01*
X60489502Y-41005820D01*
X60430537Y-40895506D01*
X60351185Y-40798815D01*
X60254494Y-40719463D01*
X60144180Y-40660498D01*
X60048057Y-40631339D01*
X60214637Y-40464759D01*
X60371680Y-40229727D01*
X60479853Y-39968574D01*
X60535000Y-39691335D01*
X60535000Y-39408665D01*
X60479853Y-39131426D01*
X60371680Y-38870273D01*
X60214637Y-38635241D01*
X60014759Y-38435363D01*
X59779727Y-38278320D01*
X59518574Y-38170147D01*
X59241335Y-38115000D01*
X58958665Y-38115000D01*
X58681426Y-38170147D01*
X58420273Y-38278320D01*
X58185241Y-38435363D01*
X57985363Y-38635241D01*
X57828320Y-38870273D01*
X57720147Y-39131426D01*
X57665000Y-39408665D01*
X57665000Y-39691335D01*
X57720147Y-39968574D01*
X57828320Y-40229727D01*
X57985363Y-40464759D01*
X58151943Y-40631339D01*
X58055820Y-40660498D01*
X57945506Y-40719463D01*
X57848815Y-40798815D01*
X57769463Y-40895506D01*
X57710498Y-41005820D01*
X57674188Y-41125518D01*
X57661928Y-41250000D01*
X37960000Y-41250000D01*
X37960000Y-35913589D01*
X57715000Y-35913589D01*
X57715000Y-36186411D01*
X57768225Y-36453989D01*
X57872629Y-36706043D01*
X58024201Y-36932886D01*
X58217114Y-37125799D01*
X58443957Y-37277371D01*
X58696011Y-37381775D01*
X58963589Y-37435000D01*
X59236411Y-37435000D01*
X59503989Y-37381775D01*
X59756043Y-37277371D01*
X59982886Y-37125799D01*
X60175799Y-36932886D01*
X60327371Y-36706043D01*
X60431775Y-36453989D01*
X60472351Y-36250000D01*
X64461928Y-36250000D01*
X64461928Y-37750000D01*
X64474188Y-37874482D01*
X64510498Y-37994180D01*
X64569463Y-38104494D01*
X64648815Y-38201185D01*
X64745506Y-38280537D01*
X64855820Y-38339502D01*
X64975518Y-38375812D01*
X65083483Y-38386445D01*
X64967114Y-38464201D01*
X64774201Y-38657114D01*
X64622629Y-38883957D01*
X64518225Y-39136011D01*
X64465000Y-39403589D01*
X64465000Y-39676411D01*
X64518225Y-39943989D01*
X64622629Y-40196043D01*
X64774201Y-40422886D01*
X64967114Y-40615799D01*
X65193957Y-40767371D01*
X65296873Y-40810000D01*
X65193957Y-40852629D01*
X64967114Y-41004201D01*
X64774201Y-41197114D01*
X64622629Y-41423957D01*
X64518225Y-41676011D01*
X64465000Y-41943589D01*
X64465000Y-42216411D01*
X64518225Y-42483989D01*
X64622629Y-42736043D01*
X64774201Y-42962886D01*
X64967114Y-43155799D01*
X65193957Y-43307371D01*
X65446011Y-43411775D01*
X65713589Y-43465000D01*
X65986411Y-43465000D01*
X66253989Y-43411775D01*
X66506043Y-43307371D01*
X66732886Y-43155799D01*
X66925799Y-42962886D01*
X66934409Y-42950000D01*
X70861928Y-42950000D01*
X70861928Y-44550000D01*
X70874188Y-44674482D01*
X70910498Y-44794180D01*
X70969463Y-44904494D01*
X71048815Y-45001185D01*
X71145506Y-45080537D01*
X71255820Y-45139502D01*
X71375518Y-45175812D01*
X71500000Y-45188072D01*
X71507215Y-45188072D01*
X71486903Y-45257298D01*
X72300000Y-46070395D01*
X73113097Y-45257298D01*
X73092785Y-45188072D01*
X73100000Y-45188072D01*
X73224482Y-45175812D01*
X73344180Y-45139502D01*
X73454494Y-45080537D01*
X73551185Y-45001185D01*
X73630537Y-44904494D01*
X73689502Y-44794180D01*
X73725812Y-44674482D01*
X73738072Y-44550000D01*
X73738072Y-42950000D01*
X73725812Y-42825518D01*
X73689502Y-42705820D01*
X73630537Y-42595506D01*
X73551185Y-42498815D01*
X73454494Y-42419463D01*
X73344180Y-42360498D01*
X73224482Y-42324188D01*
X73100000Y-42311928D01*
X71500000Y-42311928D01*
X71375518Y-42324188D01*
X71255820Y-42360498D01*
X71145506Y-42419463D01*
X71048815Y-42498815D01*
X70969463Y-42595506D01*
X70910498Y-42705820D01*
X70874188Y-42825518D01*
X70861928Y-42950000D01*
X66934409Y-42950000D01*
X67077371Y-42736043D01*
X67181775Y-42483989D01*
X67235000Y-42216411D01*
X67235000Y-41943589D01*
X67181775Y-41676011D01*
X67077371Y-41423957D01*
X66925799Y-41197114D01*
X66732886Y-41004201D01*
X66506043Y-40852629D01*
X66403127Y-40810000D01*
X66506043Y-40767371D01*
X66732886Y-40615799D01*
X66925799Y-40422886D01*
X67077371Y-40196043D01*
X67181775Y-39943989D01*
X67235000Y-39676411D01*
X67235000Y-39406578D01*
X70045049Y-36596530D01*
X70078817Y-36568817D01*
X70121175Y-36517205D01*
X70189411Y-36434059D01*
X70236743Y-36345506D01*
X70271589Y-36280313D01*
X70297678Y-36194312D01*
X70367205Y-36090256D01*
X70445226Y-35901898D01*
X70485000Y-35701939D01*
X70485000Y-35498061D01*
X70455550Y-35350000D01*
X77211928Y-35350000D01*
X77211928Y-36850000D01*
X77224188Y-36974482D01*
X77260498Y-37094180D01*
X77319463Y-37204494D01*
X77398815Y-37301185D01*
X77495506Y-37380537D01*
X77605820Y-37439502D01*
X77725518Y-37475812D01*
X77833483Y-37486445D01*
X77717114Y-37564201D01*
X77524201Y-37757114D01*
X77372629Y-37983957D01*
X77268225Y-38236011D01*
X77215000Y-38503589D01*
X77215000Y-38776411D01*
X77268225Y-39043989D01*
X77372629Y-39296043D01*
X77524201Y-39522886D01*
X77717114Y-39715799D01*
X77943957Y-39867371D01*
X78046873Y-39910000D01*
X77943957Y-39952629D01*
X77717114Y-40104201D01*
X77524201Y-40297114D01*
X77372629Y-40523957D01*
X77268225Y-40776011D01*
X77215000Y-41043589D01*
X77215000Y-41316411D01*
X77268225Y-41583989D01*
X77372629Y-41836043D01*
X77524201Y-42062886D01*
X77717114Y-42255799D01*
X77943957Y-42407371D01*
X78196011Y-42511775D01*
X78463589Y-42565000D01*
X78736411Y-42565000D01*
X79003989Y-42511775D01*
X79256043Y-42407371D01*
X79482886Y-42255799D01*
X79675799Y-42062886D01*
X79818045Y-41850000D01*
X92811928Y-41850000D01*
X92811928Y-43450000D01*
X92824188Y-43574482D01*
X92860498Y-43694180D01*
X92919463Y-43804494D01*
X92998815Y-43901185D01*
X93095506Y-43980537D01*
X93205820Y-44039502D01*
X93325518Y-44075812D01*
X93450000Y-44088072D01*
X95050000Y-44088072D01*
X95174482Y-44075812D01*
X95294180Y-44039502D01*
X95404494Y-43980537D01*
X95501185Y-43901185D01*
X95580537Y-43804494D01*
X95639502Y-43694180D01*
X95675812Y-43574482D01*
X95688072Y-43450000D01*
X95688072Y-43403110D01*
X104758524Y-43403110D01*
X104879845Y-43633000D01*
X106073000Y-43633000D01*
X106073000Y-42439186D01*
X106327000Y-42439186D01*
X106327000Y-43633000D01*
X107520155Y-43633000D01*
X107641476Y-43403110D01*
X107596825Y-43255901D01*
X107471641Y-42993080D01*
X107297588Y-42759731D01*
X107278696Y-42742702D01*
X111186903Y-42742702D01*
X111258486Y-42986671D01*
X111513996Y-43107571D01*
X111788184Y-43176300D01*
X112070512Y-43190217D01*
X112350130Y-43148787D01*
X112616292Y-43053603D01*
X112741514Y-42986671D01*
X112813097Y-42742702D01*
X112000000Y-41929605D01*
X111186903Y-42742702D01*
X107278696Y-42742702D01*
X107081355Y-42564822D01*
X106831252Y-42415843D01*
X106556891Y-42318519D01*
X106327000Y-42439186D01*
X106073000Y-42439186D01*
X105843109Y-42318519D01*
X105568748Y-42415843D01*
X105318645Y-42564822D01*
X105102412Y-42759731D01*
X104928359Y-42993080D01*
X104803175Y-43255901D01*
X104758524Y-43403110D01*
X95688072Y-43403110D01*
X95688072Y-41850000D01*
X95685168Y-41820512D01*
X110559783Y-41820512D01*
X110601213Y-42100130D01*
X110696397Y-42366292D01*
X110763329Y-42491514D01*
X111007298Y-42563097D01*
X111820395Y-41750000D01*
X112179605Y-41750000D01*
X112992702Y-42563097D01*
X113236671Y-42491514D01*
X113357571Y-42236004D01*
X113426300Y-41961816D01*
X113440217Y-41679488D01*
X113398787Y-41399870D01*
X113303603Y-41133708D01*
X113236671Y-41008486D01*
X112992702Y-40936903D01*
X112179605Y-41750000D01*
X111820395Y-41750000D01*
X111007298Y-40936903D01*
X110763329Y-41008486D01*
X110642429Y-41263996D01*
X110573700Y-41538184D01*
X110559783Y-41820512D01*
X95685168Y-41820512D01*
X95675812Y-41725518D01*
X95639502Y-41605820D01*
X95580537Y-41495506D01*
X95501185Y-41398815D01*
X95404494Y-41319463D01*
X95294180Y-41260498D01*
X95174482Y-41224188D01*
X95050000Y-41211928D01*
X93450000Y-41211928D01*
X93325518Y-41224188D01*
X93205820Y-41260498D01*
X93095506Y-41319463D01*
X92998815Y-41398815D01*
X92919463Y-41495506D01*
X92860498Y-41605820D01*
X92824188Y-41725518D01*
X92811928Y-41850000D01*
X79818045Y-41850000D01*
X79827371Y-41836043D01*
X79931775Y-41583989D01*
X79985000Y-41316411D01*
X79985000Y-41043589D01*
X79931775Y-40776011D01*
X79924024Y-40757298D01*
X111186903Y-40757298D01*
X112000000Y-41570395D01*
X112813097Y-40757298D01*
X112741514Y-40513329D01*
X112486004Y-40392429D01*
X112211816Y-40323700D01*
X111929488Y-40309783D01*
X111649870Y-40351213D01*
X111383708Y-40446397D01*
X111258486Y-40513329D01*
X111186903Y-40757298D01*
X79924024Y-40757298D01*
X79827371Y-40523957D01*
X79675799Y-40297114D01*
X79482886Y-40104201D01*
X79256043Y-39952629D01*
X79153127Y-39910000D01*
X79256043Y-39867371D01*
X79482886Y-39715799D01*
X79675799Y-39522886D01*
X79827371Y-39296043D01*
X79931775Y-39043989D01*
X79985000Y-38776411D01*
X79985000Y-38503589D01*
X79931775Y-38236011D01*
X79827371Y-37983957D01*
X79675799Y-37757114D01*
X79489197Y-37570512D01*
X95959783Y-37570512D01*
X96001213Y-37850130D01*
X96096397Y-38116292D01*
X96163329Y-38241514D01*
X96407298Y-38313097D01*
X97220395Y-37500000D01*
X96407298Y-36686903D01*
X96163329Y-36758486D01*
X96042429Y-37013996D01*
X95973700Y-37288184D01*
X95959783Y-37570512D01*
X79489197Y-37570512D01*
X79482886Y-37564201D01*
X79366517Y-37486445D01*
X79474482Y-37475812D01*
X79594180Y-37439502D01*
X79704494Y-37380537D01*
X79801185Y-37301185D01*
X79880537Y-37204494D01*
X79939502Y-37094180D01*
X79975812Y-36974482D01*
X79988072Y-36850000D01*
X79988072Y-36507298D01*
X96586903Y-36507298D01*
X97400000Y-37320395D01*
X97414143Y-37306253D01*
X97593748Y-37485858D01*
X97579605Y-37500000D01*
X97593748Y-37514143D01*
X97414143Y-37693748D01*
X97400000Y-37679605D01*
X96586903Y-38492702D01*
X96658486Y-38736671D01*
X96913996Y-38857571D01*
X97188184Y-38926300D01*
X97470512Y-38940217D01*
X97750130Y-38898787D01*
X98016292Y-38803603D01*
X98138309Y-38738384D01*
X98148815Y-38751185D01*
X98245506Y-38830537D01*
X98355820Y-38889502D01*
X98475518Y-38925812D01*
X98600000Y-38938072D01*
X100200000Y-38938072D01*
X100324482Y-38925812D01*
X100444180Y-38889502D01*
X100554494Y-38830537D01*
X100651185Y-38751185D01*
X100730537Y-38654494D01*
X100789502Y-38544180D01*
X100825812Y-38424482D01*
X100838072Y-38300000D01*
X100838072Y-38148061D01*
X102565000Y-38148061D01*
X102565000Y-38351939D01*
X102604774Y-38551898D01*
X102682795Y-38740256D01*
X102796063Y-38909774D01*
X102940226Y-39053937D01*
X103109744Y-39167205D01*
X103298102Y-39245226D01*
X103498061Y-39285000D01*
X103701939Y-39285000D01*
X103901898Y-39245226D01*
X103926586Y-39235000D01*
X110592546Y-39235000D01*
X110610498Y-39294180D01*
X110669463Y-39404494D01*
X110748815Y-39501185D01*
X110845506Y-39580537D01*
X110955820Y-39639502D01*
X111075518Y-39675812D01*
X111200000Y-39688072D01*
X112800000Y-39688072D01*
X112924482Y-39675812D01*
X113044180Y-39639502D01*
X113154494Y-39580537D01*
X113251185Y-39501185D01*
X113330537Y-39404494D01*
X113389502Y-39294180D01*
X113425812Y-39174482D01*
X113438072Y-39050000D01*
X113438072Y-37450000D01*
X113425812Y-37325518D01*
X113389502Y-37205820D01*
X113330537Y-37095506D01*
X113251185Y-36998815D01*
X113154494Y-36919463D01*
X113044180Y-36860498D01*
X112924482Y-36824188D01*
X112800000Y-36811928D01*
X111200000Y-36811928D01*
X111075518Y-36824188D01*
X110955820Y-36860498D01*
X110845506Y-36919463D01*
X110748815Y-36998815D01*
X110669463Y-37095506D01*
X110610498Y-37205820D01*
X110592546Y-37265000D01*
X103926586Y-37265000D01*
X103901898Y-37254774D01*
X103701939Y-37215000D01*
X103498061Y-37215000D01*
X103298102Y-37254774D01*
X103109744Y-37332795D01*
X102940226Y-37446063D01*
X102796063Y-37590226D01*
X102682795Y-37759744D01*
X102604774Y-37948102D01*
X102565000Y-38148061D01*
X100838072Y-38148061D01*
X100838072Y-36700000D01*
X100825812Y-36575518D01*
X100789502Y-36455820D01*
X100730537Y-36345506D01*
X100691601Y-36298061D01*
X101315000Y-36298061D01*
X101315000Y-36501939D01*
X101354774Y-36701898D01*
X101432795Y-36890256D01*
X101546063Y-37059774D01*
X101690226Y-37203937D01*
X101859744Y-37317205D01*
X102048102Y-37395226D01*
X102248061Y-37435000D01*
X102451939Y-37435000D01*
X102651898Y-37395226D01*
X102840256Y-37317205D01*
X103009774Y-37203937D01*
X103153937Y-37059774D01*
X103267205Y-36890256D01*
X103345226Y-36701898D01*
X103385000Y-36501939D01*
X103385000Y-36298061D01*
X103345226Y-36098102D01*
X103267205Y-35909744D01*
X103153937Y-35740226D01*
X103009774Y-35596063D01*
X102840256Y-35482795D01*
X102651898Y-35404774D01*
X102451939Y-35365000D01*
X102248061Y-35365000D01*
X102048102Y-35404774D01*
X101859744Y-35482795D01*
X101690226Y-35596063D01*
X101546063Y-35740226D01*
X101432795Y-35909744D01*
X101354774Y-36098102D01*
X101315000Y-36298061D01*
X100691601Y-36298061D01*
X100651185Y-36248815D01*
X100554494Y-36169463D01*
X100444180Y-36110498D01*
X100324482Y-36074188D01*
X100200000Y-36061928D01*
X98600000Y-36061928D01*
X98475518Y-36074188D01*
X98355820Y-36110498D01*
X98245506Y-36169463D01*
X98148815Y-36248815D01*
X98138193Y-36261758D01*
X97886004Y-36142429D01*
X97611816Y-36073700D01*
X97329488Y-36059783D01*
X97049870Y-36101213D01*
X96783708Y-36196397D01*
X96658486Y-36263329D01*
X96586903Y-36507298D01*
X79988072Y-36507298D01*
X79988072Y-35350000D01*
X79975812Y-35225518D01*
X79939502Y-35105820D01*
X79880537Y-34995506D01*
X79801185Y-34898815D01*
X79704494Y-34819463D01*
X79594180Y-34760498D01*
X79474482Y-34724188D01*
X79350000Y-34711928D01*
X77850000Y-34711928D01*
X77725518Y-34724188D01*
X77605820Y-34760498D01*
X77495506Y-34819463D01*
X77398815Y-34898815D01*
X77319463Y-34995506D01*
X77260498Y-35105820D01*
X77224188Y-35225518D01*
X77211928Y-35350000D01*
X70455550Y-35350000D01*
X70445226Y-35298102D01*
X70367205Y-35109744D01*
X70253937Y-34940226D01*
X70109774Y-34796063D01*
X69940256Y-34682795D01*
X69751898Y-34604774D01*
X69691208Y-34592702D01*
X73436903Y-34592702D01*
X73508486Y-34836671D01*
X73763996Y-34957571D01*
X74038184Y-35026300D01*
X74320512Y-35040217D01*
X74600130Y-34998787D01*
X74866292Y-34903603D01*
X74991514Y-34836671D01*
X75063097Y-34592702D01*
X74250000Y-33779605D01*
X73436903Y-34592702D01*
X69691208Y-34592702D01*
X69551939Y-34565000D01*
X69348061Y-34565000D01*
X69148102Y-34604774D01*
X68959744Y-34682795D01*
X68790226Y-34796063D01*
X68646063Y-34940226D01*
X68532795Y-35109744D01*
X68454774Y-35298102D01*
X68415000Y-35498061D01*
X68415000Y-35701939D01*
X68418564Y-35719857D01*
X67238072Y-36900349D01*
X67238072Y-36250000D01*
X67225812Y-36125518D01*
X67189502Y-36005820D01*
X67130537Y-35895506D01*
X67051185Y-35798815D01*
X66954494Y-35719463D01*
X66844180Y-35660498D01*
X66724482Y-35624188D01*
X66600000Y-35611928D01*
X65100000Y-35611928D01*
X64975518Y-35624188D01*
X64855820Y-35660498D01*
X64745506Y-35719463D01*
X64648815Y-35798815D01*
X64569463Y-35895506D01*
X64510498Y-36005820D01*
X64474188Y-36125518D01*
X64461928Y-36250000D01*
X60472351Y-36250000D01*
X60485000Y-36186411D01*
X60485000Y-35913589D01*
X60431775Y-35646011D01*
X60327371Y-35393957D01*
X60175799Y-35167114D01*
X59982886Y-34974201D01*
X59756043Y-34822629D01*
X59503989Y-34718225D01*
X59236411Y-34665000D01*
X58963589Y-34665000D01*
X58696011Y-34718225D01*
X58443957Y-34822629D01*
X58217114Y-34974201D01*
X58024201Y-35167114D01*
X57872629Y-35393957D01*
X57768225Y-35646011D01*
X57715000Y-35913589D01*
X37960000Y-35913589D01*
X37960000Y-34183408D01*
X38002412Y-34240269D01*
X38218645Y-34435178D01*
X38468748Y-34584157D01*
X38743109Y-34681481D01*
X38973000Y-34560814D01*
X38973000Y-33367000D01*
X39227000Y-33367000D01*
X39227000Y-34560814D01*
X39456891Y-34681481D01*
X39731252Y-34584157D01*
X39981355Y-34435178D01*
X40197588Y-34240269D01*
X40371641Y-34006920D01*
X40496825Y-33744099D01*
X40519145Y-33670512D01*
X72809783Y-33670512D01*
X72851213Y-33950130D01*
X72946397Y-34216292D01*
X73013329Y-34341514D01*
X73257298Y-34413097D01*
X74070395Y-33600000D01*
X74429605Y-33600000D01*
X75242702Y-34413097D01*
X75486671Y-34341514D01*
X75580743Y-34142702D01*
X94836903Y-34142702D01*
X94908486Y-34386671D01*
X95163996Y-34507571D01*
X95438184Y-34576300D01*
X95720512Y-34590217D01*
X96000130Y-34548787D01*
X96266292Y-34453603D01*
X96391514Y-34386671D01*
X96463097Y-34142702D01*
X95650000Y-33329605D01*
X94836903Y-34142702D01*
X75580743Y-34142702D01*
X75607571Y-34086004D01*
X75676300Y-33811816D01*
X75690217Y-33529488D01*
X75648787Y-33249870D01*
X75638289Y-33220512D01*
X94209783Y-33220512D01*
X94251213Y-33500130D01*
X94346397Y-33766292D01*
X94413329Y-33891514D01*
X94657298Y-33963097D01*
X95470395Y-33150000D01*
X95456253Y-33135858D01*
X95635858Y-32956253D01*
X95650000Y-32970395D01*
X95664143Y-32956253D01*
X95843748Y-33135858D01*
X95829605Y-33150000D01*
X96642702Y-33963097D01*
X96886671Y-33891514D01*
X97007571Y-33636004D01*
X97076300Y-33361816D01*
X97090217Y-33079488D01*
X97048787Y-32799870D01*
X96953603Y-32533708D01*
X96888384Y-32411691D01*
X96901185Y-32401185D01*
X96980537Y-32304494D01*
X97039502Y-32194180D01*
X97075812Y-32074482D01*
X97088072Y-31950000D01*
X97088072Y-30350000D01*
X97075812Y-30225518D01*
X97068072Y-30200000D01*
X103811928Y-30200000D01*
X103811928Y-31900000D01*
X103824188Y-32024482D01*
X103860498Y-32144180D01*
X103919463Y-32254494D01*
X103998815Y-32351185D01*
X104095506Y-32430537D01*
X104205820Y-32489502D01*
X104325518Y-32525812D01*
X104450000Y-32538072D01*
X106150000Y-32538072D01*
X106274482Y-32525812D01*
X106394180Y-32489502D01*
X106504494Y-32430537D01*
X106601185Y-32351185D01*
X106680537Y-32254494D01*
X106739502Y-32144180D01*
X106761513Y-32071620D01*
X106893368Y-32203475D01*
X107136589Y-32365990D01*
X107406842Y-32477932D01*
X107693740Y-32535000D01*
X107986260Y-32535000D01*
X108273158Y-32477932D01*
X108543411Y-32365990D01*
X108786632Y-32203475D01*
X108993475Y-31996632D01*
X109115195Y-31814466D01*
X109184822Y-31931355D01*
X109379731Y-32147588D01*
X109613080Y-32321641D01*
X109875901Y-32446825D01*
X110023110Y-32491476D01*
X110253000Y-32370155D01*
X110253000Y-31177000D01*
X110507000Y-31177000D01*
X110507000Y-32370155D01*
X110736890Y-32491476D01*
X110884099Y-32446825D01*
X111146920Y-32321641D01*
X111380269Y-32147588D01*
X111575178Y-31931355D01*
X111724157Y-31681252D01*
X111821481Y-31406891D01*
X111700814Y-31177000D01*
X110507000Y-31177000D01*
X110253000Y-31177000D01*
X110233000Y-31177000D01*
X110233000Y-31096890D01*
X117058524Y-31096890D01*
X117103175Y-31244099D01*
X117228359Y-31506920D01*
X117402412Y-31740269D01*
X117618645Y-31935178D01*
X117868748Y-32084157D01*
X118143109Y-32181481D01*
X118373000Y-32060814D01*
X118373000Y-30867000D01*
X117179845Y-30867000D01*
X117058524Y-31096890D01*
X110233000Y-31096890D01*
X110233000Y-30923000D01*
X110253000Y-30923000D01*
X110253000Y-29729845D01*
X110507000Y-29729845D01*
X110507000Y-30923000D01*
X111700814Y-30923000D01*
X111821481Y-30693109D01*
X111724157Y-30418748D01*
X111575178Y-30168645D01*
X111380269Y-29952412D01*
X111146920Y-29778359D01*
X110884099Y-29653175D01*
X110736890Y-29608524D01*
X110507000Y-29729845D01*
X110253000Y-29729845D01*
X110023110Y-29608524D01*
X109875901Y-29653175D01*
X109613080Y-29778359D01*
X109379731Y-29952412D01*
X109184822Y-30168645D01*
X109115195Y-30285534D01*
X108993475Y-30103368D01*
X108786632Y-29896525D01*
X108543411Y-29734010D01*
X108273158Y-29622068D01*
X107986260Y-29565000D01*
X107693740Y-29565000D01*
X107406842Y-29622068D01*
X107136589Y-29734010D01*
X106893368Y-29896525D01*
X106761513Y-30028380D01*
X106739502Y-29955820D01*
X106680537Y-29845506D01*
X106601185Y-29748815D01*
X106504494Y-29669463D01*
X106394180Y-29610498D01*
X106274482Y-29574188D01*
X106150000Y-29561928D01*
X104450000Y-29561928D01*
X104325518Y-29574188D01*
X104205820Y-29610498D01*
X104095506Y-29669463D01*
X103998815Y-29748815D01*
X103919463Y-29845506D01*
X103860498Y-29955820D01*
X103824188Y-30075518D01*
X103811928Y-30200000D01*
X97068072Y-30200000D01*
X97039502Y-30105820D01*
X96980537Y-29995506D01*
X96901185Y-29898815D01*
X96804494Y-29819463D01*
X96694180Y-29760498D01*
X96574482Y-29724188D01*
X96450000Y-29711928D01*
X94850000Y-29711928D01*
X94725518Y-29724188D01*
X94605820Y-29760498D01*
X94495506Y-29819463D01*
X94398815Y-29898815D01*
X94319463Y-29995506D01*
X94260498Y-30105820D01*
X94224188Y-30225518D01*
X94211928Y-30350000D01*
X94211928Y-31950000D01*
X94224188Y-32074482D01*
X94260498Y-32194180D01*
X94319463Y-32304494D01*
X94398815Y-32401185D01*
X94411758Y-32411807D01*
X94292429Y-32663996D01*
X94223700Y-32938184D01*
X94209783Y-33220512D01*
X75638289Y-33220512D01*
X75553603Y-32983708D01*
X75486671Y-32858486D01*
X75242702Y-32786903D01*
X74429605Y-33600000D01*
X74070395Y-33600000D01*
X73257298Y-32786903D01*
X73013329Y-32858486D01*
X72892429Y-33113996D01*
X72823700Y-33388184D01*
X72809783Y-33670512D01*
X40519145Y-33670512D01*
X40541476Y-33596890D01*
X40420155Y-33367000D01*
X39227000Y-33367000D01*
X38973000Y-33367000D01*
X38953000Y-33367000D01*
X38953000Y-33113000D01*
X38973000Y-33113000D01*
X38973000Y-33093000D01*
X39227000Y-33093000D01*
X39227000Y-33113000D01*
X40420155Y-33113000D01*
X40541476Y-32883110D01*
X40496825Y-32735901D01*
X40371641Y-32473080D01*
X40197588Y-32239731D01*
X40113534Y-32163966D01*
X40194180Y-32139502D01*
X40304494Y-32080537D01*
X40401185Y-32001185D01*
X40480537Y-31904494D01*
X40539502Y-31794180D01*
X40575812Y-31674482D01*
X40588072Y-31550000D01*
X40588072Y-29850000D01*
X40585605Y-29824947D01*
X56815000Y-29824947D01*
X56815000Y-30275053D01*
X56902811Y-30716510D01*
X57075059Y-31132353D01*
X57325125Y-31506603D01*
X57643397Y-31824875D01*
X58017647Y-32074941D01*
X58433490Y-32247189D01*
X58874947Y-32335000D01*
X59325053Y-32335000D01*
X59766510Y-32247189D01*
X60182353Y-32074941D01*
X60556603Y-31824875D01*
X60874875Y-31506603D01*
X61124941Y-31132353D01*
X61297189Y-30716510D01*
X61380037Y-30300000D01*
X72811928Y-30300000D01*
X72811928Y-31900000D01*
X72824188Y-32024482D01*
X72860498Y-32144180D01*
X72919463Y-32254494D01*
X72998815Y-32351185D01*
X73095506Y-32430537D01*
X73205820Y-32489502D01*
X73325518Y-32525812D01*
X73450000Y-32538072D01*
X73457215Y-32538072D01*
X73436903Y-32607298D01*
X74250000Y-33420395D01*
X75063097Y-32607298D01*
X75042785Y-32538072D01*
X75050000Y-32538072D01*
X75174482Y-32525812D01*
X75294180Y-32489502D01*
X75404494Y-32430537D01*
X75501185Y-32351185D01*
X75580537Y-32254494D01*
X75639502Y-32144180D01*
X75675812Y-32024482D01*
X75688072Y-31900000D01*
X75688072Y-30300000D01*
X75675812Y-30175518D01*
X75639502Y-30055820D01*
X75580537Y-29945506D01*
X75501185Y-29848815D01*
X75404494Y-29769463D01*
X75294180Y-29710498D01*
X75174482Y-29674188D01*
X75050000Y-29661928D01*
X73450000Y-29661928D01*
X73325518Y-29674188D01*
X73205820Y-29710498D01*
X73095506Y-29769463D01*
X72998815Y-29848815D01*
X72919463Y-29945506D01*
X72860498Y-30055820D01*
X72824188Y-30175518D01*
X72811928Y-30300000D01*
X61380037Y-30300000D01*
X61385000Y-30275053D01*
X61385000Y-29824947D01*
X61297189Y-29383490D01*
X61124941Y-28967647D01*
X60874875Y-28593397D01*
X60556603Y-28275125D01*
X60182353Y-28025059D01*
X59766510Y-27852811D01*
X59325053Y-27765000D01*
X58874947Y-27765000D01*
X58433490Y-27852811D01*
X58017647Y-28025059D01*
X57643397Y-28275125D01*
X57325125Y-28593397D01*
X57075059Y-28967647D01*
X56902811Y-29383490D01*
X56815000Y-29824947D01*
X40585605Y-29824947D01*
X40575812Y-29725518D01*
X40539502Y-29605820D01*
X40480537Y-29495506D01*
X40401185Y-29398815D01*
X40304494Y-29319463D01*
X40194180Y-29260498D01*
X40074482Y-29224188D01*
X39950000Y-29211928D01*
X38250000Y-29211928D01*
X38125518Y-29224188D01*
X38005820Y-29260498D01*
X37960000Y-29284990D01*
X37960000Y-26613589D01*
X64435000Y-26613589D01*
X64435000Y-26886411D01*
X64488225Y-27153989D01*
X64592629Y-27406043D01*
X64744201Y-27632886D01*
X64937114Y-27825799D01*
X65163957Y-27977371D01*
X65416011Y-28081775D01*
X65683589Y-28135000D01*
X65956411Y-28135000D01*
X66223989Y-28081775D01*
X66476043Y-27977371D01*
X66702886Y-27825799D01*
X66895799Y-27632886D01*
X67047371Y-27406043D01*
X67090000Y-27303127D01*
X67132629Y-27406043D01*
X67284201Y-27632886D01*
X67477114Y-27825799D01*
X67703957Y-27977371D01*
X67956011Y-28081775D01*
X68223589Y-28135000D01*
X68496411Y-28135000D01*
X68763989Y-28081775D01*
X69016043Y-27977371D01*
X69242886Y-27825799D01*
X69435799Y-27632886D01*
X69513555Y-27516517D01*
X69524188Y-27624482D01*
X69560498Y-27744180D01*
X69619463Y-27854494D01*
X69698815Y-27951185D01*
X69795506Y-28030537D01*
X69905820Y-28089502D01*
X70025518Y-28125812D01*
X70150000Y-28138072D01*
X71650000Y-28138072D01*
X71774482Y-28125812D01*
X71894180Y-28089502D01*
X72004494Y-28030537D01*
X72101185Y-27951185D01*
X72180537Y-27854494D01*
X72239502Y-27744180D01*
X72255117Y-27692702D01*
X74686903Y-27692702D01*
X74758486Y-27936671D01*
X75013996Y-28057571D01*
X75288184Y-28126300D01*
X75570512Y-28140217D01*
X75850130Y-28098787D01*
X76116292Y-28003603D01*
X76241514Y-27936671D01*
X76313097Y-27692702D01*
X75500000Y-26879605D01*
X74686903Y-27692702D01*
X72255117Y-27692702D01*
X72275812Y-27624482D01*
X72288072Y-27500000D01*
X72288072Y-26770512D01*
X74059783Y-26770512D01*
X74101213Y-27050130D01*
X74196397Y-27316292D01*
X74263329Y-27441514D01*
X74507298Y-27513097D01*
X75320395Y-26700000D01*
X75679605Y-26700000D01*
X76492702Y-27513097D01*
X76736671Y-27441514D01*
X76857571Y-27186004D01*
X76926300Y-26911816D01*
X76940217Y-26629488D01*
X76898787Y-26349870D01*
X76885813Y-26313589D01*
X92885000Y-26313589D01*
X92885000Y-26586411D01*
X92938225Y-26853989D01*
X93042629Y-27106043D01*
X93194201Y-27332886D01*
X93387114Y-27525799D01*
X93613957Y-27677371D01*
X93866011Y-27781775D01*
X94133589Y-27835000D01*
X94406411Y-27835000D01*
X94673989Y-27781775D01*
X94926043Y-27677371D01*
X95152886Y-27525799D01*
X95345799Y-27332886D01*
X95497371Y-27106043D01*
X95540000Y-27003127D01*
X95582629Y-27106043D01*
X95734201Y-27332886D01*
X95927114Y-27525799D01*
X96153957Y-27677371D01*
X96406011Y-27781775D01*
X96673589Y-27835000D01*
X96946411Y-27835000D01*
X97213989Y-27781775D01*
X97466043Y-27677371D01*
X97692886Y-27525799D01*
X97885799Y-27332886D01*
X97963555Y-27216517D01*
X97974188Y-27324482D01*
X98010498Y-27444180D01*
X98069463Y-27554494D01*
X98148815Y-27651185D01*
X98245506Y-27730537D01*
X98355820Y-27789502D01*
X98475518Y-27825812D01*
X98600000Y-27838072D01*
X100100000Y-27838072D01*
X100224482Y-27825812D01*
X100344180Y-27789502D01*
X100454494Y-27730537D01*
X100551185Y-27651185D01*
X100630537Y-27554494D01*
X100689502Y-27444180D01*
X100725812Y-27324482D01*
X100738072Y-27200000D01*
X100738072Y-25700000D01*
X100725812Y-25575518D01*
X100689502Y-25455820D01*
X100630537Y-25345506D01*
X100551185Y-25248815D01*
X100454494Y-25169463D01*
X100344180Y-25110498D01*
X100224482Y-25074188D01*
X100100000Y-25061928D01*
X98600000Y-25061928D01*
X98475518Y-25074188D01*
X98355820Y-25110498D01*
X98245506Y-25169463D01*
X98148815Y-25248815D01*
X98069463Y-25345506D01*
X98010498Y-25455820D01*
X97974188Y-25575518D01*
X97963555Y-25683483D01*
X97885799Y-25567114D01*
X97692886Y-25374201D01*
X97466043Y-25222629D01*
X97213989Y-25118225D01*
X96946411Y-25065000D01*
X96673589Y-25065000D01*
X96406011Y-25118225D01*
X96153957Y-25222629D01*
X95927114Y-25374201D01*
X95734201Y-25567114D01*
X95582629Y-25793957D01*
X95540000Y-25896873D01*
X95497371Y-25793957D01*
X95345799Y-25567114D01*
X95152886Y-25374201D01*
X94926043Y-25222629D01*
X94673989Y-25118225D01*
X94406411Y-25065000D01*
X94133589Y-25065000D01*
X93866011Y-25118225D01*
X93613957Y-25222629D01*
X93387114Y-25374201D01*
X93194201Y-25567114D01*
X93042629Y-25793957D01*
X92938225Y-26046011D01*
X92885000Y-26313589D01*
X76885813Y-26313589D01*
X76803603Y-26083708D01*
X76736671Y-25958486D01*
X76492702Y-25886903D01*
X75679605Y-26700000D01*
X75320395Y-26700000D01*
X74507298Y-25886903D01*
X74263329Y-25958486D01*
X74142429Y-26213996D01*
X74073700Y-26488184D01*
X74059783Y-26770512D01*
X72288072Y-26770512D01*
X72288072Y-26000000D01*
X72275812Y-25875518D01*
X72239502Y-25755820D01*
X72180537Y-25645506D01*
X72101185Y-25548815D01*
X72004494Y-25469463D01*
X71894180Y-25410498D01*
X71774482Y-25374188D01*
X71650000Y-25361928D01*
X70150000Y-25361928D01*
X70025518Y-25374188D01*
X69905820Y-25410498D01*
X69795506Y-25469463D01*
X69698815Y-25548815D01*
X69619463Y-25645506D01*
X69560498Y-25755820D01*
X69524188Y-25875518D01*
X69513555Y-25983483D01*
X69435799Y-25867114D01*
X69242886Y-25674201D01*
X69016043Y-25522629D01*
X68763989Y-25418225D01*
X68496411Y-25365000D01*
X68223589Y-25365000D01*
X67956011Y-25418225D01*
X67703957Y-25522629D01*
X67477114Y-25674201D01*
X67284201Y-25867114D01*
X67132629Y-26093957D01*
X67090000Y-26196873D01*
X67047371Y-26093957D01*
X66895799Y-25867114D01*
X66702886Y-25674201D01*
X66476043Y-25522629D01*
X66223989Y-25418225D01*
X65956411Y-25365000D01*
X65683589Y-25365000D01*
X65416011Y-25418225D01*
X65163957Y-25522629D01*
X64937114Y-25674201D01*
X64744201Y-25867114D01*
X64592629Y-26093957D01*
X64488225Y-26346011D01*
X64435000Y-26613589D01*
X37960000Y-26613589D01*
X37960000Y-23847499D01*
X38632106Y-23847499D01*
X38848228Y-24214258D01*
X39308105Y-24454938D01*
X39806098Y-24601275D01*
X40323071Y-24647648D01*
X40839159Y-24592273D01*
X41334526Y-24437279D01*
X41751772Y-24214258D01*
X41928948Y-23913589D01*
X57715000Y-23913589D01*
X57715000Y-24186411D01*
X57768225Y-24453989D01*
X57872629Y-24706043D01*
X58024201Y-24932886D01*
X58217114Y-25125799D01*
X58443957Y-25277371D01*
X58696011Y-25381775D01*
X58963589Y-25435000D01*
X59236411Y-25435000D01*
X59503989Y-25381775D01*
X59756043Y-25277371D01*
X59982886Y-25125799D01*
X60175799Y-24932886D01*
X60327371Y-24706043D01*
X60431775Y-24453989D01*
X60485000Y-24186411D01*
X60485000Y-23913589D01*
X60431775Y-23646011D01*
X60329875Y-23400000D01*
X74061928Y-23400000D01*
X74061928Y-25000000D01*
X74074188Y-25124482D01*
X74110498Y-25244180D01*
X74169463Y-25354494D01*
X74248815Y-25451185D01*
X74345506Y-25530537D01*
X74455820Y-25589502D01*
X74575518Y-25625812D01*
X74700000Y-25638072D01*
X74707215Y-25638072D01*
X74686903Y-25707298D01*
X75500000Y-26520395D01*
X76313097Y-25707298D01*
X76292785Y-25638072D01*
X76300000Y-25638072D01*
X76424482Y-25625812D01*
X76544180Y-25589502D01*
X76654494Y-25530537D01*
X76751185Y-25451185D01*
X76830537Y-25354494D01*
X76889502Y-25244180D01*
X76925812Y-25124482D01*
X76938072Y-25000000D01*
X76938072Y-23400000D01*
X76925812Y-23275518D01*
X76889502Y-23155820D01*
X76830537Y-23045506D01*
X76751185Y-22948815D01*
X76654494Y-22869463D01*
X76544180Y-22810498D01*
X76424482Y-22774188D01*
X76300000Y-22761928D01*
X74700000Y-22761928D01*
X74575518Y-22774188D01*
X74455820Y-22810498D01*
X74345506Y-22869463D01*
X74248815Y-22948815D01*
X74169463Y-23045506D01*
X74110498Y-23155820D01*
X74074188Y-23275518D01*
X74061928Y-23400000D01*
X60329875Y-23400000D01*
X60327371Y-23393957D01*
X60175799Y-23167114D01*
X59982886Y-22974201D01*
X59756043Y-22822629D01*
X59503989Y-22718225D01*
X59236411Y-22665000D01*
X58963589Y-22665000D01*
X58696011Y-22718225D01*
X58443957Y-22822629D01*
X58217114Y-22974201D01*
X58024201Y-23167114D01*
X57872629Y-23393957D01*
X57768225Y-23646011D01*
X57715000Y-23913589D01*
X41928948Y-23913589D01*
X41967894Y-23847499D01*
X40300000Y-22179605D01*
X38632106Y-23847499D01*
X37960000Y-23847499D01*
X37960000Y-23216524D01*
X38085742Y-23451772D01*
X38452501Y-23667894D01*
X40120395Y-22000000D01*
X40479605Y-22000000D01*
X42147499Y-23667894D01*
X42514258Y-23451772D01*
X42754938Y-22991895D01*
X42901275Y-22493902D01*
X42947648Y-21976929D01*
X42892273Y-21460841D01*
X42737279Y-20965474D01*
X42514258Y-20548228D01*
X42147499Y-20332106D01*
X40479605Y-22000000D01*
X40120395Y-22000000D01*
X38452501Y-20332106D01*
X38085742Y-20548228D01*
X37960000Y-20788488D01*
X37960000Y-19660000D01*
X39083476Y-19660000D01*
X38848228Y-19785742D01*
G37*
X38848228Y-19785742D02*
X38632106Y-20152501D01*
X40300000Y-21820395D01*
X41967894Y-20152501D01*
X41751772Y-19785742D01*
X41511512Y-19660000D01*
X116083476Y-19660000D01*
X115848228Y-19785742D01*
X115632106Y-20152501D01*
X117300000Y-21820395D01*
X118967894Y-20152501D01*
X118751772Y-19785742D01*
X118511512Y-19660000D01*
X119640000Y-19660000D01*
X119640000Y-20783477D01*
X119514258Y-20548228D01*
X119147499Y-20332106D01*
X117479605Y-22000000D01*
X119147499Y-23667894D01*
X119514258Y-23451772D01*
X119640000Y-23211511D01*
X119640000Y-26784990D01*
X119594180Y-26760498D01*
X119474482Y-26724188D01*
X119350000Y-26711928D01*
X117650000Y-26711928D01*
X117525518Y-26724188D01*
X117405820Y-26760498D01*
X117295506Y-26819463D01*
X117198815Y-26898815D01*
X117119463Y-26995506D01*
X117082317Y-27065000D01*
X116920132Y-27065000D01*
X115685000Y-25829869D01*
X115685000Y-23937260D01*
X115848228Y-24214258D01*
X116308105Y-24454938D01*
X116806098Y-24601275D01*
X117323071Y-24647648D01*
X117839159Y-24592273D01*
X118334526Y-24437279D01*
X118751772Y-24214258D01*
X118967894Y-23847499D01*
X117300000Y-22179605D01*
X117285858Y-22193748D01*
X117106253Y-22014143D01*
X117120395Y-22000000D01*
X115452501Y-20332106D01*
X115085742Y-20548228D01*
X114845062Y-21008105D01*
X114698725Y-21506098D01*
X114652352Y-22023071D01*
X114655255Y-22050123D01*
X113041996Y-20436865D01*
X113006449Y-20393551D01*
X112833623Y-20251716D01*
X112636447Y-20146324D01*
X112422499Y-20081423D01*
X112255752Y-20065000D01*
X112255751Y-20065000D01*
X112200000Y-20059509D01*
X112144249Y-20065000D01*
X104555752Y-20065000D01*
X104500000Y-20059509D01*
X104444249Y-20065000D01*
X71405751Y-20065000D01*
X71349999Y-20059509D01*
X71294248Y-20065000D01*
X71127501Y-20081423D01*
X70913553Y-20146324D01*
X70716377Y-20251716D01*
X70543551Y-20393551D01*
X70508004Y-20436865D01*
X70058012Y-20886857D01*
X69951717Y-21016378D01*
X69846324Y-21213554D01*
X69781423Y-21427502D01*
X69759509Y-21650000D01*
X69781423Y-21872498D01*
X69846324Y-22086446D01*
X69951717Y-22283622D01*
X70093552Y-22456448D01*
X70266378Y-22598283D01*
X70463554Y-22703676D01*
X70677502Y-22768577D01*
X70900000Y-22790491D01*
X71122498Y-22768577D01*
X71336446Y-22703676D01*
X71533622Y-22598283D01*
X71663143Y-22491988D01*
X71820131Y-22335000D01*
X103365001Y-22335000D01*
X103365000Y-27405751D01*
X103381423Y-27572498D01*
X103446324Y-27786446D01*
X103551716Y-27983623D01*
X103693551Y-28156449D01*
X103866377Y-28298284D01*
X104063553Y-28403676D01*
X104277501Y-28468577D01*
X104500000Y-28490491D01*
X104722498Y-28468577D01*
X104936446Y-28403676D01*
X105133623Y-28298284D01*
X105306449Y-28156449D01*
X105448284Y-27983623D01*
X105550332Y-27792702D01*
X108536903Y-27792702D01*
X108608486Y-28036671D01*
X108863996Y-28157571D01*
X109138184Y-28226300D01*
X109420512Y-28240217D01*
X109700130Y-28198787D01*
X109966292Y-28103603D01*
X110091514Y-28036671D01*
X110163097Y-27792702D01*
X109350000Y-26979605D01*
X108536903Y-27792702D01*
X105550332Y-27792702D01*
X105553676Y-27786447D01*
X105618577Y-27572499D01*
X105635000Y-27405752D01*
X105635000Y-26870512D01*
X107909783Y-26870512D01*
X107951213Y-27150130D01*
X108046397Y-27416292D01*
X108113329Y-27541514D01*
X108357298Y-27613097D01*
X109170395Y-26800000D01*
X109529605Y-26800000D01*
X110342702Y-27613097D01*
X110586671Y-27541514D01*
X110707571Y-27286004D01*
X110776300Y-27011816D01*
X110790217Y-26729488D01*
X110748787Y-26449870D01*
X110653603Y-26183708D01*
X110586671Y-26058486D01*
X110342702Y-25986903D01*
X109529605Y-26800000D01*
X109170395Y-26800000D01*
X108357298Y-25986903D01*
X108113329Y-26058486D01*
X107992429Y-26313996D01*
X107923700Y-26588184D01*
X107909783Y-26870512D01*
X105635000Y-26870512D01*
X105635000Y-23500000D01*
X107911928Y-23500000D01*
X107911928Y-25100000D01*
X107924188Y-25224482D01*
X107960498Y-25344180D01*
X108019463Y-25454494D01*
X108098815Y-25551185D01*
X108195506Y-25630537D01*
X108305820Y-25689502D01*
X108425518Y-25725812D01*
X108550000Y-25738072D01*
X108557215Y-25738072D01*
X108536903Y-25807298D01*
X109350000Y-26620395D01*
X110163097Y-25807298D01*
X110142785Y-25738072D01*
X110150000Y-25738072D01*
X110274482Y-25725812D01*
X110394180Y-25689502D01*
X110504494Y-25630537D01*
X110601185Y-25551185D01*
X110680537Y-25454494D01*
X110739502Y-25344180D01*
X110775812Y-25224482D01*
X110788072Y-25100000D01*
X110788072Y-23500000D01*
X110775812Y-23375518D01*
X110739502Y-23255820D01*
X110680537Y-23145506D01*
X110601185Y-23048815D01*
X110504494Y-22969463D01*
X110394180Y-22910498D01*
X110274482Y-22874188D01*
X110150000Y-22861928D01*
X108550000Y-22861928D01*
X108425518Y-22874188D01*
X108305820Y-22910498D01*
X108195506Y-22969463D01*
X108098815Y-23048815D01*
X108019463Y-23145506D01*
X107960498Y-23255820D01*
X107924188Y-23375518D01*
X107911928Y-23500000D01*
X105635000Y-23500000D01*
X105635000Y-22335000D01*
X111729869Y-22335000D01*
X113415000Y-24020132D01*
X113415001Y-26244239D01*
X113409509Y-26300000D01*
X113431423Y-26522498D01*
X113496324Y-26736446D01*
X113540698Y-26819463D01*
X113601717Y-26933623D01*
X113743552Y-27106449D01*
X113786860Y-27141991D01*
X115608009Y-28963141D01*
X115643551Y-29006449D01*
X115816377Y-29148284D01*
X116013553Y-29253676D01*
X116227501Y-29318577D01*
X116450000Y-29340491D01*
X116505752Y-29335000D01*
X117082317Y-29335000D01*
X117119463Y-29404494D01*
X117198815Y-29501185D01*
X117295506Y-29580537D01*
X117405820Y-29639502D01*
X117486466Y-29663966D01*
X117402412Y-29739731D01*
X117228359Y-29973080D01*
X117103175Y-30235901D01*
X117058524Y-30383110D01*
X117179845Y-30613000D01*
X118373000Y-30613000D01*
X118373000Y-30593000D01*
X118627000Y-30593000D01*
X118627000Y-30613000D01*
X118647000Y-30613000D01*
X118647000Y-30867000D01*
X118627000Y-30867000D01*
X118627000Y-32060814D01*
X118856891Y-32181481D01*
X119131252Y-32084157D01*
X119381355Y-31935178D01*
X119597588Y-31740269D01*
X119640000Y-31683408D01*
X119640001Y-44783478D01*
X119514258Y-44548228D01*
X119147499Y-44332106D01*
X117479605Y-46000000D01*
X119147499Y-47667894D01*
X119514258Y-47451772D01*
X119640001Y-47211510D01*
X119640001Y-48340000D01*
X118516524Y-48340000D01*
X118751772Y-48214258D01*
X118967894Y-47847499D01*
X117300000Y-46179605D01*
X115632106Y-47847499D01*
X115848228Y-48214258D01*
X116088488Y-48340000D01*
X41516524Y-48340000D01*
X41751772Y-48214258D01*
X41967894Y-47847499D01*
X40300000Y-46179605D01*
X38632106Y-47847499D01*
X38848228Y-48214258D01*
X39088488Y-48340000D01*
X37960000Y-48340000D01*
X37960000Y-47216524D01*
X38085742Y-47451772D01*
X38452501Y-47667894D01*
X40120395Y-46000000D01*
X40479605Y-46000000D01*
X42147499Y-47667894D01*
X42514258Y-47451772D01*
X42754938Y-46991895D01*
X42901275Y-46493902D01*
X42947648Y-45976929D01*
X42901840Y-45550000D01*
X48761928Y-45550000D01*
X48761928Y-47250000D01*
X48774188Y-47374482D01*
X48810498Y-47494180D01*
X48869463Y-47604494D01*
X48948815Y-47701185D01*
X49045506Y-47780537D01*
X49155820Y-47839502D01*
X49275518Y-47875812D01*
X49400000Y-47888072D01*
X51100000Y-47888072D01*
X51224482Y-47875812D01*
X51344180Y-47839502D01*
X51454494Y-47780537D01*
X51551185Y-47701185D01*
X51630537Y-47604494D01*
X51689502Y-47494180D01*
X51713966Y-47413534D01*
X51789731Y-47497588D01*
X52023080Y-47671641D01*
X52285901Y-47796825D01*
X52433110Y-47841476D01*
X52663000Y-47720155D01*
X52663000Y-46527000D01*
X52917000Y-46527000D01*
X52917000Y-47720155D01*
X53146890Y-47841476D01*
X53294099Y-47796825D01*
X53556920Y-47671641D01*
X53790269Y-47497588D01*
X53985178Y-47281355D01*
X54008202Y-47242702D01*
X71486903Y-47242702D01*
X71558486Y-47486671D01*
X71813996Y-47607571D01*
X72088184Y-47676300D01*
X72370512Y-47690217D01*
X72650130Y-47648787D01*
X72916292Y-47553603D01*
X73041514Y-47486671D01*
X73113097Y-47242702D01*
X77786903Y-47242702D01*
X77858486Y-47486671D01*
X78113996Y-47607571D01*
X78388184Y-47676300D01*
X78670512Y-47690217D01*
X78950130Y-47648787D01*
X79216292Y-47553603D01*
X79341514Y-47486671D01*
X79413097Y-47242702D01*
X78600000Y-46429605D01*
X77786903Y-47242702D01*
X73113097Y-47242702D01*
X72300000Y-46429605D01*
X71486903Y-47242702D01*
X54008202Y-47242702D01*
X54134157Y-47031252D01*
X54231481Y-46756891D01*
X54110814Y-46527000D01*
X52917000Y-46527000D01*
X52663000Y-46527000D01*
X52643000Y-46527000D01*
X52643000Y-46320512D01*
X70859783Y-46320512D01*
X70901213Y-46600130D01*
X70996397Y-46866292D01*
X71063329Y-46991514D01*
X71307298Y-47063097D01*
X72120395Y-46250000D01*
X72479605Y-46250000D01*
X73292702Y-47063097D01*
X73536671Y-46991514D01*
X73657571Y-46736004D01*
X73726300Y-46461816D01*
X73733265Y-46320512D01*
X77159783Y-46320512D01*
X77201213Y-46600130D01*
X77296397Y-46866292D01*
X77363329Y-46991514D01*
X77607298Y-47063097D01*
X78420395Y-46250000D01*
X78406253Y-46235858D01*
X78585858Y-46056253D01*
X78600000Y-46070395D01*
X78614143Y-46056253D01*
X78793748Y-46235858D01*
X78779605Y-46250000D01*
X79592702Y-47063097D01*
X79836671Y-46991514D01*
X79957571Y-46736004D01*
X80026300Y-46461816D01*
X80040217Y-46179488D01*
X80014907Y-46008665D01*
X92815000Y-46008665D01*
X92815000Y-46291335D01*
X92870147Y-46568574D01*
X92978320Y-46829727D01*
X93135363Y-47064759D01*
X93335241Y-47264637D01*
X93570273Y-47421680D01*
X93831426Y-47529853D01*
X94108665Y-47585000D01*
X94391335Y-47585000D01*
X94668574Y-47529853D01*
X94929727Y-47421680D01*
X95164759Y-47264637D01*
X95364637Y-47064759D01*
X95521680Y-46829727D01*
X95629853Y-46568574D01*
X95685000Y-46291335D01*
X95685000Y-46008665D01*
X95629853Y-45731426D01*
X95521680Y-45470273D01*
X95508135Y-45450000D01*
X104711928Y-45450000D01*
X104711928Y-47150000D01*
X104724188Y-47274482D01*
X104760498Y-47394180D01*
X104819463Y-47504494D01*
X104898815Y-47601185D01*
X104995506Y-47680537D01*
X105105820Y-47739502D01*
X105225518Y-47775812D01*
X105350000Y-47788072D01*
X107050000Y-47788072D01*
X107174482Y-47775812D01*
X107294180Y-47739502D01*
X107404494Y-47680537D01*
X107501185Y-47601185D01*
X107580537Y-47504494D01*
X107639502Y-47394180D01*
X107675812Y-47274482D01*
X107688072Y-47150000D01*
X107688072Y-46023071D01*
X114652352Y-46023071D01*
X114707727Y-46539159D01*
X114862721Y-47034526D01*
X115085742Y-47451772D01*
X115452501Y-47667894D01*
X117120395Y-46000000D01*
X115452501Y-44332106D01*
X115085742Y-44548228D01*
X114845062Y-45008105D01*
X114698725Y-45506098D01*
X114652352Y-46023071D01*
X107688072Y-46023071D01*
X107688072Y-45450000D01*
X107675812Y-45325518D01*
X107639502Y-45205820D01*
X107580537Y-45095506D01*
X107501185Y-44998815D01*
X107404494Y-44919463D01*
X107294180Y-44860498D01*
X107213534Y-44836034D01*
X107297588Y-44760269D01*
X107471641Y-44526920D01*
X107596825Y-44264099D01*
X107630674Y-44152501D01*
X115632106Y-44152501D01*
X117300000Y-45820395D01*
X118967894Y-44152501D01*
X118751772Y-43785742D01*
X118291895Y-43545062D01*
X117793902Y-43398725D01*
X117276929Y-43352352D01*
X116760841Y-43407727D01*
X116265474Y-43562721D01*
X115848228Y-43785742D01*
X115632106Y-44152501D01*
X107630674Y-44152501D01*
X107641476Y-44116890D01*
X107520155Y-43887000D01*
X106327000Y-43887000D01*
X106327000Y-43907000D01*
X106073000Y-43907000D01*
X106073000Y-43887000D01*
X104879845Y-43887000D01*
X104758524Y-44116890D01*
X104803175Y-44264099D01*
X104928359Y-44526920D01*
X105102412Y-44760269D01*
X105186466Y-44836034D01*
X105105820Y-44860498D01*
X104995506Y-44919463D01*
X104898815Y-44998815D01*
X104819463Y-45095506D01*
X104760498Y-45205820D01*
X104724188Y-45325518D01*
X104711928Y-45450000D01*
X95508135Y-45450000D01*
X95364637Y-45235241D01*
X95164759Y-45035363D01*
X94929727Y-44878320D01*
X94668574Y-44770147D01*
X94391335Y-44715000D01*
X94108665Y-44715000D01*
X93831426Y-44770147D01*
X93570273Y-44878320D01*
X93335241Y-45035363D01*
X93135363Y-45235241D01*
X92978320Y-45470273D01*
X92870147Y-45731426D01*
X92815000Y-46008665D01*
X80014907Y-46008665D01*
X79998787Y-45899870D01*
X79903603Y-45633708D01*
X79838384Y-45511691D01*
X79851185Y-45501185D01*
X79930537Y-45404494D01*
X79989502Y-45294180D01*
X80025812Y-45174482D01*
X80038072Y-45050000D01*
X80038072Y-43450000D01*
X80025812Y-43325518D01*
X79989502Y-43205820D01*
X79930537Y-43095506D01*
X79851185Y-42998815D01*
X79754494Y-42919463D01*
X79644180Y-42860498D01*
X79524482Y-42824188D01*
X79400000Y-42811928D01*
X77800000Y-42811928D01*
X77675518Y-42824188D01*
X77555820Y-42860498D01*
X77445506Y-42919463D01*
X77348815Y-42998815D01*
X77269463Y-43095506D01*
X77210498Y-43205820D01*
X77174188Y-43325518D01*
X77161928Y-43450000D01*
X77161928Y-45050000D01*
X77174188Y-45174482D01*
X77210498Y-45294180D01*
X77269463Y-45404494D01*
X77348815Y-45501185D01*
X77361758Y-45511807D01*
X77242429Y-45763996D01*
X77173700Y-46038184D01*
X77159783Y-46320512D01*
X73733265Y-46320512D01*
X73740217Y-46179488D01*
X73698787Y-45899870D01*
X73603603Y-45633708D01*
X73536671Y-45508486D01*
X73292702Y-45436903D01*
X72479605Y-46250000D01*
X72120395Y-46250000D01*
X71307298Y-45436903D01*
X71063329Y-45508486D01*
X70942429Y-45763996D01*
X70873700Y-46038184D01*
X70859783Y-46320512D01*
X52643000Y-46320512D01*
X52643000Y-46273000D01*
X52663000Y-46273000D01*
X52663000Y-45079845D01*
X52917000Y-45079845D01*
X52917000Y-46273000D01*
X54110814Y-46273000D01*
X54231481Y-46043109D01*
X54134157Y-45768748D01*
X53985178Y-45518645D01*
X53790269Y-45302412D01*
X53556920Y-45128359D01*
X53294099Y-45003175D01*
X53146890Y-44958524D01*
X52917000Y-45079845D01*
X52663000Y-45079845D01*
X52433110Y-44958524D01*
X52285901Y-45003175D01*
X52023080Y-45128359D01*
X51789731Y-45302412D01*
X51713966Y-45386466D01*
X51689502Y-45305820D01*
X51630537Y-45195506D01*
X51551185Y-45098815D01*
X51454494Y-45019463D01*
X51344180Y-44960498D01*
X51224482Y-44924188D01*
X51100000Y-44911928D01*
X49400000Y-44911928D01*
X49275518Y-44924188D01*
X49155820Y-44960498D01*
X49045506Y-45019463D01*
X48948815Y-45098815D01*
X48869463Y-45195506D01*
X48810498Y-45305820D01*
X48774188Y-45425518D01*
X48761928Y-45550000D01*
X42901840Y-45550000D01*
X42892273Y-45460841D01*
X42737279Y-44965474D01*
X42514258Y-44548228D01*
X42147499Y-44332106D01*
X40479605Y-46000000D01*
X40120395Y-46000000D01*
X38452501Y-44332106D01*
X38085742Y-44548228D01*
X37960000Y-44788488D01*
X37960000Y-44152501D01*
X38632106Y-44152501D01*
X40300000Y-45820395D01*
X41967894Y-44152501D01*
X41751772Y-43785742D01*
X41291895Y-43545062D01*
X40793902Y-43398725D01*
X40276929Y-43352352D01*
X39760841Y-43407727D01*
X39265474Y-43562721D01*
X38848228Y-43785742D01*
X38632106Y-44152501D01*
X37960000Y-44152501D01*
X37960000Y-41250000D01*
X57661928Y-41250000D01*
X57661928Y-42850000D01*
X57674188Y-42974482D01*
X57710498Y-43094180D01*
X57769463Y-43204494D01*
X57848815Y-43301185D01*
X57945506Y-43380537D01*
X58055820Y-43439502D01*
X58175518Y-43475812D01*
X58300000Y-43488072D01*
X59900000Y-43488072D01*
X60024482Y-43475812D01*
X60144180Y-43439502D01*
X60254494Y-43380537D01*
X60351185Y-43301185D01*
X60430537Y-43204494D01*
X60489502Y-43094180D01*
X60525812Y-42974482D01*
X60538072Y-42850000D01*
X60538072Y-41250000D01*
X60525812Y-41125518D01*
X60489502Y-41005820D01*
X60430537Y-40895506D01*
X60351185Y-40798815D01*
X60254494Y-40719463D01*
X60144180Y-40660498D01*
X60048057Y-40631339D01*
X60214637Y-40464759D01*
X60371680Y-40229727D01*
X60479853Y-39968574D01*
X60535000Y-39691335D01*
X60535000Y-39408665D01*
X60479853Y-39131426D01*
X60371680Y-38870273D01*
X60214637Y-38635241D01*
X60014759Y-38435363D01*
X59779727Y-38278320D01*
X59518574Y-38170147D01*
X59241335Y-38115000D01*
X58958665Y-38115000D01*
X58681426Y-38170147D01*
X58420273Y-38278320D01*
X58185241Y-38435363D01*
X57985363Y-38635241D01*
X57828320Y-38870273D01*
X57720147Y-39131426D01*
X57665000Y-39408665D01*
X57665000Y-39691335D01*
X57720147Y-39968574D01*
X57828320Y-40229727D01*
X57985363Y-40464759D01*
X58151943Y-40631339D01*
X58055820Y-40660498D01*
X57945506Y-40719463D01*
X57848815Y-40798815D01*
X57769463Y-40895506D01*
X57710498Y-41005820D01*
X57674188Y-41125518D01*
X57661928Y-41250000D01*
X37960000Y-41250000D01*
X37960000Y-35913589D01*
X57715000Y-35913589D01*
X57715000Y-36186411D01*
X57768225Y-36453989D01*
X57872629Y-36706043D01*
X58024201Y-36932886D01*
X58217114Y-37125799D01*
X58443957Y-37277371D01*
X58696011Y-37381775D01*
X58963589Y-37435000D01*
X59236411Y-37435000D01*
X59503989Y-37381775D01*
X59756043Y-37277371D01*
X59982886Y-37125799D01*
X60175799Y-36932886D01*
X60327371Y-36706043D01*
X60431775Y-36453989D01*
X60472351Y-36250000D01*
X64461928Y-36250000D01*
X64461928Y-37750000D01*
X64474188Y-37874482D01*
X64510498Y-37994180D01*
X64569463Y-38104494D01*
X64648815Y-38201185D01*
X64745506Y-38280537D01*
X64855820Y-38339502D01*
X64975518Y-38375812D01*
X65083483Y-38386445D01*
X64967114Y-38464201D01*
X64774201Y-38657114D01*
X64622629Y-38883957D01*
X64518225Y-39136011D01*
X64465000Y-39403589D01*
X64465000Y-39676411D01*
X64518225Y-39943989D01*
X64622629Y-40196043D01*
X64774201Y-40422886D01*
X64967114Y-40615799D01*
X65193957Y-40767371D01*
X65296873Y-40810000D01*
X65193957Y-40852629D01*
X64967114Y-41004201D01*
X64774201Y-41197114D01*
X64622629Y-41423957D01*
X64518225Y-41676011D01*
X64465000Y-41943589D01*
X64465000Y-42216411D01*
X64518225Y-42483989D01*
X64622629Y-42736043D01*
X64774201Y-42962886D01*
X64967114Y-43155799D01*
X65193957Y-43307371D01*
X65446011Y-43411775D01*
X65713589Y-43465000D01*
X65986411Y-43465000D01*
X66253989Y-43411775D01*
X66506043Y-43307371D01*
X66732886Y-43155799D01*
X66925799Y-42962886D01*
X66934409Y-42950000D01*
X70861928Y-42950000D01*
X70861928Y-44550000D01*
X70874188Y-44674482D01*
X70910498Y-44794180D01*
X70969463Y-44904494D01*
X71048815Y-45001185D01*
X71145506Y-45080537D01*
X71255820Y-45139502D01*
X71375518Y-45175812D01*
X71500000Y-45188072D01*
X71507215Y-45188072D01*
X71486903Y-45257298D01*
X72300000Y-46070395D01*
X73113097Y-45257298D01*
X73092785Y-45188072D01*
X73100000Y-45188072D01*
X73224482Y-45175812D01*
X73344180Y-45139502D01*
X73454494Y-45080537D01*
X73551185Y-45001185D01*
X73630537Y-44904494D01*
X73689502Y-44794180D01*
X73725812Y-44674482D01*
X73738072Y-44550000D01*
X73738072Y-42950000D01*
X73725812Y-42825518D01*
X73689502Y-42705820D01*
X73630537Y-42595506D01*
X73551185Y-42498815D01*
X73454494Y-42419463D01*
X73344180Y-42360498D01*
X73224482Y-42324188D01*
X73100000Y-42311928D01*
X71500000Y-42311928D01*
X71375518Y-42324188D01*
X71255820Y-42360498D01*
X71145506Y-42419463D01*
X71048815Y-42498815D01*
X70969463Y-42595506D01*
X70910498Y-42705820D01*
X70874188Y-42825518D01*
X70861928Y-42950000D01*
X66934409Y-42950000D01*
X67077371Y-42736043D01*
X67181775Y-42483989D01*
X67235000Y-42216411D01*
X67235000Y-41943589D01*
X67181775Y-41676011D01*
X67077371Y-41423957D01*
X66925799Y-41197114D01*
X66732886Y-41004201D01*
X66506043Y-40852629D01*
X66403127Y-40810000D01*
X66506043Y-40767371D01*
X66732886Y-40615799D01*
X66925799Y-40422886D01*
X67077371Y-40196043D01*
X67181775Y-39943989D01*
X67235000Y-39676411D01*
X67235000Y-39406578D01*
X70045049Y-36596530D01*
X70078817Y-36568817D01*
X70121175Y-36517205D01*
X70189411Y-36434059D01*
X70236743Y-36345506D01*
X70271589Y-36280313D01*
X70297678Y-36194312D01*
X70367205Y-36090256D01*
X70445226Y-35901898D01*
X70485000Y-35701939D01*
X70485000Y-35498061D01*
X70455550Y-35350000D01*
X77211928Y-35350000D01*
X77211928Y-36850000D01*
X77224188Y-36974482D01*
X77260498Y-37094180D01*
X77319463Y-37204494D01*
X77398815Y-37301185D01*
X77495506Y-37380537D01*
X77605820Y-37439502D01*
X77725518Y-37475812D01*
X77833483Y-37486445D01*
X77717114Y-37564201D01*
X77524201Y-37757114D01*
X77372629Y-37983957D01*
X77268225Y-38236011D01*
X77215000Y-38503589D01*
X77215000Y-38776411D01*
X77268225Y-39043989D01*
X77372629Y-39296043D01*
X77524201Y-39522886D01*
X77717114Y-39715799D01*
X77943957Y-39867371D01*
X78046873Y-39910000D01*
X77943957Y-39952629D01*
X77717114Y-40104201D01*
X77524201Y-40297114D01*
X77372629Y-40523957D01*
X77268225Y-40776011D01*
X77215000Y-41043589D01*
X77215000Y-41316411D01*
X77268225Y-41583989D01*
X77372629Y-41836043D01*
X77524201Y-42062886D01*
X77717114Y-42255799D01*
X77943957Y-42407371D01*
X78196011Y-42511775D01*
X78463589Y-42565000D01*
X78736411Y-42565000D01*
X79003989Y-42511775D01*
X79256043Y-42407371D01*
X79482886Y-42255799D01*
X79675799Y-42062886D01*
X79818045Y-41850000D01*
X92811928Y-41850000D01*
X92811928Y-43450000D01*
X92824188Y-43574482D01*
X92860498Y-43694180D01*
X92919463Y-43804494D01*
X92998815Y-43901185D01*
X93095506Y-43980537D01*
X93205820Y-44039502D01*
X93325518Y-44075812D01*
X93450000Y-44088072D01*
X95050000Y-44088072D01*
X95174482Y-44075812D01*
X95294180Y-44039502D01*
X95404494Y-43980537D01*
X95501185Y-43901185D01*
X95580537Y-43804494D01*
X95639502Y-43694180D01*
X95675812Y-43574482D01*
X95688072Y-43450000D01*
X95688072Y-43403110D01*
X104758524Y-43403110D01*
X104879845Y-43633000D01*
X106073000Y-43633000D01*
X106073000Y-42439186D01*
X106327000Y-42439186D01*
X106327000Y-43633000D01*
X107520155Y-43633000D01*
X107641476Y-43403110D01*
X107596825Y-43255901D01*
X107471641Y-42993080D01*
X107297588Y-42759731D01*
X107278696Y-42742702D01*
X111186903Y-42742702D01*
X111258486Y-42986671D01*
X111513996Y-43107571D01*
X111788184Y-43176300D01*
X112070512Y-43190217D01*
X112350130Y-43148787D01*
X112616292Y-43053603D01*
X112741514Y-42986671D01*
X112813097Y-42742702D01*
X112000000Y-41929605D01*
X111186903Y-42742702D01*
X107278696Y-42742702D01*
X107081355Y-42564822D01*
X106831252Y-42415843D01*
X106556891Y-42318519D01*
X106327000Y-42439186D01*
X106073000Y-42439186D01*
X105843109Y-42318519D01*
X105568748Y-42415843D01*
X105318645Y-42564822D01*
X105102412Y-42759731D01*
X104928359Y-42993080D01*
X104803175Y-43255901D01*
X104758524Y-43403110D01*
X95688072Y-43403110D01*
X95688072Y-41850000D01*
X95685168Y-41820512D01*
X110559783Y-41820512D01*
X110601213Y-42100130D01*
X110696397Y-42366292D01*
X110763329Y-42491514D01*
X111007298Y-42563097D01*
X111820395Y-41750000D01*
X112179605Y-41750000D01*
X112992702Y-42563097D01*
X113236671Y-42491514D01*
X113357571Y-42236004D01*
X113426300Y-41961816D01*
X113440217Y-41679488D01*
X113398787Y-41399870D01*
X113303603Y-41133708D01*
X113236671Y-41008486D01*
X112992702Y-40936903D01*
X112179605Y-41750000D01*
X111820395Y-41750000D01*
X111007298Y-40936903D01*
X110763329Y-41008486D01*
X110642429Y-41263996D01*
X110573700Y-41538184D01*
X110559783Y-41820512D01*
X95685168Y-41820512D01*
X95675812Y-41725518D01*
X95639502Y-41605820D01*
X95580537Y-41495506D01*
X95501185Y-41398815D01*
X95404494Y-41319463D01*
X95294180Y-41260498D01*
X95174482Y-41224188D01*
X95050000Y-41211928D01*
X93450000Y-41211928D01*
X93325518Y-41224188D01*
X93205820Y-41260498D01*
X93095506Y-41319463D01*
X92998815Y-41398815D01*
X92919463Y-41495506D01*
X92860498Y-41605820D01*
X92824188Y-41725518D01*
X92811928Y-41850000D01*
X79818045Y-41850000D01*
X79827371Y-41836043D01*
X79931775Y-41583989D01*
X79985000Y-41316411D01*
X79985000Y-41043589D01*
X79931775Y-40776011D01*
X79924024Y-40757298D01*
X111186903Y-40757298D01*
X112000000Y-41570395D01*
X112813097Y-40757298D01*
X112741514Y-40513329D01*
X112486004Y-40392429D01*
X112211816Y-40323700D01*
X111929488Y-40309783D01*
X111649870Y-40351213D01*
X111383708Y-40446397D01*
X111258486Y-40513329D01*
X111186903Y-40757298D01*
X79924024Y-40757298D01*
X79827371Y-40523957D01*
X79675799Y-40297114D01*
X79482886Y-40104201D01*
X79256043Y-39952629D01*
X79153127Y-39910000D01*
X79256043Y-39867371D01*
X79482886Y-39715799D01*
X79675799Y-39522886D01*
X79827371Y-39296043D01*
X79931775Y-39043989D01*
X79985000Y-38776411D01*
X79985000Y-38503589D01*
X79931775Y-38236011D01*
X79827371Y-37983957D01*
X79675799Y-37757114D01*
X79489197Y-37570512D01*
X95959783Y-37570512D01*
X96001213Y-37850130D01*
X96096397Y-38116292D01*
X96163329Y-38241514D01*
X96407298Y-38313097D01*
X97220395Y-37500000D01*
X96407298Y-36686903D01*
X96163329Y-36758486D01*
X96042429Y-37013996D01*
X95973700Y-37288184D01*
X95959783Y-37570512D01*
X79489197Y-37570512D01*
X79482886Y-37564201D01*
X79366517Y-37486445D01*
X79474482Y-37475812D01*
X79594180Y-37439502D01*
X79704494Y-37380537D01*
X79801185Y-37301185D01*
X79880537Y-37204494D01*
X79939502Y-37094180D01*
X79975812Y-36974482D01*
X79988072Y-36850000D01*
X79988072Y-36507298D01*
X96586903Y-36507298D01*
X97400000Y-37320395D01*
X97414143Y-37306253D01*
X97593748Y-37485858D01*
X97579605Y-37500000D01*
X97593748Y-37514143D01*
X97414143Y-37693748D01*
X97400000Y-37679605D01*
X96586903Y-38492702D01*
X96658486Y-38736671D01*
X96913996Y-38857571D01*
X97188184Y-38926300D01*
X97470512Y-38940217D01*
X97750130Y-38898787D01*
X98016292Y-38803603D01*
X98138309Y-38738384D01*
X98148815Y-38751185D01*
X98245506Y-38830537D01*
X98355820Y-38889502D01*
X98475518Y-38925812D01*
X98600000Y-38938072D01*
X100200000Y-38938072D01*
X100324482Y-38925812D01*
X100444180Y-38889502D01*
X100554494Y-38830537D01*
X100651185Y-38751185D01*
X100730537Y-38654494D01*
X100789502Y-38544180D01*
X100825812Y-38424482D01*
X100838072Y-38300000D01*
X100838072Y-38148061D01*
X102565000Y-38148061D01*
X102565000Y-38351939D01*
X102604774Y-38551898D01*
X102682795Y-38740256D01*
X102796063Y-38909774D01*
X102940226Y-39053937D01*
X103109744Y-39167205D01*
X103298102Y-39245226D01*
X103498061Y-39285000D01*
X103701939Y-39285000D01*
X103901898Y-39245226D01*
X103926586Y-39235000D01*
X110592546Y-39235000D01*
X110610498Y-39294180D01*
X110669463Y-39404494D01*
X110748815Y-39501185D01*
X110845506Y-39580537D01*
X110955820Y-39639502D01*
X111075518Y-39675812D01*
X111200000Y-39688072D01*
X112800000Y-39688072D01*
X112924482Y-39675812D01*
X113044180Y-39639502D01*
X113154494Y-39580537D01*
X113251185Y-39501185D01*
X113330537Y-39404494D01*
X113389502Y-39294180D01*
X113425812Y-39174482D01*
X113438072Y-39050000D01*
X113438072Y-37450000D01*
X113425812Y-37325518D01*
X113389502Y-37205820D01*
X113330537Y-37095506D01*
X113251185Y-36998815D01*
X113154494Y-36919463D01*
X113044180Y-36860498D01*
X112924482Y-36824188D01*
X112800000Y-36811928D01*
X111200000Y-36811928D01*
X111075518Y-36824188D01*
X110955820Y-36860498D01*
X110845506Y-36919463D01*
X110748815Y-36998815D01*
X110669463Y-37095506D01*
X110610498Y-37205820D01*
X110592546Y-37265000D01*
X103926586Y-37265000D01*
X103901898Y-37254774D01*
X103701939Y-37215000D01*
X103498061Y-37215000D01*
X103298102Y-37254774D01*
X103109744Y-37332795D01*
X102940226Y-37446063D01*
X102796063Y-37590226D01*
X102682795Y-37759744D01*
X102604774Y-37948102D01*
X102565000Y-38148061D01*
X100838072Y-38148061D01*
X100838072Y-36700000D01*
X100825812Y-36575518D01*
X100789502Y-36455820D01*
X100730537Y-36345506D01*
X100691601Y-36298061D01*
X101315000Y-36298061D01*
X101315000Y-36501939D01*
X101354774Y-36701898D01*
X101432795Y-36890256D01*
X101546063Y-37059774D01*
X101690226Y-37203937D01*
X101859744Y-37317205D01*
X102048102Y-37395226D01*
X102248061Y-37435000D01*
X102451939Y-37435000D01*
X102651898Y-37395226D01*
X102840256Y-37317205D01*
X103009774Y-37203937D01*
X103153937Y-37059774D01*
X103267205Y-36890256D01*
X103345226Y-36701898D01*
X103385000Y-36501939D01*
X103385000Y-36298061D01*
X103345226Y-36098102D01*
X103267205Y-35909744D01*
X103153937Y-35740226D01*
X103009774Y-35596063D01*
X102840256Y-35482795D01*
X102651898Y-35404774D01*
X102451939Y-35365000D01*
X102248061Y-35365000D01*
X102048102Y-35404774D01*
X101859744Y-35482795D01*
X101690226Y-35596063D01*
X101546063Y-35740226D01*
X101432795Y-35909744D01*
X101354774Y-36098102D01*
X101315000Y-36298061D01*
X100691601Y-36298061D01*
X100651185Y-36248815D01*
X100554494Y-36169463D01*
X100444180Y-36110498D01*
X100324482Y-36074188D01*
X100200000Y-36061928D01*
X98600000Y-36061928D01*
X98475518Y-36074188D01*
X98355820Y-36110498D01*
X98245506Y-36169463D01*
X98148815Y-36248815D01*
X98138193Y-36261758D01*
X97886004Y-36142429D01*
X97611816Y-36073700D01*
X97329488Y-36059783D01*
X97049870Y-36101213D01*
X96783708Y-36196397D01*
X96658486Y-36263329D01*
X96586903Y-36507298D01*
X79988072Y-36507298D01*
X79988072Y-35350000D01*
X79975812Y-35225518D01*
X79939502Y-35105820D01*
X79880537Y-34995506D01*
X79801185Y-34898815D01*
X79704494Y-34819463D01*
X79594180Y-34760498D01*
X79474482Y-34724188D01*
X79350000Y-34711928D01*
X77850000Y-34711928D01*
X77725518Y-34724188D01*
X77605820Y-34760498D01*
X77495506Y-34819463D01*
X77398815Y-34898815D01*
X77319463Y-34995506D01*
X77260498Y-35105820D01*
X77224188Y-35225518D01*
X77211928Y-35350000D01*
X70455550Y-35350000D01*
X70445226Y-35298102D01*
X70367205Y-35109744D01*
X70253937Y-34940226D01*
X70109774Y-34796063D01*
X69940256Y-34682795D01*
X69751898Y-34604774D01*
X69691208Y-34592702D01*
X73436903Y-34592702D01*
X73508486Y-34836671D01*
X73763996Y-34957571D01*
X74038184Y-35026300D01*
X74320512Y-35040217D01*
X74600130Y-34998787D01*
X74866292Y-34903603D01*
X74991514Y-34836671D01*
X75063097Y-34592702D01*
X74250000Y-33779605D01*
X73436903Y-34592702D01*
X69691208Y-34592702D01*
X69551939Y-34565000D01*
X69348061Y-34565000D01*
X69148102Y-34604774D01*
X68959744Y-34682795D01*
X68790226Y-34796063D01*
X68646063Y-34940226D01*
X68532795Y-35109744D01*
X68454774Y-35298102D01*
X68415000Y-35498061D01*
X68415000Y-35701939D01*
X68418564Y-35719857D01*
X67238072Y-36900349D01*
X67238072Y-36250000D01*
X67225812Y-36125518D01*
X67189502Y-36005820D01*
X67130537Y-35895506D01*
X67051185Y-35798815D01*
X66954494Y-35719463D01*
X66844180Y-35660498D01*
X66724482Y-35624188D01*
X66600000Y-35611928D01*
X65100000Y-35611928D01*
X64975518Y-35624188D01*
X64855820Y-35660498D01*
X64745506Y-35719463D01*
X64648815Y-35798815D01*
X64569463Y-35895506D01*
X64510498Y-36005820D01*
X64474188Y-36125518D01*
X64461928Y-36250000D01*
X60472351Y-36250000D01*
X60485000Y-36186411D01*
X60485000Y-35913589D01*
X60431775Y-35646011D01*
X60327371Y-35393957D01*
X60175799Y-35167114D01*
X59982886Y-34974201D01*
X59756043Y-34822629D01*
X59503989Y-34718225D01*
X59236411Y-34665000D01*
X58963589Y-34665000D01*
X58696011Y-34718225D01*
X58443957Y-34822629D01*
X58217114Y-34974201D01*
X58024201Y-35167114D01*
X57872629Y-35393957D01*
X57768225Y-35646011D01*
X57715000Y-35913589D01*
X37960000Y-35913589D01*
X37960000Y-34183408D01*
X38002412Y-34240269D01*
X38218645Y-34435178D01*
X38468748Y-34584157D01*
X38743109Y-34681481D01*
X38973000Y-34560814D01*
X38973000Y-33367000D01*
X39227000Y-33367000D01*
X39227000Y-34560814D01*
X39456891Y-34681481D01*
X39731252Y-34584157D01*
X39981355Y-34435178D01*
X40197588Y-34240269D01*
X40371641Y-34006920D01*
X40496825Y-33744099D01*
X40519145Y-33670512D01*
X72809783Y-33670512D01*
X72851213Y-33950130D01*
X72946397Y-34216292D01*
X73013329Y-34341514D01*
X73257298Y-34413097D01*
X74070395Y-33600000D01*
X74429605Y-33600000D01*
X75242702Y-34413097D01*
X75486671Y-34341514D01*
X75580743Y-34142702D01*
X94836903Y-34142702D01*
X94908486Y-34386671D01*
X95163996Y-34507571D01*
X95438184Y-34576300D01*
X95720512Y-34590217D01*
X96000130Y-34548787D01*
X96266292Y-34453603D01*
X96391514Y-34386671D01*
X96463097Y-34142702D01*
X95650000Y-33329605D01*
X94836903Y-34142702D01*
X75580743Y-34142702D01*
X75607571Y-34086004D01*
X75676300Y-33811816D01*
X75690217Y-33529488D01*
X75648787Y-33249870D01*
X75638289Y-33220512D01*
X94209783Y-33220512D01*
X94251213Y-33500130D01*
X94346397Y-33766292D01*
X94413329Y-33891514D01*
X94657298Y-33963097D01*
X95470395Y-33150000D01*
X95456253Y-33135858D01*
X95635858Y-32956253D01*
X95650000Y-32970395D01*
X95664143Y-32956253D01*
X95843748Y-33135858D01*
X95829605Y-33150000D01*
X96642702Y-33963097D01*
X96886671Y-33891514D01*
X97007571Y-33636004D01*
X97076300Y-33361816D01*
X97090217Y-33079488D01*
X97048787Y-32799870D01*
X96953603Y-32533708D01*
X96888384Y-32411691D01*
X96901185Y-32401185D01*
X96980537Y-32304494D01*
X97039502Y-32194180D01*
X97075812Y-32074482D01*
X97088072Y-31950000D01*
X97088072Y-30350000D01*
X97075812Y-30225518D01*
X97068072Y-30200000D01*
X103811928Y-30200000D01*
X103811928Y-31900000D01*
X103824188Y-32024482D01*
X103860498Y-32144180D01*
X103919463Y-32254494D01*
X103998815Y-32351185D01*
X104095506Y-32430537D01*
X104205820Y-32489502D01*
X104325518Y-32525812D01*
X104450000Y-32538072D01*
X106150000Y-32538072D01*
X106274482Y-32525812D01*
X106394180Y-32489502D01*
X106504494Y-32430537D01*
X106601185Y-32351185D01*
X106680537Y-32254494D01*
X106739502Y-32144180D01*
X106761513Y-32071620D01*
X106893368Y-32203475D01*
X107136589Y-32365990D01*
X107406842Y-32477932D01*
X107693740Y-32535000D01*
X107986260Y-32535000D01*
X108273158Y-32477932D01*
X108543411Y-32365990D01*
X108786632Y-32203475D01*
X108993475Y-31996632D01*
X109115195Y-31814466D01*
X109184822Y-31931355D01*
X109379731Y-32147588D01*
X109613080Y-32321641D01*
X109875901Y-32446825D01*
X110023110Y-32491476D01*
X110253000Y-32370155D01*
X110253000Y-31177000D01*
X110507000Y-31177000D01*
X110507000Y-32370155D01*
X110736890Y-32491476D01*
X110884099Y-32446825D01*
X111146920Y-32321641D01*
X111380269Y-32147588D01*
X111575178Y-31931355D01*
X111724157Y-31681252D01*
X111821481Y-31406891D01*
X111700814Y-31177000D01*
X110507000Y-31177000D01*
X110253000Y-31177000D01*
X110233000Y-31177000D01*
X110233000Y-31096890D01*
X117058524Y-31096890D01*
X117103175Y-31244099D01*
X117228359Y-31506920D01*
X117402412Y-31740269D01*
X117618645Y-31935178D01*
X117868748Y-32084157D01*
X118143109Y-32181481D01*
X118373000Y-32060814D01*
X118373000Y-30867000D01*
X117179845Y-30867000D01*
X117058524Y-31096890D01*
X110233000Y-31096890D01*
X110233000Y-30923000D01*
X110253000Y-30923000D01*
X110253000Y-29729845D01*
X110507000Y-29729845D01*
X110507000Y-30923000D01*
X111700814Y-30923000D01*
X111821481Y-30693109D01*
X111724157Y-30418748D01*
X111575178Y-30168645D01*
X111380269Y-29952412D01*
X111146920Y-29778359D01*
X110884099Y-29653175D01*
X110736890Y-29608524D01*
X110507000Y-29729845D01*
X110253000Y-29729845D01*
X110023110Y-29608524D01*
X109875901Y-29653175D01*
X109613080Y-29778359D01*
X109379731Y-29952412D01*
X109184822Y-30168645D01*
X109115195Y-30285534D01*
X108993475Y-30103368D01*
X108786632Y-29896525D01*
X108543411Y-29734010D01*
X108273158Y-29622068D01*
X107986260Y-29565000D01*
X107693740Y-29565000D01*
X107406842Y-29622068D01*
X107136589Y-29734010D01*
X106893368Y-29896525D01*
X106761513Y-30028380D01*
X106739502Y-29955820D01*
X106680537Y-29845506D01*
X106601185Y-29748815D01*
X106504494Y-29669463D01*
X106394180Y-29610498D01*
X106274482Y-29574188D01*
X106150000Y-29561928D01*
X104450000Y-29561928D01*
X104325518Y-29574188D01*
X104205820Y-29610498D01*
X104095506Y-29669463D01*
X103998815Y-29748815D01*
X103919463Y-29845506D01*
X103860498Y-29955820D01*
X103824188Y-30075518D01*
X103811928Y-30200000D01*
X97068072Y-30200000D01*
X97039502Y-30105820D01*
X96980537Y-29995506D01*
X96901185Y-29898815D01*
X96804494Y-29819463D01*
X96694180Y-29760498D01*
X96574482Y-29724188D01*
X96450000Y-29711928D01*
X94850000Y-29711928D01*
X94725518Y-29724188D01*
X94605820Y-29760498D01*
X94495506Y-29819463D01*
X94398815Y-29898815D01*
X94319463Y-29995506D01*
X94260498Y-30105820D01*
X94224188Y-30225518D01*
X94211928Y-30350000D01*
X94211928Y-31950000D01*
X94224188Y-32074482D01*
X94260498Y-32194180D01*
X94319463Y-32304494D01*
X94398815Y-32401185D01*
X94411758Y-32411807D01*
X94292429Y-32663996D01*
X94223700Y-32938184D01*
X94209783Y-33220512D01*
X75638289Y-33220512D01*
X75553603Y-32983708D01*
X75486671Y-32858486D01*
X75242702Y-32786903D01*
X74429605Y-33600000D01*
X74070395Y-33600000D01*
X73257298Y-32786903D01*
X73013329Y-32858486D01*
X72892429Y-33113996D01*
X72823700Y-33388184D01*
X72809783Y-33670512D01*
X40519145Y-33670512D01*
X40541476Y-33596890D01*
X40420155Y-33367000D01*
X39227000Y-33367000D01*
X38973000Y-33367000D01*
X38953000Y-33367000D01*
X38953000Y-33113000D01*
X38973000Y-33113000D01*
X38973000Y-33093000D01*
X39227000Y-33093000D01*
X39227000Y-33113000D01*
X40420155Y-33113000D01*
X40541476Y-32883110D01*
X40496825Y-32735901D01*
X40371641Y-32473080D01*
X40197588Y-32239731D01*
X40113534Y-32163966D01*
X40194180Y-32139502D01*
X40304494Y-32080537D01*
X40401185Y-32001185D01*
X40480537Y-31904494D01*
X40539502Y-31794180D01*
X40575812Y-31674482D01*
X40588072Y-31550000D01*
X40588072Y-29850000D01*
X40585605Y-29824947D01*
X56815000Y-29824947D01*
X56815000Y-30275053D01*
X56902811Y-30716510D01*
X57075059Y-31132353D01*
X57325125Y-31506603D01*
X57643397Y-31824875D01*
X58017647Y-32074941D01*
X58433490Y-32247189D01*
X58874947Y-32335000D01*
X59325053Y-32335000D01*
X59766510Y-32247189D01*
X60182353Y-32074941D01*
X60556603Y-31824875D01*
X60874875Y-31506603D01*
X61124941Y-31132353D01*
X61297189Y-30716510D01*
X61380037Y-30300000D01*
X72811928Y-30300000D01*
X72811928Y-31900000D01*
X72824188Y-32024482D01*
X72860498Y-32144180D01*
X72919463Y-32254494D01*
X72998815Y-32351185D01*
X73095506Y-32430537D01*
X73205820Y-32489502D01*
X73325518Y-32525812D01*
X73450000Y-32538072D01*
X73457215Y-32538072D01*
X73436903Y-32607298D01*
X74250000Y-33420395D01*
X75063097Y-32607298D01*
X75042785Y-32538072D01*
X75050000Y-32538072D01*
X75174482Y-32525812D01*
X75294180Y-32489502D01*
X75404494Y-32430537D01*
X75501185Y-32351185D01*
X75580537Y-32254494D01*
X75639502Y-32144180D01*
X75675812Y-32024482D01*
X75688072Y-31900000D01*
X75688072Y-30300000D01*
X75675812Y-30175518D01*
X75639502Y-30055820D01*
X75580537Y-29945506D01*
X75501185Y-29848815D01*
X75404494Y-29769463D01*
X75294180Y-29710498D01*
X75174482Y-29674188D01*
X75050000Y-29661928D01*
X73450000Y-29661928D01*
X73325518Y-29674188D01*
X73205820Y-29710498D01*
X73095506Y-29769463D01*
X72998815Y-29848815D01*
X72919463Y-29945506D01*
X72860498Y-30055820D01*
X72824188Y-30175518D01*
X72811928Y-30300000D01*
X61380037Y-30300000D01*
X61385000Y-30275053D01*
X61385000Y-29824947D01*
X61297189Y-29383490D01*
X61124941Y-28967647D01*
X60874875Y-28593397D01*
X60556603Y-28275125D01*
X60182353Y-28025059D01*
X59766510Y-27852811D01*
X59325053Y-27765000D01*
X58874947Y-27765000D01*
X58433490Y-27852811D01*
X58017647Y-28025059D01*
X57643397Y-28275125D01*
X57325125Y-28593397D01*
X57075059Y-28967647D01*
X56902811Y-29383490D01*
X56815000Y-29824947D01*
X40585605Y-29824947D01*
X40575812Y-29725518D01*
X40539502Y-29605820D01*
X40480537Y-29495506D01*
X40401185Y-29398815D01*
X40304494Y-29319463D01*
X40194180Y-29260498D01*
X40074482Y-29224188D01*
X39950000Y-29211928D01*
X38250000Y-29211928D01*
X38125518Y-29224188D01*
X38005820Y-29260498D01*
X37960000Y-29284990D01*
X37960000Y-26613589D01*
X64435000Y-26613589D01*
X64435000Y-26886411D01*
X64488225Y-27153989D01*
X64592629Y-27406043D01*
X64744201Y-27632886D01*
X64937114Y-27825799D01*
X65163957Y-27977371D01*
X65416011Y-28081775D01*
X65683589Y-28135000D01*
X65956411Y-28135000D01*
X66223989Y-28081775D01*
X66476043Y-27977371D01*
X66702886Y-27825799D01*
X66895799Y-27632886D01*
X67047371Y-27406043D01*
X67090000Y-27303127D01*
X67132629Y-27406043D01*
X67284201Y-27632886D01*
X67477114Y-27825799D01*
X67703957Y-27977371D01*
X67956011Y-28081775D01*
X68223589Y-28135000D01*
X68496411Y-28135000D01*
X68763989Y-28081775D01*
X69016043Y-27977371D01*
X69242886Y-27825799D01*
X69435799Y-27632886D01*
X69513555Y-27516517D01*
X69524188Y-27624482D01*
X69560498Y-27744180D01*
X69619463Y-27854494D01*
X69698815Y-27951185D01*
X69795506Y-28030537D01*
X69905820Y-28089502D01*
X70025518Y-28125812D01*
X70150000Y-28138072D01*
X71650000Y-28138072D01*
X71774482Y-28125812D01*
X71894180Y-28089502D01*
X72004494Y-28030537D01*
X72101185Y-27951185D01*
X72180537Y-27854494D01*
X72239502Y-27744180D01*
X72255117Y-27692702D01*
X74686903Y-27692702D01*
X74758486Y-27936671D01*
X75013996Y-28057571D01*
X75288184Y-28126300D01*
X75570512Y-28140217D01*
X75850130Y-28098787D01*
X76116292Y-28003603D01*
X76241514Y-27936671D01*
X76313097Y-27692702D01*
X75500000Y-26879605D01*
X74686903Y-27692702D01*
X72255117Y-27692702D01*
X72275812Y-27624482D01*
X72288072Y-27500000D01*
X72288072Y-26770512D01*
X74059783Y-26770512D01*
X74101213Y-27050130D01*
X74196397Y-27316292D01*
X74263329Y-27441514D01*
X74507298Y-27513097D01*
X75320395Y-26700000D01*
X75679605Y-26700000D01*
X76492702Y-27513097D01*
X76736671Y-27441514D01*
X76857571Y-27186004D01*
X76926300Y-26911816D01*
X76940217Y-26629488D01*
X76898787Y-26349870D01*
X76885813Y-26313589D01*
X92885000Y-26313589D01*
X92885000Y-26586411D01*
X92938225Y-26853989D01*
X93042629Y-27106043D01*
X93194201Y-27332886D01*
X93387114Y-27525799D01*
X93613957Y-27677371D01*
X93866011Y-27781775D01*
X94133589Y-27835000D01*
X94406411Y-27835000D01*
X94673989Y-27781775D01*
X94926043Y-27677371D01*
X95152886Y-27525799D01*
X95345799Y-27332886D01*
X95497371Y-27106043D01*
X95540000Y-27003127D01*
X95582629Y-27106043D01*
X95734201Y-27332886D01*
X95927114Y-27525799D01*
X96153957Y-27677371D01*
X96406011Y-27781775D01*
X96673589Y-27835000D01*
X96946411Y-27835000D01*
X97213989Y-27781775D01*
X97466043Y-27677371D01*
X97692886Y-27525799D01*
X97885799Y-27332886D01*
X97963555Y-27216517D01*
X97974188Y-27324482D01*
X98010498Y-27444180D01*
X98069463Y-27554494D01*
X98148815Y-27651185D01*
X98245506Y-27730537D01*
X98355820Y-27789502D01*
X98475518Y-27825812D01*
X98600000Y-27838072D01*
X100100000Y-27838072D01*
X100224482Y-27825812D01*
X100344180Y-27789502D01*
X100454494Y-27730537D01*
X100551185Y-27651185D01*
X100630537Y-27554494D01*
X100689502Y-27444180D01*
X100725812Y-27324482D01*
X100738072Y-27200000D01*
X100738072Y-25700000D01*
X100725812Y-25575518D01*
X100689502Y-25455820D01*
X100630537Y-25345506D01*
X100551185Y-25248815D01*
X100454494Y-25169463D01*
X100344180Y-25110498D01*
X100224482Y-25074188D01*
X100100000Y-25061928D01*
X98600000Y-25061928D01*
X98475518Y-25074188D01*
X98355820Y-25110498D01*
X98245506Y-25169463D01*
X98148815Y-25248815D01*
X98069463Y-25345506D01*
X98010498Y-25455820D01*
X97974188Y-25575518D01*
X97963555Y-25683483D01*
X97885799Y-25567114D01*
X97692886Y-25374201D01*
X97466043Y-25222629D01*
X97213989Y-25118225D01*
X96946411Y-25065000D01*
X96673589Y-25065000D01*
X96406011Y-25118225D01*
X96153957Y-25222629D01*
X95927114Y-25374201D01*
X95734201Y-25567114D01*
X95582629Y-25793957D01*
X95540000Y-25896873D01*
X95497371Y-25793957D01*
X95345799Y-25567114D01*
X95152886Y-25374201D01*
X94926043Y-25222629D01*
X94673989Y-25118225D01*
X94406411Y-25065000D01*
X94133589Y-25065000D01*
X93866011Y-25118225D01*
X93613957Y-25222629D01*
X93387114Y-25374201D01*
X93194201Y-25567114D01*
X93042629Y-25793957D01*
X92938225Y-26046011D01*
X92885000Y-26313589D01*
X76885813Y-26313589D01*
X76803603Y-26083708D01*
X76736671Y-25958486D01*
X76492702Y-25886903D01*
X75679605Y-26700000D01*
X75320395Y-26700000D01*
X74507298Y-25886903D01*
X74263329Y-25958486D01*
X74142429Y-26213996D01*
X74073700Y-26488184D01*
X74059783Y-26770512D01*
X72288072Y-26770512D01*
X72288072Y-26000000D01*
X72275812Y-25875518D01*
X72239502Y-25755820D01*
X72180537Y-25645506D01*
X72101185Y-25548815D01*
X72004494Y-25469463D01*
X71894180Y-25410498D01*
X71774482Y-25374188D01*
X71650000Y-25361928D01*
X70150000Y-25361928D01*
X70025518Y-25374188D01*
X69905820Y-25410498D01*
X69795506Y-25469463D01*
X69698815Y-25548815D01*
X69619463Y-25645506D01*
X69560498Y-25755820D01*
X69524188Y-25875518D01*
X69513555Y-25983483D01*
X69435799Y-25867114D01*
X69242886Y-25674201D01*
X69016043Y-25522629D01*
X68763989Y-25418225D01*
X68496411Y-25365000D01*
X68223589Y-25365000D01*
X67956011Y-25418225D01*
X67703957Y-25522629D01*
X67477114Y-25674201D01*
X67284201Y-25867114D01*
X67132629Y-26093957D01*
X67090000Y-26196873D01*
X67047371Y-26093957D01*
X66895799Y-25867114D01*
X66702886Y-25674201D01*
X66476043Y-25522629D01*
X66223989Y-25418225D01*
X65956411Y-25365000D01*
X65683589Y-25365000D01*
X65416011Y-25418225D01*
X65163957Y-25522629D01*
X64937114Y-25674201D01*
X64744201Y-25867114D01*
X64592629Y-26093957D01*
X64488225Y-26346011D01*
X64435000Y-26613589D01*
X37960000Y-26613589D01*
X37960000Y-23847499D01*
X38632106Y-23847499D01*
X38848228Y-24214258D01*
X39308105Y-24454938D01*
X39806098Y-24601275D01*
X40323071Y-24647648D01*
X40839159Y-24592273D01*
X41334526Y-24437279D01*
X41751772Y-24214258D01*
X41928948Y-23913589D01*
X57715000Y-23913589D01*
X57715000Y-24186411D01*
X57768225Y-24453989D01*
X57872629Y-24706043D01*
X58024201Y-24932886D01*
X58217114Y-25125799D01*
X58443957Y-25277371D01*
X58696011Y-25381775D01*
X58963589Y-25435000D01*
X59236411Y-25435000D01*
X59503989Y-25381775D01*
X59756043Y-25277371D01*
X59982886Y-25125799D01*
X60175799Y-24932886D01*
X60327371Y-24706043D01*
X60431775Y-24453989D01*
X60485000Y-24186411D01*
X60485000Y-23913589D01*
X60431775Y-23646011D01*
X60329875Y-23400000D01*
X74061928Y-23400000D01*
X74061928Y-25000000D01*
X74074188Y-25124482D01*
X74110498Y-25244180D01*
X74169463Y-25354494D01*
X74248815Y-25451185D01*
X74345506Y-25530537D01*
X74455820Y-25589502D01*
X74575518Y-25625812D01*
X74700000Y-25638072D01*
X74707215Y-25638072D01*
X74686903Y-25707298D01*
X75500000Y-26520395D01*
X76313097Y-25707298D01*
X76292785Y-25638072D01*
X76300000Y-25638072D01*
X76424482Y-25625812D01*
X76544180Y-25589502D01*
X76654494Y-25530537D01*
X76751185Y-25451185D01*
X76830537Y-25354494D01*
X76889502Y-25244180D01*
X76925812Y-25124482D01*
X76938072Y-25000000D01*
X76938072Y-23400000D01*
X76925812Y-23275518D01*
X76889502Y-23155820D01*
X76830537Y-23045506D01*
X76751185Y-22948815D01*
X76654494Y-22869463D01*
X76544180Y-22810498D01*
X76424482Y-22774188D01*
X76300000Y-22761928D01*
X74700000Y-22761928D01*
X74575518Y-22774188D01*
X74455820Y-22810498D01*
X74345506Y-22869463D01*
X74248815Y-22948815D01*
X74169463Y-23045506D01*
X74110498Y-23155820D01*
X74074188Y-23275518D01*
X74061928Y-23400000D01*
X60329875Y-23400000D01*
X60327371Y-23393957D01*
X60175799Y-23167114D01*
X59982886Y-22974201D01*
X59756043Y-22822629D01*
X59503989Y-22718225D01*
X59236411Y-22665000D01*
X58963589Y-22665000D01*
X58696011Y-22718225D01*
X58443957Y-22822629D01*
X58217114Y-22974201D01*
X58024201Y-23167114D01*
X57872629Y-23393957D01*
X57768225Y-23646011D01*
X57715000Y-23913589D01*
X41928948Y-23913589D01*
X41967894Y-23847499D01*
X40300000Y-22179605D01*
X38632106Y-23847499D01*
X37960000Y-23847499D01*
X37960000Y-23216524D01*
X38085742Y-23451772D01*
X38452501Y-23667894D01*
X40120395Y-22000000D01*
X40479605Y-22000000D01*
X42147499Y-23667894D01*
X42514258Y-23451772D01*
X42754938Y-22991895D01*
X42901275Y-22493902D01*
X42947648Y-21976929D01*
X42892273Y-21460841D01*
X42737279Y-20965474D01*
X42514258Y-20548228D01*
X42147499Y-20332106D01*
X40479605Y-22000000D01*
X40120395Y-22000000D01*
X38452501Y-20332106D01*
X38085742Y-20548228D01*
X37960000Y-20788488D01*
X37960000Y-19660000D01*
X39083476Y-19660000D01*
X38848228Y-19785742D01*
M02*
