G04 #@! TF.GenerationSoftware,KiCad,Pcbnew,5.1.5+dfsg1-2build2*
G04 #@! TF.CreationDate,2022-03-11T14:10:26+02:00*
G04 #@! TF.ProjectId,dc_receiver,64635f72-6563-4656-9976-65722e6b6963,rev?*
G04 #@! TF.SameCoordinates,Original*
G04 #@! TF.FileFunction,Soldermask,Bot*
G04 #@! TF.FilePolarity,Negative*
%FSLAX46Y46*%
G04 Gerber Fmt 4.6, Leading zero omitted, Abs format (unit mm)*
G04 Created by KiCad (PCBNEW 5.1.5+dfsg1-2build2) date 2022-03-11 14:10:26*
%MOMM*%
%LPD*%
G04 APERTURE LIST*
%ADD10C,0.100000*%
G04 APERTURE END LIST*
D10*
G36*
X40898254Y-44027818D02*
G01*
X41271511Y-44182426D01*
X41271513Y-44182427D01*
X41498886Y-44334353D01*
X41607436Y-44406884D01*
X41893116Y-44692564D01*
X42117574Y-45028489D01*
X42272182Y-45401746D01*
X42351000Y-45797993D01*
X42351000Y-46202007D01*
X42272182Y-46598254D01*
X42142632Y-46911015D01*
X42117573Y-46971513D01*
X41893116Y-47307436D01*
X41607436Y-47593116D01*
X41271513Y-47817573D01*
X41271512Y-47817574D01*
X41271511Y-47817574D01*
X40898254Y-47972182D01*
X40502007Y-48051000D01*
X40097993Y-48051000D01*
X39701746Y-47972182D01*
X39328489Y-47817574D01*
X39328488Y-47817574D01*
X39328487Y-47817573D01*
X38992564Y-47593116D01*
X38706884Y-47307436D01*
X38482427Y-46971513D01*
X38457368Y-46911015D01*
X38327818Y-46598254D01*
X38249000Y-46202007D01*
X38249000Y-45797993D01*
X38327818Y-45401746D01*
X38482426Y-45028489D01*
X38706884Y-44692564D01*
X38992564Y-44406884D01*
X39101114Y-44334353D01*
X39328487Y-44182427D01*
X39328489Y-44182426D01*
X39701746Y-44027818D01*
X40097993Y-43949000D01*
X40502007Y-43949000D01*
X40898254Y-44027818D01*
G37*
G36*
X117898254Y-44027818D02*
G01*
X118271511Y-44182426D01*
X118271513Y-44182427D01*
X118498886Y-44334353D01*
X118607436Y-44406884D01*
X118893116Y-44692564D01*
X119117574Y-45028489D01*
X119272182Y-45401746D01*
X119351000Y-45797993D01*
X119351000Y-46202007D01*
X119272182Y-46598254D01*
X119142632Y-46911015D01*
X119117573Y-46971513D01*
X118893116Y-47307436D01*
X118607436Y-47593116D01*
X118271513Y-47817573D01*
X118271512Y-47817574D01*
X118271511Y-47817574D01*
X117898254Y-47972182D01*
X117502007Y-48051000D01*
X117097993Y-48051000D01*
X116701746Y-47972182D01*
X116328489Y-47817574D01*
X116328488Y-47817574D01*
X116328487Y-47817573D01*
X115992564Y-47593116D01*
X115706884Y-47307436D01*
X115482427Y-46971513D01*
X115457368Y-46911015D01*
X115327818Y-46598254D01*
X115249000Y-46202007D01*
X115249000Y-45797993D01*
X115327818Y-45401746D01*
X115482426Y-45028489D01*
X115706884Y-44692564D01*
X115992564Y-44406884D01*
X116101114Y-44334353D01*
X116328487Y-44182427D01*
X116328489Y-44182426D01*
X116701746Y-44027818D01*
X117097993Y-43949000D01*
X117502007Y-43949000D01*
X117898254Y-44027818D01*
G37*
G36*
X52903512Y-45503927D02*
G01*
X53052812Y-45533624D01*
X53216784Y-45601544D01*
X53364354Y-45700147D01*
X53489853Y-45825646D01*
X53588456Y-45973216D01*
X53656376Y-46137188D01*
X53691000Y-46311259D01*
X53691000Y-46488741D01*
X53656376Y-46662812D01*
X53588456Y-46826784D01*
X53489853Y-46974354D01*
X53364354Y-47099853D01*
X53216784Y-47198456D01*
X53052812Y-47266376D01*
X52903512Y-47296073D01*
X52878742Y-47301000D01*
X52701258Y-47301000D01*
X52676488Y-47296073D01*
X52527188Y-47266376D01*
X52363216Y-47198456D01*
X52215646Y-47099853D01*
X52090147Y-46974354D01*
X51991544Y-46826784D01*
X51923624Y-46662812D01*
X51889000Y-46488741D01*
X51889000Y-46311259D01*
X51923624Y-46137188D01*
X51991544Y-45973216D01*
X52090147Y-45825646D01*
X52215646Y-45700147D01*
X52363216Y-45601544D01*
X52527188Y-45533624D01*
X52676488Y-45503927D01*
X52701258Y-45499000D01*
X52878742Y-45499000D01*
X52903512Y-45503927D01*
G37*
G36*
X51151000Y-47301000D02*
G01*
X49349000Y-47301000D01*
X49349000Y-45499000D01*
X51151000Y-45499000D01*
X51151000Y-47301000D01*
G37*
G36*
X107101000Y-47201000D02*
G01*
X105299000Y-47201000D01*
X105299000Y-45399000D01*
X107101000Y-45399000D01*
X107101000Y-47201000D01*
G37*
G36*
X78848228Y-45431703D02*
G01*
X79003100Y-45495853D01*
X79142481Y-45588985D01*
X79261015Y-45707519D01*
X79354147Y-45846900D01*
X79418297Y-46001772D01*
X79451000Y-46166184D01*
X79451000Y-46333816D01*
X79418297Y-46498228D01*
X79354147Y-46653100D01*
X79261015Y-46792481D01*
X79142481Y-46911015D01*
X79003100Y-47004147D01*
X78848228Y-47068297D01*
X78683816Y-47101000D01*
X78516184Y-47101000D01*
X78351772Y-47068297D01*
X78196900Y-47004147D01*
X78057519Y-46911015D01*
X77938985Y-46792481D01*
X77845853Y-46653100D01*
X77781703Y-46498228D01*
X77749000Y-46333816D01*
X77749000Y-46166184D01*
X77781703Y-46001772D01*
X77845853Y-45846900D01*
X77938985Y-45707519D01*
X78057519Y-45588985D01*
X78196900Y-45495853D01*
X78351772Y-45431703D01*
X78516184Y-45399000D01*
X78683816Y-45399000D01*
X78848228Y-45431703D01*
G37*
G36*
X72548228Y-45431703D02*
G01*
X72703100Y-45495853D01*
X72842481Y-45588985D01*
X72961015Y-45707519D01*
X73054147Y-45846900D01*
X73118297Y-46001772D01*
X73151000Y-46166184D01*
X73151000Y-46333816D01*
X73118297Y-46498228D01*
X73054147Y-46653100D01*
X72961015Y-46792481D01*
X72842481Y-46911015D01*
X72703100Y-47004147D01*
X72548228Y-47068297D01*
X72383816Y-47101000D01*
X72216184Y-47101000D01*
X72051772Y-47068297D01*
X71896900Y-47004147D01*
X71757519Y-46911015D01*
X71638985Y-46792481D01*
X71545853Y-46653100D01*
X71481703Y-46498228D01*
X71449000Y-46333816D01*
X71449000Y-46166184D01*
X71481703Y-46001772D01*
X71545853Y-45846900D01*
X71638985Y-45707519D01*
X71757519Y-45588985D01*
X71896900Y-45495853D01*
X72051772Y-45431703D01*
X72216184Y-45399000D01*
X72383816Y-45399000D01*
X72548228Y-45431703D01*
G37*
G36*
X94498228Y-45331703D02*
G01*
X94653100Y-45395853D01*
X94792481Y-45488985D01*
X94911015Y-45607519D01*
X95004147Y-45746900D01*
X95068297Y-45901772D01*
X95101000Y-46066184D01*
X95101000Y-46233816D01*
X95068297Y-46398228D01*
X95004147Y-46553100D01*
X94911015Y-46692481D01*
X94792481Y-46811015D01*
X94653100Y-46904147D01*
X94498228Y-46968297D01*
X94333816Y-47001000D01*
X94166184Y-47001000D01*
X94001772Y-46968297D01*
X93846900Y-46904147D01*
X93707519Y-46811015D01*
X93588985Y-46692481D01*
X93495853Y-46553100D01*
X93431703Y-46398228D01*
X93399000Y-46233816D01*
X93399000Y-46066184D01*
X93431703Y-45901772D01*
X93495853Y-45746900D01*
X93588985Y-45607519D01*
X93707519Y-45488985D01*
X93846900Y-45395853D01*
X94001772Y-45331703D01*
X94166184Y-45299000D01*
X94333816Y-45299000D01*
X94498228Y-45331703D01*
G37*
G36*
X79451000Y-45101000D02*
G01*
X77749000Y-45101000D01*
X77749000Y-43399000D01*
X79451000Y-43399000D01*
X79451000Y-45101000D01*
G37*
G36*
X106313512Y-42863927D02*
G01*
X106462812Y-42893624D01*
X106626784Y-42961544D01*
X106774354Y-43060147D01*
X106899853Y-43185646D01*
X106998456Y-43333216D01*
X107066376Y-43497188D01*
X107101000Y-43671259D01*
X107101000Y-43848741D01*
X107066376Y-44022812D01*
X106998456Y-44186784D01*
X106899853Y-44334354D01*
X106774354Y-44459853D01*
X106626784Y-44558456D01*
X106462812Y-44626376D01*
X106313512Y-44656073D01*
X106288742Y-44661000D01*
X106111258Y-44661000D01*
X106086488Y-44656073D01*
X105937188Y-44626376D01*
X105773216Y-44558456D01*
X105625646Y-44459853D01*
X105500147Y-44334354D01*
X105401544Y-44186784D01*
X105333624Y-44022812D01*
X105299000Y-43848741D01*
X105299000Y-43671259D01*
X105333624Y-43497188D01*
X105401544Y-43333216D01*
X105500147Y-43185646D01*
X105625646Y-43060147D01*
X105773216Y-42961544D01*
X105937188Y-42893624D01*
X106086488Y-42863927D01*
X106111258Y-42859000D01*
X106288742Y-42859000D01*
X106313512Y-42863927D01*
G37*
G36*
X73151000Y-44601000D02*
G01*
X71449000Y-44601000D01*
X71449000Y-42899000D01*
X73151000Y-42899000D01*
X73151000Y-44601000D01*
G37*
G36*
X95101000Y-43501000D02*
G01*
X93399000Y-43501000D01*
X93399000Y-41799000D01*
X95101000Y-41799000D01*
X95101000Y-43501000D01*
G37*
G36*
X59951000Y-42901000D02*
G01*
X58249000Y-42901000D01*
X58249000Y-41199000D01*
X59951000Y-41199000D01*
X59951000Y-42901000D01*
G37*
G36*
X66083642Y-41309781D02*
G01*
X66229414Y-41370162D01*
X66229416Y-41370163D01*
X66360608Y-41457822D01*
X66472178Y-41569392D01*
X66553171Y-41690608D01*
X66559838Y-41700586D01*
X66620219Y-41846358D01*
X66651000Y-42001107D01*
X66651000Y-42158893D01*
X66620219Y-42313642D01*
X66559838Y-42459414D01*
X66559837Y-42459416D01*
X66472178Y-42590608D01*
X66360608Y-42702178D01*
X66229416Y-42789837D01*
X66229415Y-42789838D01*
X66229414Y-42789838D01*
X66083642Y-42850219D01*
X65928893Y-42881000D01*
X65771107Y-42881000D01*
X65616358Y-42850219D01*
X65470586Y-42789838D01*
X65470585Y-42789838D01*
X65470584Y-42789837D01*
X65339392Y-42702178D01*
X65227822Y-42590608D01*
X65140163Y-42459416D01*
X65140162Y-42459414D01*
X65079781Y-42313642D01*
X65049000Y-42158893D01*
X65049000Y-42001107D01*
X65079781Y-41846358D01*
X65140162Y-41700586D01*
X65146829Y-41690608D01*
X65227822Y-41569392D01*
X65339392Y-41457822D01*
X65470584Y-41370163D01*
X65470586Y-41370162D01*
X65616358Y-41309781D01*
X65771107Y-41279000D01*
X65928893Y-41279000D01*
X66083642Y-41309781D01*
G37*
G36*
X112248228Y-40931703D02*
G01*
X112403100Y-40995853D01*
X112542481Y-41088985D01*
X112661015Y-41207519D01*
X112754147Y-41346900D01*
X112818297Y-41501772D01*
X112851000Y-41666184D01*
X112851000Y-41833816D01*
X112818297Y-41998228D01*
X112754147Y-42153100D01*
X112661015Y-42292481D01*
X112542481Y-42411015D01*
X112403100Y-42504147D01*
X112248228Y-42568297D01*
X112083816Y-42601000D01*
X111916184Y-42601000D01*
X111751772Y-42568297D01*
X111596900Y-42504147D01*
X111457519Y-42411015D01*
X111338985Y-42292481D01*
X111245853Y-42153100D01*
X111181703Y-41998228D01*
X111149000Y-41833816D01*
X111149000Y-41666184D01*
X111181703Y-41501772D01*
X111245853Y-41346900D01*
X111338985Y-41207519D01*
X111457519Y-41088985D01*
X111596900Y-40995853D01*
X111751772Y-40931703D01*
X111916184Y-40899000D01*
X112083816Y-40899000D01*
X112248228Y-40931703D01*
G37*
G36*
X78833642Y-40409781D02*
G01*
X78979414Y-40470162D01*
X78979416Y-40470163D01*
X79110608Y-40557822D01*
X79222178Y-40669392D01*
X79309837Y-40800584D01*
X79309838Y-40800586D01*
X79370219Y-40946358D01*
X79401000Y-41101107D01*
X79401000Y-41258893D01*
X79370219Y-41413642D01*
X79333714Y-41501772D01*
X79309837Y-41559416D01*
X79222178Y-41690608D01*
X79110608Y-41802178D01*
X78979416Y-41889837D01*
X78979415Y-41889838D01*
X78979414Y-41889838D01*
X78833642Y-41950219D01*
X78678893Y-41981000D01*
X78521107Y-41981000D01*
X78366358Y-41950219D01*
X78220586Y-41889838D01*
X78220585Y-41889838D01*
X78220584Y-41889837D01*
X78089392Y-41802178D01*
X77977822Y-41690608D01*
X77890163Y-41559416D01*
X77866286Y-41501772D01*
X77829781Y-41413642D01*
X77799000Y-41258893D01*
X77799000Y-41101107D01*
X77829781Y-40946358D01*
X77890162Y-40800586D01*
X77890163Y-40800584D01*
X77977822Y-40669392D01*
X78089392Y-40557822D01*
X78220584Y-40470163D01*
X78220586Y-40470162D01*
X78366358Y-40409781D01*
X78521107Y-40379000D01*
X78678893Y-40379000D01*
X78833642Y-40409781D01*
G37*
G36*
X59348228Y-38731703D02*
G01*
X59503100Y-38795853D01*
X59642481Y-38888985D01*
X59761015Y-39007519D01*
X59854147Y-39146900D01*
X59918297Y-39301772D01*
X59951000Y-39466184D01*
X59951000Y-39633816D01*
X59918297Y-39798228D01*
X59854147Y-39953100D01*
X59761015Y-40092481D01*
X59642481Y-40211015D01*
X59503100Y-40304147D01*
X59348228Y-40368297D01*
X59183816Y-40401000D01*
X59016184Y-40401000D01*
X58851772Y-40368297D01*
X58696900Y-40304147D01*
X58557519Y-40211015D01*
X58438985Y-40092481D01*
X58345853Y-39953100D01*
X58281703Y-39798228D01*
X58249000Y-39633816D01*
X58249000Y-39466184D01*
X58281703Y-39301772D01*
X58345853Y-39146900D01*
X58438985Y-39007519D01*
X58557519Y-38888985D01*
X58696900Y-38795853D01*
X58851772Y-38731703D01*
X59016184Y-38699000D01*
X59183816Y-38699000D01*
X59348228Y-38731703D01*
G37*
G36*
X66083642Y-38769781D02*
G01*
X66229414Y-38830162D01*
X66229416Y-38830163D01*
X66360608Y-38917822D01*
X66472178Y-39029392D01*
X66553171Y-39150608D01*
X66559838Y-39160586D01*
X66620219Y-39306358D01*
X66651000Y-39461107D01*
X66651000Y-39618893D01*
X66620219Y-39773642D01*
X66559838Y-39919414D01*
X66559837Y-39919416D01*
X66472178Y-40050608D01*
X66360608Y-40162178D01*
X66229416Y-40249837D01*
X66229415Y-40249838D01*
X66229414Y-40249838D01*
X66083642Y-40310219D01*
X65928893Y-40341000D01*
X65771107Y-40341000D01*
X65616358Y-40310219D01*
X65470586Y-40249838D01*
X65470585Y-40249838D01*
X65470584Y-40249837D01*
X65339392Y-40162178D01*
X65227822Y-40050608D01*
X65140163Y-39919416D01*
X65140162Y-39919414D01*
X65079781Y-39773642D01*
X65049000Y-39618893D01*
X65049000Y-39461107D01*
X65079781Y-39306358D01*
X65140162Y-39160586D01*
X65146829Y-39150608D01*
X65227822Y-39029392D01*
X65339392Y-38917822D01*
X65470584Y-38830163D01*
X65470586Y-38830162D01*
X65616358Y-38769781D01*
X65771107Y-38739000D01*
X65928893Y-38739000D01*
X66083642Y-38769781D01*
G37*
G36*
X78833642Y-37869781D02*
G01*
X78979414Y-37930162D01*
X78979416Y-37930163D01*
X79110608Y-38017822D01*
X79222178Y-38129392D01*
X79309837Y-38260584D01*
X79309838Y-38260586D01*
X79370219Y-38406358D01*
X79401000Y-38561107D01*
X79401000Y-38718893D01*
X79370219Y-38873642D01*
X79309838Y-39019414D01*
X79309837Y-39019416D01*
X79222178Y-39150608D01*
X79110608Y-39262178D01*
X78979416Y-39349837D01*
X78979415Y-39349838D01*
X78979414Y-39349838D01*
X78833642Y-39410219D01*
X78678893Y-39441000D01*
X78521107Y-39441000D01*
X78366358Y-39410219D01*
X78220586Y-39349838D01*
X78220585Y-39349838D01*
X78220584Y-39349837D01*
X78089392Y-39262178D01*
X77977822Y-39150608D01*
X77890163Y-39019416D01*
X77890162Y-39019414D01*
X77829781Y-38873642D01*
X77799000Y-38718893D01*
X77799000Y-38561107D01*
X77829781Y-38406358D01*
X77890162Y-38260586D01*
X77890163Y-38260584D01*
X77977822Y-38129392D01*
X78089392Y-38017822D01*
X78220584Y-37930163D01*
X78220586Y-37930162D01*
X78366358Y-37869781D01*
X78521107Y-37839000D01*
X78678893Y-37839000D01*
X78833642Y-37869781D01*
G37*
G36*
X112851000Y-39101000D02*
G01*
X111149000Y-39101000D01*
X111149000Y-37399000D01*
X112851000Y-37399000D01*
X112851000Y-39101000D01*
G37*
G36*
X100251000Y-38351000D02*
G01*
X98549000Y-38351000D01*
X98549000Y-36649000D01*
X100251000Y-36649000D01*
X100251000Y-38351000D01*
G37*
G36*
X97648228Y-36681703D02*
G01*
X97803100Y-36745853D01*
X97942481Y-36838985D01*
X98061015Y-36957519D01*
X98154147Y-37096900D01*
X98218297Y-37251772D01*
X98251000Y-37416184D01*
X98251000Y-37583816D01*
X98218297Y-37748228D01*
X98154147Y-37903100D01*
X98061015Y-38042481D01*
X97942481Y-38161015D01*
X97803100Y-38254147D01*
X97648228Y-38318297D01*
X97483816Y-38351000D01*
X97316184Y-38351000D01*
X97151772Y-38318297D01*
X96996900Y-38254147D01*
X96857519Y-38161015D01*
X96738985Y-38042481D01*
X96645853Y-37903100D01*
X96581703Y-37748228D01*
X96549000Y-37583816D01*
X96549000Y-37416184D01*
X96581703Y-37251772D01*
X96645853Y-37096900D01*
X96738985Y-36957519D01*
X96857519Y-36838985D01*
X96996900Y-36745853D01*
X97151772Y-36681703D01*
X97316184Y-36649000D01*
X97483816Y-36649000D01*
X97648228Y-36681703D01*
G37*
G36*
X66651000Y-37801000D02*
G01*
X65049000Y-37801000D01*
X65049000Y-36199000D01*
X66651000Y-36199000D01*
X66651000Y-37801000D01*
G37*
G36*
X79401000Y-36901000D02*
G01*
X77799000Y-36901000D01*
X77799000Y-35299000D01*
X79401000Y-35299000D01*
X79401000Y-36901000D01*
G37*
G36*
X59333642Y-35279781D02*
G01*
X59479414Y-35340162D01*
X59479416Y-35340163D01*
X59610608Y-35427822D01*
X59722178Y-35539392D01*
X59809837Y-35670584D01*
X59809838Y-35670586D01*
X59870219Y-35816358D01*
X59901000Y-35971107D01*
X59901000Y-36128893D01*
X59870219Y-36283642D01*
X59809838Y-36429414D01*
X59809837Y-36429416D01*
X59722178Y-36560608D01*
X59610608Y-36672178D01*
X59479416Y-36759837D01*
X59479415Y-36759838D01*
X59479414Y-36759838D01*
X59333642Y-36820219D01*
X59178893Y-36851000D01*
X59021107Y-36851000D01*
X58866358Y-36820219D01*
X58720586Y-36759838D01*
X58720585Y-36759838D01*
X58720584Y-36759837D01*
X58589392Y-36672178D01*
X58477822Y-36560608D01*
X58390163Y-36429416D01*
X58390162Y-36429414D01*
X58329781Y-36283642D01*
X58299000Y-36128893D01*
X58299000Y-35971107D01*
X58329781Y-35816358D01*
X58390162Y-35670586D01*
X58390163Y-35670584D01*
X58477822Y-35539392D01*
X58589392Y-35427822D01*
X58720584Y-35340163D01*
X58720586Y-35340162D01*
X58866358Y-35279781D01*
X59021107Y-35249000D01*
X59178893Y-35249000D01*
X59333642Y-35279781D01*
G37*
G36*
X74498228Y-32781703D02*
G01*
X74653100Y-32845853D01*
X74792481Y-32938985D01*
X74911015Y-33057519D01*
X75004147Y-33196900D01*
X75068297Y-33351772D01*
X75101000Y-33516184D01*
X75101000Y-33683816D01*
X75068297Y-33848228D01*
X75004147Y-34003100D01*
X74911015Y-34142481D01*
X74792481Y-34261015D01*
X74653100Y-34354147D01*
X74498228Y-34418297D01*
X74333816Y-34451000D01*
X74166184Y-34451000D01*
X74001772Y-34418297D01*
X73846900Y-34354147D01*
X73707519Y-34261015D01*
X73588985Y-34142481D01*
X73495853Y-34003100D01*
X73431703Y-33848228D01*
X73399000Y-33683816D01*
X73399000Y-33516184D01*
X73431703Y-33351772D01*
X73495853Y-33196900D01*
X73588985Y-33057519D01*
X73707519Y-32938985D01*
X73846900Y-32845853D01*
X74001772Y-32781703D01*
X74166184Y-32749000D01*
X74333816Y-32749000D01*
X74498228Y-32781703D01*
G37*
G36*
X39213512Y-32343927D02*
G01*
X39362812Y-32373624D01*
X39526784Y-32441544D01*
X39674354Y-32540147D01*
X39799853Y-32665646D01*
X39898456Y-32813216D01*
X39966376Y-32977188D01*
X40001000Y-33151259D01*
X40001000Y-33328741D01*
X39966376Y-33502812D01*
X39898456Y-33666784D01*
X39799853Y-33814354D01*
X39674354Y-33939853D01*
X39526784Y-34038456D01*
X39362812Y-34106376D01*
X39213512Y-34136073D01*
X39188742Y-34141000D01*
X39011258Y-34141000D01*
X38986488Y-34136073D01*
X38837188Y-34106376D01*
X38673216Y-34038456D01*
X38525646Y-33939853D01*
X38400147Y-33814354D01*
X38301544Y-33666784D01*
X38233624Y-33502812D01*
X38199000Y-33328741D01*
X38199000Y-33151259D01*
X38233624Y-32977188D01*
X38301544Y-32813216D01*
X38400147Y-32665646D01*
X38525646Y-32540147D01*
X38673216Y-32441544D01*
X38837188Y-32373624D01*
X38986488Y-32343927D01*
X39011258Y-32339000D01*
X39188742Y-32339000D01*
X39213512Y-32343927D01*
G37*
G36*
X95898228Y-32331703D02*
G01*
X96053100Y-32395853D01*
X96192481Y-32488985D01*
X96311015Y-32607519D01*
X96404147Y-32746900D01*
X96468297Y-32901772D01*
X96501000Y-33066184D01*
X96501000Y-33233816D01*
X96468297Y-33398228D01*
X96404147Y-33553100D01*
X96311015Y-33692481D01*
X96192481Y-33811015D01*
X96053100Y-33904147D01*
X95898228Y-33968297D01*
X95733816Y-34001000D01*
X95566184Y-34001000D01*
X95401772Y-33968297D01*
X95246900Y-33904147D01*
X95107519Y-33811015D01*
X94988985Y-33692481D01*
X94895853Y-33553100D01*
X94831703Y-33398228D01*
X94799000Y-33233816D01*
X94799000Y-33066184D01*
X94831703Y-32901772D01*
X94895853Y-32746900D01*
X94988985Y-32607519D01*
X95107519Y-32488985D01*
X95246900Y-32395853D01*
X95401772Y-32331703D01*
X95566184Y-32299000D01*
X95733816Y-32299000D01*
X95898228Y-32331703D01*
G37*
G36*
X96501000Y-32001000D02*
G01*
X94799000Y-32001000D01*
X94799000Y-30299000D01*
X96501000Y-30299000D01*
X96501000Y-32001000D01*
G37*
G36*
X106201000Y-31951000D02*
G01*
X104399000Y-31951000D01*
X104399000Y-30149000D01*
X106201000Y-30149000D01*
X106201000Y-31951000D01*
G37*
G36*
X75101000Y-31951000D02*
G01*
X73399000Y-31951000D01*
X73399000Y-30249000D01*
X75101000Y-30249000D01*
X75101000Y-31951000D01*
G37*
G36*
X107953512Y-30153927D02*
G01*
X108102812Y-30183624D01*
X108266784Y-30251544D01*
X108414354Y-30350147D01*
X108539853Y-30475646D01*
X108638456Y-30623216D01*
X108706376Y-30787188D01*
X108741000Y-30961259D01*
X108741000Y-31138741D01*
X108706376Y-31312812D01*
X108638456Y-31476784D01*
X108539853Y-31624354D01*
X108414354Y-31749853D01*
X108266784Y-31848456D01*
X108102812Y-31916376D01*
X107953512Y-31946073D01*
X107928742Y-31951000D01*
X107751258Y-31951000D01*
X107726488Y-31946073D01*
X107577188Y-31916376D01*
X107413216Y-31848456D01*
X107265646Y-31749853D01*
X107140147Y-31624354D01*
X107041544Y-31476784D01*
X106973624Y-31312812D01*
X106939000Y-31138741D01*
X106939000Y-30961259D01*
X106973624Y-30787188D01*
X107041544Y-30623216D01*
X107140147Y-30475646D01*
X107265646Y-30350147D01*
X107413216Y-30251544D01*
X107577188Y-30183624D01*
X107726488Y-30153927D01*
X107751258Y-30149000D01*
X107928742Y-30149000D01*
X107953512Y-30153927D01*
G37*
G36*
X110493512Y-30153927D02*
G01*
X110642812Y-30183624D01*
X110806784Y-30251544D01*
X110954354Y-30350147D01*
X111079853Y-30475646D01*
X111178456Y-30623216D01*
X111246376Y-30787188D01*
X111281000Y-30961259D01*
X111281000Y-31138741D01*
X111246376Y-31312812D01*
X111178456Y-31476784D01*
X111079853Y-31624354D01*
X110954354Y-31749853D01*
X110806784Y-31848456D01*
X110642812Y-31916376D01*
X110493512Y-31946073D01*
X110468742Y-31951000D01*
X110291258Y-31951000D01*
X110266488Y-31946073D01*
X110117188Y-31916376D01*
X109953216Y-31848456D01*
X109805646Y-31749853D01*
X109680147Y-31624354D01*
X109581544Y-31476784D01*
X109513624Y-31312812D01*
X109479000Y-31138741D01*
X109479000Y-30961259D01*
X109513624Y-30787188D01*
X109581544Y-30623216D01*
X109680147Y-30475646D01*
X109805646Y-30350147D01*
X109953216Y-30251544D01*
X110117188Y-30183624D01*
X110266488Y-30153927D01*
X110291258Y-30149000D01*
X110468742Y-30149000D01*
X110493512Y-30153927D01*
G37*
G36*
X118613512Y-29843927D02*
G01*
X118762812Y-29873624D01*
X118926784Y-29941544D01*
X119074354Y-30040147D01*
X119199853Y-30165646D01*
X119298456Y-30313216D01*
X119366376Y-30477188D01*
X119401000Y-30651259D01*
X119401000Y-30828741D01*
X119366376Y-31002812D01*
X119298456Y-31166784D01*
X119199853Y-31314354D01*
X119074354Y-31439853D01*
X118926784Y-31538456D01*
X118762812Y-31606376D01*
X118613512Y-31636073D01*
X118588742Y-31641000D01*
X118411258Y-31641000D01*
X118386488Y-31636073D01*
X118237188Y-31606376D01*
X118073216Y-31538456D01*
X117925646Y-31439853D01*
X117800147Y-31314354D01*
X117701544Y-31166784D01*
X117633624Y-31002812D01*
X117599000Y-30828741D01*
X117599000Y-30651259D01*
X117633624Y-30477188D01*
X117701544Y-30313216D01*
X117800147Y-30165646D01*
X117925646Y-30040147D01*
X118073216Y-29941544D01*
X118237188Y-29873624D01*
X118386488Y-29843927D01*
X118411258Y-29839000D01*
X118588742Y-29839000D01*
X118613512Y-29843927D01*
G37*
G36*
X40001000Y-31601000D02*
G01*
X38199000Y-31601000D01*
X38199000Y-29799000D01*
X40001000Y-29799000D01*
X40001000Y-31601000D01*
G37*
G36*
X119401000Y-29101000D02*
G01*
X117599000Y-29101000D01*
X117599000Y-27299000D01*
X119401000Y-27299000D01*
X119401000Y-29101000D01*
G37*
G36*
X109598228Y-25981703D02*
G01*
X109753100Y-26045853D01*
X109892481Y-26138985D01*
X110011015Y-26257519D01*
X110104147Y-26396900D01*
X110168297Y-26551772D01*
X110201000Y-26716184D01*
X110201000Y-26883816D01*
X110168297Y-27048228D01*
X110104147Y-27203100D01*
X110011015Y-27342481D01*
X109892481Y-27461015D01*
X109753100Y-27554147D01*
X109598228Y-27618297D01*
X109433816Y-27651000D01*
X109266184Y-27651000D01*
X109101772Y-27618297D01*
X108946900Y-27554147D01*
X108807519Y-27461015D01*
X108688985Y-27342481D01*
X108595853Y-27203100D01*
X108531703Y-27048228D01*
X108499000Y-26883816D01*
X108499000Y-26716184D01*
X108531703Y-26551772D01*
X108595853Y-26396900D01*
X108688985Y-26257519D01*
X108807519Y-26138985D01*
X108946900Y-26045853D01*
X109101772Y-25981703D01*
X109266184Y-25949000D01*
X109433816Y-25949000D01*
X109598228Y-25981703D01*
G37*
G36*
X68593642Y-25979781D02*
G01*
X68736572Y-26038985D01*
X68739416Y-26040163D01*
X68870608Y-26127822D01*
X68982178Y-26239392D01*
X69020603Y-26296900D01*
X69069838Y-26370586D01*
X69130219Y-26516358D01*
X69161000Y-26671107D01*
X69161000Y-26828893D01*
X69130219Y-26983642D01*
X69069838Y-27129414D01*
X69069837Y-27129416D01*
X68982178Y-27260608D01*
X68870608Y-27372178D01*
X68739416Y-27459837D01*
X68739415Y-27459838D01*
X68739414Y-27459838D01*
X68593642Y-27520219D01*
X68438893Y-27551000D01*
X68281107Y-27551000D01*
X68126358Y-27520219D01*
X67980586Y-27459838D01*
X67980585Y-27459838D01*
X67980584Y-27459837D01*
X67849392Y-27372178D01*
X67737822Y-27260608D01*
X67650163Y-27129416D01*
X67650162Y-27129414D01*
X67589781Y-26983642D01*
X67559000Y-26828893D01*
X67559000Y-26671107D01*
X67589781Y-26516358D01*
X67650162Y-26370586D01*
X67699397Y-26296900D01*
X67737822Y-26239392D01*
X67849392Y-26127822D01*
X67980584Y-26040163D01*
X67983428Y-26038985D01*
X68126358Y-25979781D01*
X68281107Y-25949000D01*
X68438893Y-25949000D01*
X68593642Y-25979781D01*
G37*
G36*
X75748228Y-25881703D02*
G01*
X75903100Y-25945853D01*
X76042481Y-26038985D01*
X76161015Y-26157519D01*
X76254147Y-26296900D01*
X76318297Y-26451772D01*
X76351000Y-26616184D01*
X76351000Y-26783816D01*
X76318297Y-26948228D01*
X76254147Y-27103100D01*
X76161015Y-27242481D01*
X76042481Y-27361015D01*
X75903100Y-27454147D01*
X75748228Y-27518297D01*
X75583816Y-27551000D01*
X75416184Y-27551000D01*
X75251772Y-27518297D01*
X75096900Y-27454147D01*
X74957519Y-27361015D01*
X74838985Y-27242481D01*
X74745853Y-27103100D01*
X74681703Y-26948228D01*
X74649000Y-26783816D01*
X74649000Y-26616184D01*
X74681703Y-26451772D01*
X74745853Y-26296900D01*
X74838985Y-26157519D01*
X74957519Y-26038985D01*
X75096900Y-25945853D01*
X75251772Y-25881703D01*
X75416184Y-25849000D01*
X75583816Y-25849000D01*
X75748228Y-25881703D01*
G37*
G36*
X71701000Y-27551000D02*
G01*
X70099000Y-27551000D01*
X70099000Y-25949000D01*
X71701000Y-25949000D01*
X71701000Y-27551000D01*
G37*
G36*
X66053642Y-25979781D02*
G01*
X66196572Y-26038985D01*
X66199416Y-26040163D01*
X66330608Y-26127822D01*
X66442178Y-26239392D01*
X66480603Y-26296900D01*
X66529838Y-26370586D01*
X66590219Y-26516358D01*
X66621000Y-26671107D01*
X66621000Y-26828893D01*
X66590219Y-26983642D01*
X66529838Y-27129414D01*
X66529837Y-27129416D01*
X66442178Y-27260608D01*
X66330608Y-27372178D01*
X66199416Y-27459837D01*
X66199415Y-27459838D01*
X66199414Y-27459838D01*
X66053642Y-27520219D01*
X65898893Y-27551000D01*
X65741107Y-27551000D01*
X65586358Y-27520219D01*
X65440586Y-27459838D01*
X65440585Y-27459838D01*
X65440584Y-27459837D01*
X65309392Y-27372178D01*
X65197822Y-27260608D01*
X65110163Y-27129416D01*
X65110162Y-27129414D01*
X65049781Y-26983642D01*
X65019000Y-26828893D01*
X65019000Y-26671107D01*
X65049781Y-26516358D01*
X65110162Y-26370586D01*
X65159397Y-26296900D01*
X65197822Y-26239392D01*
X65309392Y-26127822D01*
X65440584Y-26040163D01*
X65443428Y-26038985D01*
X65586358Y-25979781D01*
X65741107Y-25949000D01*
X65898893Y-25949000D01*
X66053642Y-25979781D01*
G37*
G36*
X94503642Y-25679781D02*
G01*
X94649414Y-25740162D01*
X94649416Y-25740163D01*
X94780608Y-25827822D01*
X94892178Y-25939392D01*
X94963312Y-26045853D01*
X94979838Y-26070586D01*
X95040219Y-26216358D01*
X95071000Y-26371107D01*
X95071000Y-26528893D01*
X95040219Y-26683642D01*
X95026739Y-26716185D01*
X94979837Y-26829416D01*
X94892178Y-26960608D01*
X94780608Y-27072178D01*
X94649416Y-27159837D01*
X94649415Y-27159838D01*
X94649414Y-27159838D01*
X94503642Y-27220219D01*
X94348893Y-27251000D01*
X94191107Y-27251000D01*
X94036358Y-27220219D01*
X93890586Y-27159838D01*
X93890585Y-27159838D01*
X93890584Y-27159837D01*
X93759392Y-27072178D01*
X93647822Y-26960608D01*
X93560163Y-26829416D01*
X93513261Y-26716185D01*
X93499781Y-26683642D01*
X93469000Y-26528893D01*
X93469000Y-26371107D01*
X93499781Y-26216358D01*
X93560162Y-26070586D01*
X93576688Y-26045853D01*
X93647822Y-25939392D01*
X93759392Y-25827822D01*
X93890584Y-25740163D01*
X93890586Y-25740162D01*
X94036358Y-25679781D01*
X94191107Y-25649000D01*
X94348893Y-25649000D01*
X94503642Y-25679781D01*
G37*
G36*
X100151000Y-27251000D02*
G01*
X98549000Y-27251000D01*
X98549000Y-25649000D01*
X100151000Y-25649000D01*
X100151000Y-27251000D01*
G37*
G36*
X97043642Y-25679781D02*
G01*
X97189414Y-25740162D01*
X97189416Y-25740163D01*
X97320608Y-25827822D01*
X97432178Y-25939392D01*
X97503312Y-26045853D01*
X97519838Y-26070586D01*
X97580219Y-26216358D01*
X97611000Y-26371107D01*
X97611000Y-26528893D01*
X97580219Y-26683642D01*
X97566739Y-26716185D01*
X97519837Y-26829416D01*
X97432178Y-26960608D01*
X97320608Y-27072178D01*
X97189416Y-27159837D01*
X97189415Y-27159838D01*
X97189414Y-27159838D01*
X97043642Y-27220219D01*
X96888893Y-27251000D01*
X96731107Y-27251000D01*
X96576358Y-27220219D01*
X96430586Y-27159838D01*
X96430585Y-27159838D01*
X96430584Y-27159837D01*
X96299392Y-27072178D01*
X96187822Y-26960608D01*
X96100163Y-26829416D01*
X96053261Y-26716185D01*
X96039781Y-26683642D01*
X96009000Y-26528893D01*
X96009000Y-26371107D01*
X96039781Y-26216358D01*
X96100162Y-26070586D01*
X96116688Y-26045853D01*
X96187822Y-25939392D01*
X96299392Y-25827822D01*
X96430584Y-25740163D01*
X96430586Y-25740162D01*
X96576358Y-25679781D01*
X96731107Y-25649000D01*
X96888893Y-25649000D01*
X97043642Y-25679781D01*
G37*
G36*
X110201000Y-25151000D02*
G01*
X108499000Y-25151000D01*
X108499000Y-23449000D01*
X110201000Y-23449000D01*
X110201000Y-25151000D01*
G37*
G36*
X76351000Y-25051000D02*
G01*
X74649000Y-25051000D01*
X74649000Y-23349000D01*
X76351000Y-23349000D01*
X76351000Y-25051000D01*
G37*
G36*
X59333642Y-23279781D02*
G01*
X59479414Y-23340162D01*
X59479416Y-23340163D01*
X59610608Y-23427822D01*
X59722178Y-23539392D01*
X59809837Y-23670584D01*
X59809838Y-23670586D01*
X59870219Y-23816358D01*
X59901000Y-23971107D01*
X59901000Y-24128893D01*
X59870219Y-24283642D01*
X59809838Y-24429414D01*
X59809837Y-24429416D01*
X59722178Y-24560608D01*
X59610608Y-24672178D01*
X59479416Y-24759837D01*
X59479415Y-24759838D01*
X59479414Y-24759838D01*
X59333642Y-24820219D01*
X59178893Y-24851000D01*
X59021107Y-24851000D01*
X58866358Y-24820219D01*
X58720586Y-24759838D01*
X58720585Y-24759838D01*
X58720584Y-24759837D01*
X58589392Y-24672178D01*
X58477822Y-24560608D01*
X58390163Y-24429416D01*
X58390162Y-24429414D01*
X58329781Y-24283642D01*
X58299000Y-24128893D01*
X58299000Y-23971107D01*
X58329781Y-23816358D01*
X58390162Y-23670586D01*
X58390163Y-23670584D01*
X58477822Y-23539392D01*
X58589392Y-23427822D01*
X58720584Y-23340163D01*
X58720586Y-23340162D01*
X58866358Y-23279781D01*
X59021107Y-23249000D01*
X59178893Y-23249000D01*
X59333642Y-23279781D01*
G37*
G36*
X117898254Y-20027818D02*
G01*
X118271511Y-20182426D01*
X118271513Y-20182427D01*
X118607436Y-20406884D01*
X118893116Y-20692564D01*
X119117574Y-21028489D01*
X119272182Y-21401746D01*
X119351000Y-21797993D01*
X119351000Y-22202007D01*
X119272182Y-22598254D01*
X119117574Y-22971511D01*
X119117573Y-22971513D01*
X118893116Y-23307436D01*
X118607436Y-23593116D01*
X118271513Y-23817573D01*
X118271512Y-23817574D01*
X118271511Y-23817574D01*
X117898254Y-23972182D01*
X117502007Y-24051000D01*
X117097993Y-24051000D01*
X116701746Y-23972182D01*
X116328489Y-23817574D01*
X116328488Y-23817574D01*
X116328487Y-23817573D01*
X115992564Y-23593116D01*
X115706884Y-23307436D01*
X115482427Y-22971513D01*
X115482426Y-22971511D01*
X115327818Y-22598254D01*
X115249000Y-22202007D01*
X115249000Y-21797993D01*
X115327818Y-21401746D01*
X115482426Y-21028489D01*
X115706884Y-20692564D01*
X115992564Y-20406884D01*
X116328487Y-20182427D01*
X116328489Y-20182426D01*
X116701746Y-20027818D01*
X117097993Y-19949000D01*
X117502007Y-19949000D01*
X117898254Y-20027818D01*
G37*
G36*
X40898254Y-20027818D02*
G01*
X41271511Y-20182426D01*
X41271513Y-20182427D01*
X41607436Y-20406884D01*
X41893116Y-20692564D01*
X42117574Y-21028489D01*
X42272182Y-21401746D01*
X42351000Y-21797993D01*
X42351000Y-22202007D01*
X42272182Y-22598254D01*
X42117574Y-22971511D01*
X42117573Y-22971513D01*
X41893116Y-23307436D01*
X41607436Y-23593116D01*
X41271513Y-23817573D01*
X41271512Y-23817574D01*
X41271511Y-23817574D01*
X40898254Y-23972182D01*
X40502007Y-24051000D01*
X40097993Y-24051000D01*
X39701746Y-23972182D01*
X39328489Y-23817574D01*
X39328488Y-23817574D01*
X39328487Y-23817573D01*
X38992564Y-23593116D01*
X38706884Y-23307436D01*
X38482427Y-22971513D01*
X38482426Y-22971511D01*
X38327818Y-22598254D01*
X38249000Y-22202007D01*
X38249000Y-21797993D01*
X38327818Y-21401746D01*
X38482426Y-21028489D01*
X38706884Y-20692564D01*
X38992564Y-20406884D01*
X39328487Y-20182427D01*
X39328489Y-20182426D01*
X39701746Y-20027818D01*
X40097993Y-19949000D01*
X40502007Y-19949000D01*
X40898254Y-20027818D01*
G37*
M02*
